#N canvas 199 23 536 728 10;
#X text 27 52 =============================================================================
, f 77;
#X obj 73 1309 ball~, f 10;
#X obj 73 2249 bezier~, f 12;
#X obj 73 2279 bezigon~;
#X obj 73 959 bright~;
#X obj 74 399 cuboid~;
#X obj 73 1189 cut_equal~;
#X obj 73 1129 cut_mix~;
#X obj 73 989 dash~;
#X obj 74 429 dodecahedron~;
#X obj 73 1339 grid~, f 14;
#X obj 74 459 icosahedron~, f 14;
#X obj 73 1019 knee~, f 7;
#X obj 73 1459 lerp~, f 14;
#X obj 73 1639 map, f 14;
#X obj 73 1669 map~, f 14;
#X obj 74 489 octahedron~, f 14;
#X obj 73 1549 project~, f 14;
#X obj 73 1489 osci/ramp, f 14;
#X obj 73 1519 osci/ramp~, f 14;
#X obj 73 834 shear~, f 14;
#X obj 74 519 tetrahedron~, f 14;
#X obj 73 1049 trace~, f 7;
#X obj 73 864 translate~, f 14;
#X text 54 75 2D Primitives:;
#X obj 73 109 point~;
#X obj 73 169 circle~;
#X obj 73 199 ellipse~, f 14;
#X obj 73 319 polygon~;
#X text 27 352 =============================================================================
, f 77;
#X text 54 375 3D Primitives:;
#X text 27 722 =============================================================================
, f 77;
#X text 54 745 Transformations:;
#X text 27 902 =============================================================================
, f 77;
#X text 54 925 Phase Manipulation:;
#X text 27 1072 =============================================================================
, f 77;
#X text 54 1095 Phase Cutting:;
#X obj 73 1219 cut_weights~;
#X obj 73 1159 cut_idx~;
#X text 27 1252 =============================================================================
, f 77;
#X text 54 1275 Effects:;
#X text 27 1402 =============================================================================
, f 77;
#X text 54 1425 Glue:;
#X text 27 2052 =============================================================================
, f 77;
#X text 54 2075 Misc:;
#X text 27 2702 =============================================================================
, f 77;
#X text 51 30 ALL OBJECTS IN THE OSCI LIBRARY:;
#X obj 73 139 osci/line~, f 15;
#X text 27 552 =============================================================================
, f 77;
#X text 54 575 Parametric Equations:;
#X obj 78 604 heart~;
#X obj 78 634 selipse~;
#X obj 78 664 supershape~;
#X obj 73 2219 text~, f 12;
#X obj 73 229 rectangle~, f 14;
#X obj 78 694 hypotrochoid~;
#X text 27 1872 =============================================================================
, f 77;
#X text 54 1895 Signal send and receive:;
#X obj 73 1699 skew, f 15;
#X obj 73 1729 skew~, f 15;
#X text 27 1582 =============================================================================
, f 77;
#X obj 73 1369 chris_clip~, f 14;
#X obj 73 2309 shroom~, f 20;
#X obj 73 2349 xy_splitter~;
#X obj 73 1929 thrower~ baz, f 14;
#X obj 73 1959 catcher~ baz, f 14;
#X obj 73 289 triangle~;
#X obj 73 2099 n~;
#X obj 73 2127 n;
#X obj 73 2616 osci/out~, f 14;
#X text 54 1605 Value mapping:;
#X obj 3 8 tgl 15 1 empty empty empty 17 7 0 10 -262144 -1 -1 0 1;
#X obj 3 29 switch~;
#X obj 73 1989 snd~ bar, f 14;
#X obj 73 2019 rcv~ bar, f 14;
#X text 23 7 <== DO NOT TURN DSP ON IN THE PATCH!!! PD WILL CRASH!!!!
;
#X text 27 1752 =============================================================================
, f 77;
#X text 54 1775 Brightness Control:;
#X obj 73 1807 osci/gamma~;
#X obj 73 774 osci/rotate~, f 14;
#X obj 73 803 osci/scale~, f 14;
#X text 180 2364 <== may remove this in the future;
#X obj 73 259 square~;
#X obj 73 2429 record~;
#X obj 73 2158 date, f 11;
#X obj 73 2190 time, f 14;
#X connect 71 0 72 0;
