#N canvas 425 23 536 728 10;
#X declare -lib osci;
#X text 27 52 =============================================================================
, f 77;
#X obj 73 1679 project~, f 14;
#X obj 73 1619 osci/ramp, f 14;
#X obj 73 1649 osci/ramp~, f 14;
#X text 54 75 2D Primitives:;
#X obj 73 109 point~;
#X text 27 352 =============================================================================
, f 77;
#X text 54 375 3D Primitives:;
#X text 27 772 =============================================================================
, f 77;
#X text 54 795 Transformations:;
#X text 27 1002 =============================================================================
, f 77;
#X text 54 1025 Phase Manipulation:;
#X text 27 1172 =============================================================================
, f 77;
#X text 54 1195 Phase Cutting:;
#X obj 73 1259 cut_idx~;
#X text 27 1352 =============================================================================
, f 77;
#X text 54 1375 Effects:;
#X text 27 1532 =============================================================================
, f 77;
#X text 54 1555 Glue:;
#X text 27 2432 =============================================================================
, f 77;
#X text 54 2455 Misc:;
#X text 51 30 ALL OBJECTS IN THE OSCI LIBRARY:;
#X obj 73 139 osci/line~, f 15;
#X text 27 602 =============================================================================
, f 77;
#X text 54 625 Parametric Equations:;
#X text 27 2252 =============================================================================
, f 77;
#X text 54 2275 Signal send and receive:;
#X text 27 1732 =============================================================================
, f 77;
#X obj 73 2717 shroom~, f 20;
#X obj 73 2747 splitter~;
#X obj 73 2309 thrower~ baz, f 14;
#X obj 73 2339 catcher~ baz, f 14;
#X obj 73 2479 n~;
#X obj 73 2507 n;
#X obj 73 3092 osci/out~, f 14;
#X text 54 1755 Value mapping:;
#X obj 413 31 switch~;
#X obj 73 2369 snd~ bar, f 14;
#X obj 73 2399 rcv~ bar, f 14;
#X text 27 1902 =============================================================================
, f 77;
#X text 54 1925 Brightness Control:;
#X obj 73 1957 osci/gamma~;
#X obj 73 913 osci/scale~, f 14;
#X obj 73 2875 record~;
#X obj 73 2567 date, f 11;
#X obj 73 2597 time, f 14;
#X obj 305 31 declare -lib osci;
#X text 27 2137 =============================================================================
, f 77;
#X text 54 2160 Binary Operators:;
#X obj 73 2192 ==~;
#X obj 113 2192 !=~;
#X obj 153 2192 <~;
#X obj 193 2192 >~;
#X obj 73 2222 <=~;
#X obj 113 2222 >=~;
#X obj 153 2222 %~;
#X obj 73 259 osci/square~;
#X obj 73 289 osci/triangle~;
#X text 28 3248 ==========================================================================================================================================================
, f 77;
#N canvas 0 23 430 285 gui_version 0;
#X obj 45 44 dash~-g;
#X restore 145 1090 pd gui_version;
#N canvas 0 23 430 285 gui_version 0;
#X obj 53 79 osci/shear~-g;
#X restore 185 944 pd gui_version;
#N canvas 399 191 427 337 gui_version 0;
#X obj 23 17 chris_clip~-g;
#X obj 216 17 chris_clip~-all;
#X restore 181 1469 pd gui_version;
#X obj 413 5 tgl 18 0 empty empty empty 30 11 0 12 #58504c #a8b464
#c4b08c 0 1;
#X obj 73 2084 spotkiller~;
#X obj 73 169 osci/circle~;
#X obj 73 199 osci/ellipse~, f 14;
#X obj 73 229 osci/rectangle~;
#X obj 73 319 osci/polygon~;
#X obj 73 398 osci/cuboid~, f 19;
#X obj 74 429 osci/dodecahedron~, f 19;
#X obj 74 459 osci/icosahedron~, f 19;
#X obj 74 489 osci/octahedron~, f 19;
#X obj 74 519 osci/tetrahedron~, f 19;
#X obj 75 550 osci/sphere~, f 19;
#X obj 78 654 osci/heart~;
#X obj 78 684 osci/selipse~;
#X obj 78 714 osci/supershape~;
#X obj 78 744 osci/hypotrochoid~;
#X obj 73 824 osci/rotate_euler~;
#X obj 73 854 osci/rotate_axis~;
#X obj 73 884 osci/rotate_pivot~;
#X obj 73 944 osci/shear~, f 14;
#X obj 73 974 osci/translate~;
#X obj 73 1229 osci/cut_mix~;
#X obj 73 1289 osci/cut_equal~;
#X obj 73 1319 osci/cut_weights~;
#X obj 73 1409 osci/ball~;
#X obj 73 1439 osci/grid~, f 14;
#X obj 73 1469 osci/chris_clip~;
#X obj 73 1499 osci/zoom~, f 14;
#X obj 73 1588 osci/lerp~, f 14;
#X obj 72 1706 osci/clamp~;
#X obj 73 1789 osci/map, f 14;
#X obj 73 1819 osci/map~, f 14;
#X obj 73 1849 osci/skew, f 15;
#X obj 73 1879 osci/skew~, f 15;
#X obj 73 2537 osci/m_wrap;
#X obj 73 2627 osci/text~, f 12;
#X obj 73 2657 osci/bezier~;
#X obj 73 2687 osci/bezigon~;
#X obj 73 1059 osci/bright~;
#X obj 73 1089 osci/dash~;
#X obj 73 1119 osci/knee~;
#X obj 73 1149 osci/trace~;
#X text 202 228 alias:;
#X text 202 288 alias:;
#X text 202 318 alias:;
#X obj 253 229 osci/rect~, f 11;
#X obj 253 289 osci/tri~, f 10;
#X obj 253 319 osci/gon~, f 10;
#X text 205 429 alias:;
#X text 205 459 alias:;
#X text 205 489 alias:;
#X text 205 519 alias:;
#X obj 254 429 osci/dodeca~, f 19;
#X obj 254 459 osci/icosa~, f 19;
#X obj 254 489 osci/octa~, f 19;
#X obj 254 519 osci/tetra~, f 19;
#X text 205 713 alias:;
#X obj 254 713 osci/super~, f 19;
#X text 195 823 alias:;
#X obj 244 823 osci/rotate_e~, f 19;
#X text 195 854 alias:;
#X obj 244 853 osci/rotate_a~, f 19;
#X text 195 884 alias:;
#X obj 244 883 osci/rotate_p~, f 19;
#X text 195 975 alias:;
#X obj 244 974 osci/trans~, f 19;
#X connect 62 0 36 0;
