#N canvas 426 200 450 463 12;
#X obj 11 111 osci/tsp, f 22;
#X obj 165 177 s \$1-len;
#X obj 165 142 - 1, f 5;
#X obj 280 106 array define \$1-x;
#X obj 280 136 array define \$1-y;
#X obj 280 166 array define \$1-z;
#X obj 280 196 array define \$1-i;
#X obj 152 211 array size \$1-x;
#X obj 152 241 array size \$1-y;
#X obj 152 271 array size \$1-z;
#X obj 152 301 array size \$1-i;
#X obj 11 423 array set \$1-x;
#X obj 46 391 array set \$1-y;
#X obj 81 363 array set \$1-z;
#X obj 116 334 array set \$1-i;
#X obj 11 17 inlet;
#X obj 11 43 route symbol max;
#X msg 60 74 max \$1;
#X obj 122 74 print [osci/blender-tsp] error unkown message;
#X connect 0 0 11 0;
#X connect 0 1 12 0;
#X connect 0 2 13 0;
#X connect 0 3 14 0;
#X connect 0 4 2 0;
#X connect 0 4 7 0;
#X connect 0 4 8 0;
#X connect 0 4 9 0;
#X connect 0 4 10 0;
#X connect 2 0 1 0;
#X connect 15 0 16 0;
#X connect 16 0 0 0;
#X connect 16 1 17 0;
#X connect 16 2 18 0;
#X connect 17 0 0 0;
