#N canvas 495 90 290 205 12;
#X obj 9 7 inlet~;
#X obj 9 73 *~ 1;
#X obj 24 46 r \$1-len;
#X obj 38 104 tabread~ \$1-i;
#X obj 9 149 osci/tabreadlin~ \$1-x \$1-y \$1-z;
#X obj 9 175 outlet~ x;
#X obj 111 175 outlet~ y;
#X obj 213 175 outlet~ z;
#X connect 0 0 1 0;
#X connect 1 0 3 0;
#X connect 1 0 4 0;
#X connect 2 0 1 1;
#X connect 3 0 4 1;
#X connect 4 0 5 0;
#X connect 4 1 6 0;
#X connect 4 2 7 0;
