#N canvas 175 104 845 444 12;
#X obj 41 297 chris_clip~ -1 1;
#X obj 41 32 inlet~ value;
#X obj 208 32 inlet~ min;
#X obj 364 32 inlet~ max;
#X obj 41 401 outlet~;
#X obj 449 32 inlet~ make_up;
#X obj 589 187 cnv 15 115 76 empty empty empty 20 12 0 14 -99865 -66577
0;
#X obj 637 207 nbx 4 17 -1e+37 1e+37 0 0 \$0-min \$0-set-min Min -20
8 0 10 -204786 -1 -228856 -1 256;
#X obj 637 226 nbx 4 17 -1e+37 1e+37 0 0 \$0-max \$0-set-max Max -20
8 0 10 -204786 -1 -228856 1 256;
#X obj 106 143 else/xselect~ 2;
#X obj 106 67 r \$0-min;
#X obj 106 91 sig~;
#X obj 143 113 + 1;
#X obj 143 89 r \$0-min-sig-sel;
#X obj 262 150 else/xselect~ 2;
#X obj 262 98 sig~;
#X obj 299 120 + 1;
#X obj 262 74 r \$0-max;
#X obj 299 96 r \$0-max-sig-sel;
#X obj 685 207 tgl 17 0 \$0-max-sig-sel \$0-set-max-sig-sel empty 17
7 0 10 -204786 -1 -1 0 1;
#X obj 685 226 tgl 17 0 \$0-min-sig-sel \$0-set-min-sig-sel empty 17
7 0 10 -204786 -1 -1 0 1;
#X obj 41 348 *~;
#X obj 637 245 nbx 4 17 -1e+37 1e+37 0 0 \$0-make-up \$0-set-make-up
Make\\\ Up -45 8 0 10 -204786 -1 -228856 1 256;
#X obj 347 329 else/xselect~ 2;
#X obj 347 277 sig~;
#X obj 384 299 + 1;
#X obj 347 253 r \$0-make-up;
#X obj 685 245 tgl 17 0 \$0-make-up-tgl \$0-set-make-up-tgl empty -75
8 0 10 -204786 -1 -228856 0 1;
#X obj 589 172 cnv 12 115 14 empty empty chris_clip~ 2 8 0 10 -37450
-228856 0;
#X obj 589 262 cnv 1 7 1 empty empty empty 20 12 0 14 -262144 -66577
0;
#X obj 589 172 cnv 1 7 1 empty empty empty 20 12 0 14 -262144 -66577
0;
#X obj 624 172 cnv 1 7 1 empty empty empty 20 12 0 14 -262144 -66577
0;
#X obj 661 172 cnv 1 7 1 empty empty empty 20 12 0 14 -262144 -66577
0;
#X obj 697 172 cnv 1 7 1 empty empty empty 20 12 0 14 -262144 -66577
0;
#X obj 637 188 tgl 17 0 \$0-mirror \$0-set-mirror Mirror -38 9 0 10
-204786 -1 -228856 0 1;
#X obj 685 188 tgl 17 0 \$0-mod \$0-set-mod Mod -20 9 0 10 -204786
-1 -228856 0 1;
#X obj 113 211 r \$0-mirror;
#X obj 46 211 r \$0-mod;
#X msg 113 235 mirror \$1;
#X msg 46 235 mod \$1;
#X obj 384 275 r \$0-make-up-tgl;
#N canvas 129 62 448 658 settings 1;
#X obj 109 147 savestate;
#X obj 179 220 pack f f f f f f f f;
#X obj 169 179 f;
#X obj 187 21 r \$0-mirror;
#X obj 198 46 r \$0-mod;
#X obj 218 71 r \$0-min;
#X obj 237 96 r \$0-min-sig-sel;
#X obj 257 121 r \$0-max;
#X obj 276 146 r \$0-max-sig-sel;
#X obj 296 171 r \$0-make-up;
#X obj 316 196 r \$0-make-up-tgl;
#X obj 42 382 unpack f f f f f f f f;
#X obj 193 407 s \$0-set-make-up-tgl;
#X obj 171 432 s \$0-set-make-up;
#X obj 149 457 s \$0-set-max-sig-sel;
#X obj 128 482 s \$0-set-max;
#X obj 106 507 s \$0-set-min-sig-sel;
#X obj 85 532 s \$0-set-min;
#X obj 63 557 s \$0-set-mod;
#X obj 42 582 s \$0-set-mirror;
#X obj 42 221 loadbang;
#X msg 42 343 list 0 0 -1 0 1 0 1 0;
#X obj 42 284 spigot 1;
#X obj 109 221 t b l;
#X msg 95 252 0;
#X text 201 343 //default params;
#X connect 0 0 23 0;
#X connect 0 1 2 0;
#X connect 1 0 0 0;
#X connect 2 0 1 0;
#X connect 3 0 2 1;
#X connect 4 0 1 1;
#X connect 5 0 1 2;
#X connect 6 0 1 3;
#X connect 7 0 1 4;
#X connect 8 0 1 5;
#X connect 9 0 1 6;
#X connect 10 0 1 7;
#X connect 11 0 19 0;
#X connect 11 1 18 0;
#X connect 11 2 17 0;
#X connect 11 3 16 0;
#X connect 11 4 15 0;
#X connect 11 5 14 0;
#X connect 11 6 13 0;
#X connect 11 7 12 0;
#X connect 20 0 22 0;
#X connect 21 0 11 0;
#X connect 22 0 21 0;
#X connect 23 0 24 0;
#X connect 23 1 11 0;
#X connect 24 0 22 1;
#X restore 645 145 pd settings;
#X text 99 363 // TODO: Possibly add an auto make-up option in the
future;
#X obj 645 9 else/initmess \; \$0-set-max 1 \; \$0-set-min -1 \; \$0-set-make-up
1 \; \$0-set-max-sig-sel 0 \; \$0-set-min-sig-sel 0 \; \$0-set-make-up-tgl
0 \; \$0-set-mirror 0 \; \$0-set-mod 0 \;;
#X connect 0 0 21 0;
#X connect 1 0 0 0;
#X connect 2 0 9 1;
#X connect 3 0 14 1;
#X connect 5 0 23 1;
#X connect 9 0 0 1;
#X connect 10 0 11 0;
#X connect 11 0 9 0;
#X connect 12 0 9 0;
#X connect 13 0 12 0;
#X connect 14 0 0 2;
#X connect 15 0 14 0;
#X connect 16 0 14 0;
#X connect 17 0 15 0;
#X connect 18 0 16 0;
#X connect 21 0 4 0;
#X connect 23 0 21 1;
#X connect 24 0 23 0;
#X connect 25 0 23 0;
#X connect 26 0 24 0;
#X connect 36 0 38 0;
#X connect 37 0 39 0;
#X connect 38 0 0 0;
#X connect 39 0 0 0;
#X connect 40 0 25 0;
#X coords 0 -1 1 1 117 93 2 588 171;
