#N canvas 0 23 1036 435 12;
#X obj 11 12 inlet~ value;
#X obj 366 12 inlet~ min;
#X obj 616 12 inlet~ max;
#X obj 11 381 outlet~;
#X obj 919 12 inlet~ make_up;
#X obj 176 173 else/xselect~ 2;
#X obj 176 67 r \$0-min;
#X obj 176 91 sig~;
#X obj 193 143 + 1;
#X obj 193 119 r \$0-min-sig-sel;
#X obj 488 185 else/xselect~ 2;
#X obj 488 93 sig~;
#X obj 495 155 + 1;
#X obj 488 67 r \$0-max;
#X obj 737 189 else/xselect~ 2;
#X obj 737 97 sig~;
#X obj 746 159 + 1;
#X obj 737 67 r \$0-make-up;
#X obj 83 111 r \$0-mirror;
#X obj 16 111 r \$0-mod;
#X msg 83 135 mirror \$1;
#X msg 16 135 mod \$1;
#X obj 11 277 osci/chris_clip~ -1 1;
#X obj 560 319 cnv 15 169 91 empty body empty 20 12 0 14 -99865 -66577
0;
#X obj 560 303 cnv 15 169 15 empty h1 osci/chris_clip~-g 3 8 0 11 -16645
-257781 0;
#N canvas 333 40 313 179 gui 0;
#N canvas 0 23 472 146 tgl_labels 0;
#X obj 3 32 sel 0 1;
#X obj 143 32 sel 0 1;
#X obj 283 32 sel 0 1;
#X msg 23 56 label inlet;
#X msg 163 56 label inlet;
#X msg 303 56 label inlet;
#X msg 3 86 label num_box;
#X msg 143 86 label num_box;
#X msg 283 86 label num_box;
#X obj 143 8 r \$0-max-input;
#X obj 283 8 r \$0-make-up-input;
#X obj 284 110 s \$0-set-make-up-input;
#X obj 144 110 s \$0-set-max-input;
#X obj 4 110 s \$0-set-min-input;
#X obj 3 8 r \$0-min-input;
#X connect 0 0 6 0;
#X connect 0 1 3 0;
#X connect 1 0 7 0;
#X connect 1 1 4 0;
#X connect 2 0 8 0;
#X connect 2 1 5 0;
#X connect 3 0 13 0;
#X connect 4 0 12 0;
#X connect 5 0 11 0;
#X connect 6 0 13 0;
#X connect 7 0 12 0;
#X connect 8 0 11 0;
#X connect 9 0 1 0;
#X connect 10 0 2 0;
#X connect 14 0 0 0;
#X restore 196 23 pd tgl_labels;
#X obj 15 11 else/initmess \; \$0-set-mirror 0 \; \$0-set-mod 0 \;
\$0-set-min -1 \; \$0-set-max 1 \; \$0-set-make-up 1 \; \$0-set-max-input
0 \; \$0-set-min-input 0 \; \$0-set-make-up-input 0 \;;
#X restore 438 330 pd gui;
#X floatatom 565 345 5 0 0 1 min #0-set-min #0-min;
#X floatatom 565 366 5 0 1 1 max #0-set-max #0-max;
#X obj 655 366 tgl 18 0 \$0-max-input \$0-set-max-input num_box 22
9 0 11 -91412 -174938 -203556 0 1;
#X obj 655 345 tgl 18 0 \$0-min-input \$0-set-min-input num_box 22
9 0 11 -91412 -174938 -203556 0 1;
#X obj 655 387 tgl 18 0 \$0-make-up-input \$0-set-make-up-input num_box
22 9 0 11 -91412 -174938 -203556 0 1;
#X floatatom 565 387 5 0 0 1 make_up #0-set-make-up #0-make-up;
#X obj 746 135 r \$0-make-up-input;
#X obj 565 324 tgl 18 0 \$0-mirror \$0-set-mirror mirror 22 9 0 11
-91412 -174938 -203556 0 1;
#X obj 655 324 tgl 18 0 \$0-mod \$0-set-mod mod 22 9 0 11 -91412 -174938
-203556 0 1;
#X obj 560 408 cnv 2 7 2 empty empty empty 20 12 0 14 -198865 -66577
0;
#X obj 495 131 r \$0-max-input;
#X obj 11 341 *~;
#X obj 919 127 osci/n~;
#X obj 616 127 osci/n~;
#X obj 366 127 osci/n~;
#X obj 560 303 cnv 2 7 2 empty empty empty 20 12 0 14 -198865 -66577
0;
#X obj 668 303 cnv 2 7 2 empty empty empty 20 12 0 14 -198865 -66577
0;
#X obj 613 303 cnv 2 7 2 empty empty empty 20 12 0 14 -198865 -66577
0;
#X obj 722 303 cnv 2 7 2 empty empty empty 20 12 0 14 -198865 -66577
0;
#X connect 0 0 22 0;
#X connect 1 0 40 0;
#X connect 2 0 39 0;
#X connect 4 0 38 0;
#X connect 5 0 22 1;
#X connect 6 0 7 0;
#X connect 7 0 5 0;
#X connect 8 0 5 0;
#X connect 9 0 8 0;
#X connect 10 0 22 2;
#X connect 11 0 10 0;
#X connect 12 0 10 0;
#X connect 13 0 11 0;
#X connect 14 0 37 1;
#X connect 15 0 14 0;
#X connect 16 0 14 0;
#X connect 17 0 15 0;
#X connect 18 0 20 0;
#X connect 19 0 21 0;
#X connect 20 0 22 0;
#X connect 21 0 22 0;
#X connect 22 0 37 0;
#X connect 32 0 16 0;
#X connect 36 0 12 0;
#X connect 37 0 3 0;
#X connect 38 0 14 1;
#X connect 39 0 10 1;
#X connect 40 0 5 1;
#X coords 0 -1 1 1 171 109 2 559 302;
