#N canvas 297 205 725 348 12;
#X obj 50 194 *~;
#X obj 68 121 >~ 0;
#X obj 50 248 outlet~;
#X obj 180 194 *~;
#X obj 198 121 >~ 0;
#X obj 180 248 outlet~;
#X obj 340 194 *~;
#X obj 358 121 >~ 0;
#X obj 340 248 outlet~;
#X obj 50 20 inlet~ x;
#X obj 180 20 inlet~ y;
#X obj 340 20 inlet~ z;
#X obj 480 20 inlet~ cut_idx;
#X connect 0 0 2 0;
#X connect 1 0 0 1;
#X connect 3 0 5 0;
#X connect 4 0 3 1;
#X connect 6 0 8 0;
#X connect 7 0 6 1;
#X connect 9 0 0 0;
#X connect 10 0 3 0;
#X connect 11 0 6 0;
#X connect 12 0 1 0;
#X connect 12 0 4 0;
#X connect 12 0 7 0;
