#N canvas -680 201 615 487 12;
#X obj 4 43 inlet~ brightness;
#X obj 4 300 pow~ 0.9;
#X obj 4 224 osci/map~ 0 1 0.8 1;
#X obj 4 417 clip~ 0 1;
#X obj 4 445 outlet~ brightness;
#X obj 172 26 loadbang;
#X obj 172 81 expr if($f1 <= 0 \, 0.8 \, $f1);
#X obj 374 82 expr if($f1 <= 0 \, 0.9 \, $f1);
#X text 212 58 brightness min;
#X text 414 57 gamma amount;
#N canvas 0 23 491 320 notes 0;
#X text 4 61 luminance is a value b/w 0 and 1;
#X text 4 93 correction function: x^y (x is the input \, y is the "gamma")
;
#X text 4 125 this gets summed with the scopes own intensity;
#X text 4 157 current assumption -> max out brightness on the scope
if controlling brightness from pd.;
#X text 5 209 REMEMBER TO TURN BRIGHTNESS BACK DOWN ON THE SCOPE!!!
;
#X restore 3 5 pd notes;
#X obj 57 257 r \$0-gamma;
#X obj 101 176 r \$0-b-min;
#X obj 172 105 s \$0-set-b-min;
#X obj 374 106 s \$0-set-gamma;
#X floatatom 110 201 5 0 0 0 - - -;
#X floatatom 67 281 5 0 0 0 - - -;
#X obj 4 67 clip~ 0 1;
#X obj 172 57 f \$1;
#X obj 374 56 f \$2;
#X connect 0 0 17 0;
#X connect 1 0 3 0;
#X connect 2 0 1 0;
#X connect 3 0 4 0;
#X connect 5 0 18 0;
#X connect 5 0 19 0;
#X connect 6 0 13 0;
#X connect 7 0 14 0;
#X connect 11 0 16 0;
#X connect 11 0 1 1;
#X connect 12 0 15 0;
#X connect 12 0 2 3;
#X connect 17 0 2 0;
#X connect 18 0 6 0;
#X connect 19 0 7 0;
#X coords 0 487 1 486 92 60 0;
