#N canvas -680 201 615 487 12;
#X obj 4 43 inlet~ brightness;
#X obj 4 417 clip~ 0 1;
#X obj 4 445 outlet~ brightness;
#N canvas 0 23 491 320 notes 0;
#X text 4 61 luminance is a value b/w 0 and 1;
#X text 4 93 correction function: x^y (x is the input \, y is the "gamma")
;
#X text 4 125 this gets summed with the scopes own intensity;
#X text 4 157 current assumption -> max out brightness on the scope
if controlling brightness from pd.;
#X text 5 209 REMEMBER TO TURN BRIGHTNESS BACK DOWN ON THE SCOPE!!!
;
#X restore 3 5 pd notes;
#X obj 4 67 clip~ 0 1;
#X obj 4 224 osci/map~ 0 1 0.8 1;
#X obj 134 43 inlet~ b-min;
#X obj 226 43 inlet~ gamma;
#X obj 4 300 pow~;
#X connect 0 0 4 0;
#X connect 1 0 2 0;
#X connect 4 0 5 0;
#X connect 5 0 8 0;
#X connect 6 0 5 3;
#X connect 7 0 8 1;
#X connect 8 0 1 0;
#X coords 0 487 1 486 92 60 0;
