#N canvas 252 203 554 399 12;
#X obj 37 221 osci/lerp~, f 38;
#X obj 37 16 inlet~ driver;
#X obj 168 273 outlet~ y_out;
#X obj 37 300 outlet~ x_out;
#X obj 300 247 outlet~ y_out;
#X obj 80 47 inlet~ x1;
#X obj 124 77 inlet~ y1;
#X obj 168 106 inlet~ z1;
#X obj 212 136 inlet~ x2;
#X obj 256 166 inlet~ y2;
#X obj 300 196 inlet~ z2;
#X obj 37 40 wrap~;
#X connect 0 0 3 0;
#X connect 0 1 2 0;
#X connect 0 2 4 0;
#X connect 1 0 11 0;
#X connect 5 0 0 1;
#X connect 6 0 0 2;
#X connect 7 0 0 3;
#X connect 8 0 0 4;
#X connect 9 0 0 5;
#X connect 10 0 0 6;
#X connect 11 0 0 0;
