#N canvas 184 -441 450 300 12;
#N canvas 42 292 554 427 guts 0;
#X obj 90 25 else/loadbanger -init;
#X obj 90 49 f \$1;
#X obj 90 146 until;
#X obj 90 372 s \$0-this;
#X obj 90 205 f 20;
#X obj 130 205 + 60;
#X obj 190 205 f 2;
#X obj 90 268 pack f f f;
#X obj 90 170 t b b;
#X obj 190 247 + 1;
#X msg 90 306 obj \$1 100 inlet \, obj \$1 130 outlet \, connect \$2
0 \$3 0, f 18;
#X text 241 313 obj <x \, y> <objname>;
#X text 241 333 connect obj1 outlet# \, obj2 inlet#;
#X obj 90 104 expr if($f1 < 1 \, 1 \, $f1);
#X obj 90 73 int;
#X obj 229 205 + 1;
#X connect 0 0 1 0;
#X connect 1 0 14 0;
#X connect 2 0 8 0;
#X connect 4 0 5 0;
#X connect 4 0 7 0;
#X connect 5 0 4 1;
#X connect 6 0 9 0;
#X connect 6 0 7 1;
#X connect 7 0 10 0;
#X connect 8 0 4 0;
#X connect 8 1 6 0;
#X connect 9 0 7 2;
#X connect 9 0 15 0;
#X connect 10 0 3 0;
#X connect 13 0 2 0;
#X connect 14 0 13 0;
#X connect 15 0 6 1;
#X restore 13 16 pd guts;
#X obj 13 42 namecanvas \$0-this;
