#N canvas 60 112 1128 538 10;
#X obj 511 91 cnv 15 92 12 empty header osci/out~ 3 6 0 10 -33289 -228856
0;
#X obj 13 273 *~;
#X obj 179 272 *~;
#X obj 87 198 r \$0-mute;
#X obj 13 163 *~;
#X obj 179 163 *~;
#X obj 71 100 r \$0-volume;
#X obj 511 104 cnv 15 92 60 empty \$0-primary-bg empty 20 12 0 14 -99865
-66577 0;
#X obj 515 141 hsl 85 18 0 1 0 0 \$0-volume \$0-set-volume Volume 25
10 0 10 -191407 -48774 -1 0 1;
#X obj 512 105 tgl 15 0 empty empty DSP 17 7 0 10 -191407 -1 -228856
0 1;
#X obj 587 105 bng 15 250 50 0 \$0-mute \$0-set-mute Mute -26 7 0 10
-191407 -1 -228856;
#X msg 431 164 \; pd dsp \$1;
#X obj 87 219 tgl 15 0 empty empty empty 17 7 0 10 -262144 -1 -1 1
1;
#X obj 13 16 inlet~ x;
#X obj 179 16 inlet~ y;
#X obj 13 496 outlet~ x;
#X obj 179 496 outlet~ y;
#X obj 614 77 r \$0-mute;
#X obj 614 95 tgl 15 0 empty empty empty 17 7 0 10 -262144 -1 -1 1
1;
#X msg 614 157 label Volume;
#X msg 633 137 label Muted;
#X obj 428 40 r pd;
#X obj 428 61 route dsp;
#X obj 431 143 change;
#X obj 614 116 sel 1 0;
#X obj 71 121 osci/ramp~ 30;
#X obj 87 239 osci/ramp~ 30;
#X obj 189 47 catch~ m-out-y;
#X obj 26 47 catch~ m-out-x;
#X obj 511 91 cnv 1 7 1 empty empty empty 20 12 0 14 -262144 -66577
0;
#X obj 596 91 cnv 1 7 1 empty empty empty 20 12 0 14 -262144 -66577
0;
#X obj 512 123 tgl 15 0 \$0-spot-killer \$0-set-spot-killer Spot\\\ Killer
17 7 0 10 -191407 -1 -228856 0 1;
#X obj 294 16 inlet~ bright;
#X obj 294 496 outlet~ bright;
#X obj 79 405 dac~ 1 2 3;
#X obj 294 163 osci/n~;
#X obj 553 91 cnv 1 7 1 empty empty empty 20 12 0 14 -262144 -66577
0;
#X obj 511 163 cnv 1 7 1 empty empty empty 20 12 0 14 -262144 -66577
0;
#X obj 553 163 cnv 1 7 1 empty empty empty 20 12 0 14 -262144 -66577
0;
#X obj 596 163 cnv 1 7 1 empty empty empty 20 12 0 14 -262144 -66577
0;
#X obj 306 47 catch~ m-out-bright;
#X obj 614 178 s \$0-set-volume;
#X connect 1 0 15 0;
#X connect 1 0 34 0;
#X connect 2 0 16 0;
#X connect 2 0 34 1;
#X connect 3 0 12 0;
#X connect 4 0 1 0;
#X connect 5 0 2 0;
#X connect 6 0 25 0;
#X connect 9 0 23 0;
#X connect 12 0 26 0;
#X connect 13 0 4 0;
#X connect 14 0 5 0;
#X connect 17 0 18 0;
#X connect 18 0 24 0;
#X connect 19 0 41 0;
#X connect 20 0 41 0;
#X connect 21 0 22 0;
#X connect 22 0 9 0;
#X connect 23 0 11 0;
#X connect 24 0 19 0;
#X connect 24 1 20 0;
#X connect 25 0 5 1;
#X connect 25 0 4 1;
#X connect 26 0 2 1;
#X connect 26 0 1 1;
#X connect 27 0 5 0;
#X connect 28 0 4 0;
#X connect 32 0 35 0;
#X connect 35 0 33 0;
#X connect 35 0 34 2;
#X connect 40 0 35 0;
#X coords -1 -1 1 1 94 75 2 510 90;
