#N canvas 60 112 1128 538 10;
#X obj 665 90 cnv 15 135 15 empty h1 osci/out~ 3 8 0 11 -16645 -257781
0;
#X obj 13 363 *~;
#X obj 126 363 *~;
#X obj 28 258 r \$0-mute;
#X obj 13 213 *~;
#X obj 126 213 *~;
#X obj 28 130 r \$0-volume;
#X obj 665 106 cnv 15 135 97 empty body empty 20 12 0 14 -99865 -66577
0;
#X msg 590 174 \; pd dsp \$1;
#X obj 28 309 tgl 15 0 empty empty empty 17 7 0 10 -262144 -1 -1 0
1;
#X obj 13 16 inlet~ x;
#X obj 126 16 inlet~ y;
#X obj 13 496 outlet~ x;
#X obj 126 496 outlet~ y;
#X obj 874 47 r \$0-mute;
#X obj 874 95 tgl 15 0 empty empty empty 17 7 0 10 -262144 -1 -1 1
1;
#X obj 588 47 r pd;
#X obj 588 68 route dsp;
#X obj 590 153 change;
#X obj 874 116 sel 1 0;
#X obj 28 171 osci/ramp~ 30;
#X obj 28 329 osci/ramp~ 30;
#X obj 166 37 catch~ m-out-y;
#X obj 20 78 catch~ m-out-x;
#X obj 284 16 inlet~ bright;
#X obj 284 496 outlet~ bright;
#X obj 284 233 osci/n~;
#X obj 296 47 catch~ m-out-bright;
#X obj 874 238 s \$0-set-volume;
#X obj 39 284 loadbang;
#X obj 882 71 loadbang;
#X obj 670 130 nbx 3 20 0 100 0 0 \$0-volume \$0-set-volume Scope 45
11 0 11 -91412 -174938 -203556 0 256;
#X obj 670 154 nbx 3 20 0 100 0 0 \$0-speakers \$0-set-speakers Speakers
45 11 0 11 -91412 -174938 -203556 0 256;
#X obj 670 178 nbx 3 20 0 100 0 0 \$0-bright \$0-set-bright Brightness
45 11 0 11 -91412 -174938 -203556 100 256;
#X msg 874 217 label Scope;
#X obj 780 111 bng 15 250 50 0 \$0-mute \$0-set-mute Mute -30 8 0 11
-91412 -174938 -203556;
#X obj 28 151 / 100;
#X obj 299 258 r \$0-bright;
#X obj 299 279 / 100;
#X obj 299 300 osci/ramp~ 30;
#X obj 284 363 +~;
#X obj 188 442 dac~ 1 2 3 4 5;
#X obj 670 111 tgl 15 0 empty empty DSP 18 8 0 11 -91412 -174938 -203556
0 1;
#X obj 411 496 outlet~ left;
#X obj 518 496 outlet~ right;
#X obj 427 144 osci/ramp~ 30;
#X obj 427 124 / 100;
#X obj 427 103 r \$0-speakers;
#X obj 412 207 *~;
#X obj 518 210 *~;
#X obj 217 140 n~;
#X obj 186 157 n~;
#X obj 412 363 *~;
#X obj 518 363 *~;
#X obj 427 254 r \$0-mute;
#X obj 427 305 tgl 15 0 empty empty empty 17 7 0 10 -262144 -1 -1 0
1;
#X obj 427 325 osci/ramp~ 30;
#X obj 438 280 loadbang;
#X obj 975 238 s \$0-set-speakers;
#X msg 874 158 label Speakers;
#X msg 985 144 label Muted;
#X obj 665 90 cnv 1 7 1 empty empty empty 20 12 0 14 -198865 -66577
0;
#X obj 793 90 cnv 1 7 1 empty empty empty 20 12 0 14 -198865 -66577
0;
#X obj 729 90 cnv 1 7 1 empty empty empty 20 12 0 14 -198865 -66577
0;
#X obj 665 201 cnv 1 7 1 empty empty empty 20 12 0 14 -198865 -66577
0;
#X obj 793 201 cnv 1 7 1 empty empty empty 20 12 0 14 -198865 -66577
0;
#X obj 697 201 cnv 1 7 1 empty empty empty 20 12 0 14 -198865 -66577
0;
#X obj 729 201 cnv 1 7 1 empty empty empty 20 12 0 14 -198865 -66577
0;
#X obj 761 201 cnv 1 7 1 empty empty empty 20 12 0 14 -198865 -66577
0;
#X obj 717 286 else/initmess \; \$0-set-bright 100 \;;
#X connect 1 0 12 0;
#X connect 1 0 41 0;
#X connect 2 0 13 0;
#X connect 2 0 41 1;
#X connect 3 0 9 0;
#X connect 4 0 1 0;
#X connect 5 0 2 0;
#X connect 6 0 36 0;
#X connect 9 0 21 0;
#X connect 10 0 4 0;
#X connect 10 0 51 0;
#X connect 11 0 5 0;
#X connect 11 0 50 0;
#X connect 14 0 15 0;
#X connect 15 0 19 0;
#X connect 16 0 17 0;
#X connect 17 0 42 0;
#X connect 18 0 8 0;
#X connect 19 0 34 0;
#X connect 19 0 59 0;
#X connect 19 1 60 0;
#X connect 20 0 5 1;
#X connect 20 0 4 1;
#X connect 21 0 2 1;
#X connect 21 0 1 1;
#X connect 22 0 5 0;
#X connect 22 0 50 0;
#X connect 23 0 4 0;
#X connect 23 0 51 0;
#X connect 24 0 26 0;
#X connect 26 0 40 0;
#X connect 27 0 26 0;
#X connect 29 0 9 0;
#X connect 30 0 15 0;
#X connect 34 0 28 0;
#X connect 36 0 20 0;
#X connect 37 0 38 0;
#X connect 38 0 39 0;
#X connect 39 0 40 1;
#X connect 40 0 41 2;
#X connect 40 0 25 0;
#X connect 42 0 18 0;
#X connect 45 0 48 1;
#X connect 45 0 49 1;
#X connect 46 0 45 0;
#X connect 47 0 46 0;
#X connect 48 0 52 0;
#X connect 49 0 53 0;
#X connect 50 0 49 0;
#X connect 51 0 48 0;
#X connect 52 0 41 3;
#X connect 52 0 43 0;
#X connect 53 0 41 4;
#X connect 53 0 44 0;
#X connect 54 0 55 0;
#X connect 55 0 56 0;
#X connect 56 0 53 1;
#X connect 56 0 52 1;
#X connect 57 0 55 0;
#X connect 59 0 58 0;
#X connect 60 0 28 0;
#X connect 60 0 58 0;
#X coords -1 -1 1 1 135 112 2 665 90;
