#N canvas 60 112 1128 538 10;
#X obj 665 90 cnv 15 135 15 empty h1 osci/out~ 3 8 0 11 #101010 #f8ecd0
0;
#X obj 13 363 *~;
#X obj 126 363 *~;
#X obj 28 258 r \$0-mute;
#X obj 13 213 *~;
#X obj 126 213 *~;
#X obj 28 130 r \$0-volume;
#X obj 665 106 cnv 15 135 114 empty body empty 20 12 0 14 #606060 #404040
0;
#X msg 578 164 \; pd dsp \$1;
#X obj 28 309 tgl 15 0 empty empty empty 17 7 0 10 #fcfcfc #000000
#000000 0 1;
#X obj 13 16 inlet~ x;
#X obj 126 16 inlet~ y;
#X obj 13 496 outlet~ x;
#X obj 126 496 outlet~ y;
#X obj 874 47 r \$0-mute;
#X obj 874 95 tgl 15 0 empty empty empty 17 7 0 10 #fcfcfc #000000
#000000 0 1;
#X obj 578 47 r pd;
#X obj 578 68 route dsp;
#X obj 578 143 change;
#X obj 874 116 sel 1 0;
#X obj 28 171 osci/ramp~ 30;
#X obj 28 329 osci/ramp~ 30;
#X obj 166 37 catch~ m-out-y;
#X obj 20 78 catch~ m-out-x;
#X obj 284 16 inlet~ bright;
#X obj 284 496 outlet~ bright;
#X obj 284 103 osci/n~;
#X obj 296 47 catch~ m-out-bright;
#X obj 874 238 s \$0-set-volume;
#X obj 39 284 loadbang;
#X obj 882 71 loadbang;
#X obj 670 128 nbx 3 20 0 100 0 0 \$0-volume \$0-set-volume scope 45
11 0 11 #58504c #a8b464 #c4b08c 0 256;
#X obj 670 150 nbx 3 20 0 100 0 0 \$0-speakers \$0-set-speakers speakers
45 11 0 11 #58504c #a8b464 #c4b08c 0 256;
#X obj 670 195 nbx 3 20 0 100 0 0 \$0-bright \$0-set-bright brightness
45 11 0 11 #58504c #a8b464 #c4b08c 0 256;
#X obj 783 109 bng 15 250 50 0 \$0-mute \$0-set-mute mute -30 8 0 11
#58504c #a8b464 #c4b08c;
#X obj 28 151 / 100;
#X obj 299 188 r \$0-bright;
#X obj 299 209 / 100;
#X obj 299 230 osci/ramp~ 30;
#X obj 284 293 +~;
#X obj 189 466 dac~ 1 2 3 4 5;
#X obj 670 109 tgl 15 0 \$0-dsp \$0-set-dsp DSP 18 8 0 11 #58504c #a8b464
#c4b08c 0 1;
#X obj 411 496 outlet~ left;
#X obj 518 496 outlet~ right;
#X obj 427 144 osci/ramp~ 30;
#X obj 427 103 r \$0-speakers;
#X obj 412 207 *~;
#X obj 518 210 *~;
#X obj 217 100 n~;
#X obj 186 117 n~;
#X obj 412 363 *~;
#X obj 518 363 *~;
#X obj 427 254 r \$0-mute;
#X obj 427 305 tgl 15 0 empty empty empty 17 7 0 10 #fcfcfc #000000
#000000 0 1;
#X obj 427 325 osci/ramp~ 30;
#X obj 438 280 loadbang;
#X obj 975 238 s \$0-set-speakers;
#X obj 665 90 cnv 2 7 2 empty empty empty 20 12 0 14 #c08c40 #404040
0;
#X obj 793 90 cnv 2 7 2 empty empty empty 20 12 0 14 #c08c40 #404040
0;
#X obj 729 90 cnv 2 7 2 empty empty empty 20 12 0 14 #c08c40 #404040
0;
#X obj 665 218 cnv 2 7 2 empty empty empty 20 12 0 14 #c08c40 #404040
0;
#X obj 793 218 cnv 2 7 2 empty empty empty 20 12 0 14 #c08c40 #404040
0;
#X obj 697 218 cnv 2 7 2 empty empty empty 20 12 0 14 #c08c40 #404040
0;
#X obj 729 218 cnv 2 7 2 empty empty empty 20 12 0 14 #c08c40 #404040
0;
#X obj 761 218 cnv 2 7 2 empty empty empty 20 12 0 14 #c08c40 #404040
0;
#X obj 717 286 else/initmess \; \$0-set-bright 100 \;;
#X obj 427 124 dbtorms;
#X obj 578 89 s \$0-set-dsp;
#X obj 578 116 r \$0-dsp;
#X obj 670 175 tgl 18 0 \$0-invert \$0-set-invert invert 22 9 0 12
#58504c #a8b464 #c4b08c 0 1;
#X obj 203 283 r \$0-invert;
#X obj 203 304 + 1;
#X obj 285 354 else/xselect~ 2;
#X obj 306 317 expr~ 1-$v1;
#X msg 874 158 label speakers;
#X msg 874 217 label scope;
#X msg 985 144 label muted;
#X obj 160 382 osci/catcher~ test;
#X obj 711 109 tgl 15 0 \$0-test \$0-set-test Test 17 8 0 10 #574f4a
#9fab5f #c4af8c 0 1;
#X obj 726 363 phasor~ 30;
#X obj 726 386 osci/circle~;
#X obj 726 469 osci/thrower~ test;
#X obj 809 383 r \$0-test;
#X obj 809 406 osci/ramp~ 30;
#X obj 726 439 *~;
#X obj 786 439 *~;
#X obj 889 320 else/mtx~;
#X connect 1 0 12 0;
#X connect 1 0 40 0;
#X connect 2 0 13 0;
#X connect 2 0 40 1;
#X connect 3 0 9 0;
#X connect 4 0 1 0;
#X connect 5 0 2 0;
#X connect 6 0 35 0;
#X connect 9 0 21 0;
#X connect 10 0 4 0;
#X connect 10 0 49 0;
#X connect 11 0 5 0;
#X connect 11 0 48 0;
#X connect 14 0 15 0;
#X connect 15 0 19 0;
#X connect 16 0 17 0;
#X connect 17 0 67 0;
#X connect 18 0 8 0;
#X connect 19 0 75 0;
#X connect 19 0 74 0;
#X connect 19 1 76 0;
#X connect 20 0 5 1;
#X connect 20 0 4 1;
#X connect 21 0 2 1;
#X connect 21 0 1 1;
#X connect 22 0 5 0;
#X connect 22 0 48 0;
#X connect 23 0 4 0;
#X connect 23 0 49 0;
#X connect 24 0 26 0;
#X connect 26 0 39 0;
#X connect 27 0 26 0;
#X connect 29 0 9 0;
#X connect 30 0 15 0;
#X connect 35 0 20 0;
#X connect 36 0 37 0;
#X connect 37 0 38 0;
#X connect 38 0 39 1;
#X connect 39 0 73 0;
#X connect 39 0 72 0;
#X connect 44 0 46 1;
#X connect 44 0 47 1;
#X connect 45 0 66 0;
#X connect 46 0 50 0;
#X connect 47 0 51 0;
#X connect 48 0 47 0;
#X connect 49 0 46 0;
#X connect 50 0 40 3;
#X connect 50 0 42 0;
#X connect 51 0 40 4;
#X connect 51 0 43 0;
#X connect 52 0 53 0;
#X connect 53 0 54 0;
#X connect 54 0 51 1;
#X connect 54 0 50 1;
#X connect 55 0 53 0;
#X connect 66 0 44 0;
#X connect 68 0 18 0;
#X connect 70 0 71 0;
#X connect 71 0 72 0;
#X connect 72 0 40 2;
#X connect 72 0 25 0;
#X connect 73 0 72 1;
#X connect 74 0 56 0;
#X connect 75 0 28 0;
#X connect 76 0 28 0;
#X connect 76 0 56 0;
#X connect 77 0 40 0;
#X connect 77 0 40 3;
#X connect 77 1 40 1;
#X connect 77 1 40 4;
#X connect 79 0 80 0;
#X connect 80 0 84 0;
#X connect 80 1 85 0;
#X connect 82 0 83 0;
#X connect 83 0 85 1;
#X connect 83 0 84 1;
#X connect 84 0 81 0;
#X connect 85 0 81 1;
#X coords -1 -1 1 1 137 132 2 664 89;
