#N canvas 23 -662 1128 609 10;
#X obj 665 90 cnv 10 163 15 empty h1 osci/out~ 3 8 0 11 #101010 #f8ecd0
0;
#X obj 13 443 *~, f 5;
#X obj 126 443 *~, f 4;
#X obj 28 338 r \$0-mute;
#X obj 13 293 *~, f 4;
#X obj 126 293 *~, f 4;
#X obj 28 210 r \$0-volume;
#X obj 665 106 cnv 15 163 217 empty body empty 20 12 0 14 #606060 #404040
0;
#X msg 578 164 \; pd dsp \$1;
#X obj 28 389 tgl 15 0 empty empty empty 17 7 0 10 #fcfcfc #000000
#000000 0 1;
#X obj 13 16 inlet~ x;
#X obj 194 25 inlet~ y;
#X obj 874 47 r \$0-mute;
#X obj 874 95 tgl 15 0 empty empty empty 17 7 0 10 #fcfcfc #000000
#000000 0 1;
#X obj 578 47 r pd;
#X obj 578 68 route dsp;
#X obj 578 143 change;
#X obj 874 116 sel 1 0;
#X obj 28 251 osci/ramp~ 30;
#X obj 28 409 osci/ramp~ 30;
#X obj 284 16 inlet~ bright;
#X obj 284 183 osci/n~;
#X obj 874 238 s \$0-set-volume;
#X obj 39 364 loadbang;
#X obj 882 71 loadbang;
#X obj 670 128 nbx 3 20 0 100 0 0 \$0-volume \$0-set-volume scope 45
11 0 11 #58504c #a8b464 #c4b08c 0 256;
#X obj 670 150 nbx 3 20 0 100 0 0 \$0-speakers \$0-set-speakers speakers
45 11 0 11 #58504c #a8b464 #c4b08c 0 256;
#X obj 670 196 nbx 3 20 0 100 0 0 \$0-bright \$0-set-bright brightness
45 11 0 11 #58504c #a8b464 #c4b08c 0 256;
#X obj 809 109 bng 15 250 50 0 \$0-mute \$0-set-mute mute -30 8 0 11
#58504c #a8b464 #c4b08c;
#X obj 28 231 / 100;
#X obj 299 268 r \$0-bright;
#X obj 299 289 / 100;
#X obj 299 310 osci/ramp~ 30;
#X obj 284 373 +~;
#X obj 670 109 tgl 15 0 \$0-dsp \$0-set-dsp DSP 18 8 0 11 #58504c #a8b464
#c4b08c 0 1;
#X obj 427 224 osci/ramp~ 30;
#X obj 427 183 r \$0-speakers;
#X obj 412 287 *~, f 4;
#X obj 518 290 *~, f 4;
#X obj 217 180 n~;
#X obj 186 197 n~;
#X obj 412 443 *~, f 4;
#X obj 518 443 *~, f 4;
#X obj 427 334 r \$0-mute;
#X obj 427 385 tgl 15 0 empty empty empty 17 7 0 10 #fcfcfc #000000
#000000 0 1;
#X obj 427 405 osci/ramp~ 30;
#X obj 438 360 loadbang;
#X obj 975 238 s \$0-set-speakers;
#X obj 665 90 cnv 2 7 2 empty empty empty 20 12 0 14 #c08c40 #404040
0;
#X obj 821 90 cnv 2 7 2 empty empty empty 20 12 0 14 #c08c40 #404040
0;
#X obj 742 90 cnv 2 7 2 empty empty empty 20 12 0 14 #c08c40 #404040
0;
#X obj 696 25 else/initmess \; \$0-set-bright 100 \;;
#X obj 427 204 dbtorms;
#X obj 578 89 s \$0-set-dsp;
#X obj 578 116 r \$0-dsp;
#X obj 670 175 tgl 18 0 \$0-invert \$0-set-invert invert 22 9 0 12
#58504c #a8b464 #c4b08c 0 1;
#X obj 203 363 r \$0-invert;
#X obj 203 384 + 1;
#X obj 284 434 else/xselect~ 2;
#X obj 306 397 expr~ 1-$v1;
#X msg 874 158 label speakers;
#X msg 874 217 label scope;
#X msg 985 144 label muted;
#X obj 74 38 osci/catcher~ test;
#X obj 877 271 phasor~ 30;
#X obj 877 294 osci/circle~;
#X obj 877 377 osci/thrower~ test;
#X obj 960 291 r \$0-test;
#X obj 960 314 osci/ramp~ 30;
#X obj 877 347 *~;
#X obj 937 347 *~;
#N canvas 59 136 1170 547 mtx_gui 0;
#X obj 16 8 r xto1;
#X obj 16 31 sel 0 1;
#X obj 16 87 pack symbol symbol symbol;
#X msg 16 112 color \$1 \$2 \$3;
#X obj 16 137 s xto1_cnv;
#X msg 16 57 #58504c;
#X msg 73 57 #a8b464;
#X obj 186 31 sel 0 1;
#X obj 186 87 pack symbol symbol symbol;
#X msg 186 112 color \$1 \$2 \$3;
#X msg 186 57 #58504c;
#X msg 243 57 #a8b464;
#X obj 356 31 sel 0 1;
#X obj 356 87 pack symbol symbol symbol;
#X msg 356 112 color \$1 \$2 \$3;
#X msg 356 57 #58504c;
#X msg 413 57 #a8b464;
#X obj 526 31 sel 0 1;
#X obj 526 87 pack symbol symbol symbol;
#X msg 526 112 color \$1 \$2 \$3;
#X msg 526 57 #58504c;
#X msg 583 57 #a8b464;
#X obj 696 31 sel 0 1;
#X obj 696 87 pack symbol symbol symbol;
#X msg 696 112 color \$1 \$2 \$3;
#X msg 696 57 #58504c;
#X msg 753 57 #a8b464;
#X obj 866 31 sel 0 1;
#X obj 866 87 pack symbol symbol symbol;
#X msg 866 112 color \$1 \$2 \$3;
#X msg 866 57 #58504c;
#X msg 923 57 #a8b464;
#X obj 1036 31 sel 0 1;
#X obj 1036 87 pack symbol symbol symbol;
#X msg 1036 112 color \$1 \$2 \$3;
#X msg 1036 57 #58504c;
#X msg 1093 57 #a8b464;
#X obj 1206 31 sel 0 1;
#X obj 1206 87 pack symbol symbol symbol;
#X msg 1206 112 color \$1 \$2 \$3;
#X msg 1206 57 #58504c;
#X msg 1263 57 #a8b464;
#X obj 186 8 r xto2;
#X obj 356 8 r xto3;
#X obj 526 8 r xto4;
#X obj 186 137 s xto2_cnv;
#X obj 356 137 s xto3_cnv;
#X obj 526 137 s xto4_cnv;
#X obj 696 8 r xto5;
#X obj 866 8 r xto6;
#X obj 1036 8 r xto7;
#X obj 1206 8 r xto8;
#X obj 696 137 s xto5_cnv;
#X obj 866 137 s xto6_cnv;
#X obj 1036 137 s xto7_cnv;
#X obj 1206 137 s xto8_cnv;
#X obj 16 201 sel 0 1;
#X obj 16 257 pack symbol symbol symbol;
#X msg 16 282 color \$1 \$2 \$3;
#X msg 16 227 #58504c;
#X msg 73 227 #a8b464;
#X obj 186 201 sel 0 1;
#X obj 186 257 pack symbol symbol symbol;
#X msg 186 282 color \$1 \$2 \$3;
#X msg 186 227 #58504c;
#X msg 243 227 #a8b464;
#X obj 356 201 sel 0 1;
#X obj 356 257 pack symbol symbol symbol;
#X msg 356 282 color \$1 \$2 \$3;
#X msg 356 227 #58504c;
#X msg 413 227 #a8b464;
#X obj 526 201 sel 0 1;
#X obj 526 257 pack symbol symbol symbol;
#X msg 526 282 color \$1 \$2 \$3;
#X msg 526 227 #58504c;
#X msg 583 227 #a8b464;
#X obj 696 201 sel 0 1;
#X obj 696 257 pack symbol symbol symbol;
#X msg 696 282 color \$1 \$2 \$3;
#X msg 696 227 #58504c;
#X msg 753 227 #a8b464;
#X obj 866 201 sel 0 1;
#X obj 866 257 pack symbol symbol symbol;
#X msg 866 282 color \$1 \$2 \$3;
#X msg 866 227 #58504c;
#X msg 923 227 #a8b464;
#X obj 1036 201 sel 0 1;
#X obj 1036 257 pack symbol symbol symbol;
#X msg 1036 282 color \$1 \$2 \$3;
#X msg 1036 227 #58504c;
#X msg 1093 227 #a8b464;
#X obj 1206 201 sel 0 1;
#X obj 1206 257 pack symbol symbol symbol;
#X msg 1206 282 color \$1 \$2 \$3;
#X msg 1206 227 #58504c;
#X msg 1263 227 #a8b464;
#X obj 16 371 sel 0 1;
#X obj 16 427 pack symbol symbol symbol;
#X msg 16 452 color \$1 \$2 \$3;
#X msg 16 397 #58504c;
#X msg 73 397 #a8b464;
#X obj 186 371 sel 0 1;
#X obj 186 427 pack symbol symbol symbol;
#X msg 186 452 color \$1 \$2 \$3;
#X msg 186 397 #58504c;
#X msg 243 397 #a8b464;
#X obj 356 371 sel 0 1;
#X obj 356 427 pack symbol symbol symbol;
#X msg 356 452 color \$1 \$2 \$3;
#X msg 356 397 #58504c;
#X msg 413 397 #a8b464;
#X obj 526 371 sel 0 1;
#X obj 526 427 pack symbol symbol symbol;
#X msg 526 452 color \$1 \$2 \$3;
#X msg 526 397 #58504c;
#X msg 583 397 #a8b464;
#X obj 696 371 sel 0 1;
#X obj 696 427 pack symbol symbol symbol;
#X msg 696 452 color \$1 \$2 \$3;
#X msg 696 397 #58504c;
#X msg 753 397 #a8b464;
#X obj 866 371 sel 0 1;
#X obj 866 427 pack symbol symbol symbol;
#X msg 866 452 color \$1 \$2 \$3;
#X msg 866 397 #58504c;
#X msg 923 397 #a8b464;
#X obj 1036 371 sel 0 1;
#X obj 1036 427 pack symbol symbol symbol;
#X msg 1036 452 color \$1 \$2 \$3;
#X msg 1036 397 #58504c;
#X msg 1093 397 #a8b464;
#X obj 1206 371 sel 0 1;
#X obj 1206 427 pack symbol symbol symbol;
#X msg 1206 452 color \$1 \$2 \$3;
#X msg 1206 397 #58504c;
#X msg 1263 397 #a8b464;
#X obj 16 178 r yto1;
#X obj 186 178 r yto2;
#X obj 356 178 r yto3;
#X obj 526 178 r yto4;
#X obj 696 178 r yto5;
#X obj 866 178 r yto6;
#X obj 1036 178 r yto7;
#X obj 1206 178 r yto8;
#X obj 1206 307 s yto8_cnv;
#X obj 1036 307 s yto7_cnv;
#X obj 866 307 s yto6_cnv;
#X obj 696 307 s yto5_cnv;
#X obj 526 307 s yto4_cnv;
#X obj 356 307 s yto3_cnv;
#X obj 186 307 s yto2_cnv;
#X obj 16 307 s yto1_cnv;
#X obj 16 348 r bto1;
#X obj 186 348 r bto2;
#X obj 356 348 r bto3;
#X obj 526 348 r bto4;
#X obj 696 348 r bto5;
#X obj 866 348 r bto6;
#X obj 1036 348 r bto7;
#X obj 1206 348 r bto8;
#X obj 16 477 s bto1_cnv;
#X obj 186 477 s bto2_cnv;
#X obj 356 477 s bto3_cnv;
#X obj 526 477 s bto4_cnv;
#X obj 696 477 s bto5_cnv;
#X obj 866 477 s bto6_cnv;
#X obj 1036 477 s bto7_cnv;
#X obj 1206 476 s bto8_cnv;
#X obj 16 541 sel 0 1;
#X obj 16 597 pack symbol symbol symbol;
#X msg 16 622 color \$1 \$2 \$3;
#X msg 16 567 #58504c;
#X msg 73 567 #a8b464;
#X obj 186 541 sel 0 1;
#X obj 186 597 pack symbol symbol symbol;
#X msg 186 622 color \$1 \$2 \$3;
#X msg 186 567 #58504c;
#X msg 243 567 #a8b464;
#X obj 356 541 sel 0 1;
#X obj 356 597 pack symbol symbol symbol;
#X msg 356 622 color \$1 \$2 \$3;
#X msg 356 567 #58504c;
#X msg 413 567 #a8b464;
#X obj 526 541 sel 0 1;
#X obj 526 597 pack symbol symbol symbol;
#X msg 526 622 color \$1 \$2 \$3;
#X msg 526 567 #58504c;
#X msg 583 567 #a8b464;
#X obj 696 541 sel 0 1;
#X obj 696 597 pack symbol symbol symbol;
#X msg 696 622 color \$1 \$2 \$3;
#X msg 696 567 #58504c;
#X msg 753 567 #a8b464;
#X obj 866 541 sel 0 1;
#X obj 866 597 pack symbol symbol symbol;
#X msg 866 622 color \$1 \$2 \$3;
#X msg 866 567 #58504c;
#X msg 923 567 #a8b464;
#X obj 1036 541 sel 0 1;
#X obj 1036 597 pack symbol symbol symbol;
#X msg 1036 622 color \$1 \$2 \$3;
#X msg 1036 567 #58504c;
#X msg 1093 567 #a8b464;
#X obj 1206 541 sel 0 1;
#X obj 1206 597 pack symbol symbol symbol;
#X msg 1206 622 color \$1 \$2 \$3;
#X msg 1206 567 #58504c;
#X msg 1263 567 #a8b464;
#X obj 16 701 sel 0 1;
#X obj 16 757 pack symbol symbol symbol;
#X msg 16 782 color \$1 \$2 \$3;
#X msg 16 727 #58504c;
#X msg 73 727 #a8b464;
#X obj 186 701 sel 0 1;
#X obj 186 757 pack symbol symbol symbol;
#X msg 186 782 color \$1 \$2 \$3;
#X msg 186 727 #58504c;
#X msg 243 727 #a8b464;
#X obj 356 701 sel 0 1;
#X obj 356 757 pack symbol symbol symbol;
#X msg 356 782 color \$1 \$2 \$3;
#X msg 356 727 #58504c;
#X msg 413 727 #a8b464;
#X obj 526 701 sel 0 1;
#X obj 526 757 pack symbol symbol symbol;
#X msg 526 782 color \$1 \$2 \$3;
#X msg 526 727 #58504c;
#X msg 583 727 #a8b464;
#X obj 696 701 sel 0 1;
#X obj 696 757 pack symbol symbol symbol;
#X msg 696 782 color \$1 \$2 \$3;
#X msg 696 727 #58504c;
#X msg 753 727 #a8b464;
#X obj 866 701 sel 0 1;
#X obj 866 757 pack symbol symbol symbol;
#X msg 866 782 color \$1 \$2 \$3;
#X msg 866 727 #58504c;
#X msg 923 727 #a8b464;
#X obj 1036 701 sel 0 1;
#X obj 1036 757 pack symbol symbol symbol;
#X msg 1036 782 color \$1 \$2 \$3;
#X msg 1036 727 #58504c;
#X msg 1093 727 #a8b464;
#X obj 1206 701 sel 0 1;
#X obj 1206 757 pack symbol symbol symbol;
#X msg 1206 782 color \$1 \$2 \$3;
#X msg 1206 727 #58504c;
#X msg 1263 727 #a8b464;
#X obj 16 518 r spkRto1;
#X obj 186 518 r spkRto2;
#X obj 356 518 r spkRto3;
#X obj 526 518 r spkRto4;
#X obj 696 518 r spkRto5;
#X obj 866 518 r spkRto6;
#X obj 1036 518 r spkRto7;
#X obj 1206 517 r spkRto8;
#X obj 16 647 s spkRto1_cnv;
#X obj 186 647 s spkRto2_cnv;
#X obj 356 647 s spkRto3_cnv;
#X obj 526 647 s spkRto4_cnv;
#X obj 696 647 s spkRto5_cnv;
#X obj 866 647 s spkRto6_cnv;
#X obj 1036 647 s spkRto7_cnv;
#X obj 1206 645 s spkRto8_cnv;
#X obj 16 678 r spkLto1;
#X obj 186 678 r spkLto2;
#X obj 356 678 r spkLto3;
#X obj 526 678 r spkLto4;
#X obj 696 678 r spkLto5;
#X obj 866 678 r spkLto6;
#X obj 1036 678 r spkLto7;
#X obj 1206 678 r spkLto8;
#X obj 1206 806 s spkLto8_cnv;
#X obj 1036 807 s spkLto7_cnv;
#X obj 866 807 s spkLto6_cnv;
#X obj 696 807 s spkLto5_cnv;
#X obj 526 807 s spkLto4_cnv;
#X obj 357 807 s spkLto3_cnv;
#X obj 186 807 s spkLto2_cnv;
#X obj 16 807 s spkLto1_cnv;
#X connect 0 0 1 0;
#X connect 1 0 5 0;
#X connect 1 1 6 0;
#X connect 2 0 3 0;
#X connect 3 0 4 0;
#X connect 5 0 2 0;
#X connect 6 0 2 0;
#X connect 7 0 10 0;
#X connect 7 1 11 0;
#X connect 8 0 9 0;
#X connect 9 0 45 0;
#X connect 10 0 8 0;
#X connect 11 0 8 0;
#X connect 12 0 15 0;
#X connect 12 1 16 0;
#X connect 13 0 14 0;
#X connect 14 0 46 0;
#X connect 15 0 13 0;
#X connect 16 0 13 0;
#X connect 17 0 20 0;
#X connect 17 1 21 0;
#X connect 18 0 19 0;
#X connect 19 0 47 0;
#X connect 20 0 18 0;
#X connect 21 0 18 0;
#X connect 22 0 25 0;
#X connect 22 1 26 0;
#X connect 23 0 24 0;
#X connect 24 0 52 0;
#X connect 25 0 23 0;
#X connect 26 0 23 0;
#X connect 27 0 30 0;
#X connect 27 1 31 0;
#X connect 28 0 29 0;
#X connect 29 0 53 0;
#X connect 30 0 28 0;
#X connect 31 0 28 0;
#X connect 32 0 35 0;
#X connect 32 1 36 0;
#X connect 33 0 34 0;
#X connect 34 0 54 0;
#X connect 35 0 33 0;
#X connect 36 0 33 0;
#X connect 37 0 40 0;
#X connect 37 1 41 0;
#X connect 38 0 39 0;
#X connect 39 0 55 0;
#X connect 40 0 38 0;
#X connect 41 0 38 0;
#X connect 42 0 7 0;
#X connect 43 0 12 0;
#X connect 44 0 17 0;
#X connect 48 0 22 0;
#X connect 49 0 27 0;
#X connect 50 0 32 0;
#X connect 51 0 37 0;
#X connect 56 0 59 0;
#X connect 56 1 60 0;
#X connect 57 0 58 0;
#X connect 58 0 151 0;
#X connect 59 0 57 0;
#X connect 60 0 57 0;
#X connect 61 0 64 0;
#X connect 61 1 65 0;
#X connect 62 0 63 0;
#X connect 63 0 150 0;
#X connect 64 0 62 0;
#X connect 65 0 62 0;
#X connect 66 0 69 0;
#X connect 66 1 70 0;
#X connect 67 0 68 0;
#X connect 68 0 149 0;
#X connect 69 0 67 0;
#X connect 70 0 67 0;
#X connect 71 0 74 0;
#X connect 71 1 75 0;
#X connect 72 0 73 0;
#X connect 73 0 148 0;
#X connect 74 0 72 0;
#X connect 75 0 72 0;
#X connect 76 0 79 0;
#X connect 76 1 80 0;
#X connect 77 0 78 0;
#X connect 78 0 147 0;
#X connect 79 0 77 0;
#X connect 80 0 77 0;
#X connect 81 0 84 0;
#X connect 81 1 85 0;
#X connect 82 0 83 0;
#X connect 83 0 146 0;
#X connect 84 0 82 0;
#X connect 85 0 82 0;
#X connect 86 0 89 0;
#X connect 86 1 90 0;
#X connect 87 0 88 0;
#X connect 88 0 145 0;
#X connect 89 0 87 0;
#X connect 90 0 87 0;
#X connect 91 0 94 0;
#X connect 91 1 95 0;
#X connect 92 0 93 0;
#X connect 93 0 144 0;
#X connect 94 0 92 0;
#X connect 95 0 92 0;
#X connect 96 0 99 0;
#X connect 96 1 100 0;
#X connect 97 0 98 0;
#X connect 98 0 160 0;
#X connect 99 0 97 0;
#X connect 100 0 97 0;
#X connect 101 0 104 0;
#X connect 101 1 105 0;
#X connect 102 0 103 0;
#X connect 103 0 161 0;
#X connect 104 0 102 0;
#X connect 105 0 102 0;
#X connect 106 0 109 0;
#X connect 106 1 110 0;
#X connect 107 0 108 0;
#X connect 108 0 162 0;
#X connect 109 0 107 0;
#X connect 110 0 107 0;
#X connect 111 0 114 0;
#X connect 111 1 115 0;
#X connect 112 0 113 0;
#X connect 113 0 163 0;
#X connect 114 0 112 0;
#X connect 115 0 112 0;
#X connect 116 0 119 0;
#X connect 116 1 120 0;
#X connect 117 0 118 0;
#X connect 118 0 164 0;
#X connect 119 0 117 0;
#X connect 120 0 117 0;
#X connect 121 0 124 0;
#X connect 121 1 125 0;
#X connect 122 0 123 0;
#X connect 123 0 165 0;
#X connect 124 0 122 0;
#X connect 125 0 122 0;
#X connect 126 0 129 0;
#X connect 126 1 130 0;
#X connect 127 0 128 0;
#X connect 128 0 166 0;
#X connect 129 0 127 0;
#X connect 130 0 127 0;
#X connect 131 0 134 0;
#X connect 131 1 135 0;
#X connect 132 0 133 0;
#X connect 133 0 167 0;
#X connect 134 0 132 0;
#X connect 135 0 132 0;
#X connect 136 0 56 0;
#X connect 137 0 61 0;
#X connect 138 0 66 0;
#X connect 139 0 71 0;
#X connect 140 0 76 0;
#X connect 141 0 81 0;
#X connect 142 0 86 0;
#X connect 143 0 91 0;
#X connect 152 0 96 0;
#X connect 153 0 101 0;
#X connect 154 0 106 0;
#X connect 155 0 111 0;
#X connect 156 0 116 0;
#X connect 157 0 121 0;
#X connect 158 0 126 0;
#X connect 159 0 131 0;
#X connect 168 0 171 0;
#X connect 168 1 172 0;
#X connect 169 0 170 0;
#X connect 170 0 256 0;
#X connect 171 0 169 0;
#X connect 172 0 169 0;
#X connect 173 0 176 0;
#X connect 173 1 177 0;
#X connect 174 0 175 0;
#X connect 175 0 257 0;
#X connect 176 0 174 0;
#X connect 177 0 174 0;
#X connect 178 0 181 0;
#X connect 178 1 182 0;
#X connect 179 0 180 0;
#X connect 180 0 258 0;
#X connect 181 0 179 0;
#X connect 182 0 179 0;
#X connect 183 0 186 0;
#X connect 183 1 187 0;
#X connect 184 0 185 0;
#X connect 185 0 259 0;
#X connect 186 0 184 0;
#X connect 187 0 184 0;
#X connect 188 0 191 0;
#X connect 188 1 192 0;
#X connect 189 0 190 0;
#X connect 190 0 260 0;
#X connect 191 0 189 0;
#X connect 192 0 189 0;
#X connect 193 0 196 0;
#X connect 193 1 197 0;
#X connect 194 0 195 0;
#X connect 195 0 261 0;
#X connect 196 0 194 0;
#X connect 197 0 194 0;
#X connect 198 0 201 0;
#X connect 198 1 202 0;
#X connect 199 0 200 0;
#X connect 200 0 262 0;
#X connect 201 0 199 0;
#X connect 202 0 199 0;
#X connect 203 0 206 0;
#X connect 203 1 207 0;
#X connect 204 0 205 0;
#X connect 205 0 263 0;
#X connect 206 0 204 0;
#X connect 207 0 204 0;
#X connect 208 0 211 0;
#X connect 208 1 212 0;
#X connect 209 0 210 0;
#X connect 210 0 279 0;
#X connect 211 0 209 0;
#X connect 212 0 209 0;
#X connect 213 0 216 0;
#X connect 213 1 217 0;
#X connect 214 0 215 0;
#X connect 215 0 278 0;
#X connect 216 0 214 0;
#X connect 217 0 214 0;
#X connect 218 0 221 0;
#X connect 218 1 222 0;
#X connect 219 0 220 0;
#X connect 220 0 277 0;
#X connect 221 0 219 0;
#X connect 222 0 219 0;
#X connect 223 0 226 0;
#X connect 223 1 227 0;
#X connect 224 0 225 0;
#X connect 225 0 276 0;
#X connect 226 0 224 0;
#X connect 227 0 224 0;
#X connect 228 0 231 0;
#X connect 228 1 232 0;
#X connect 229 0 230 0;
#X connect 230 0 275 0;
#X connect 231 0 229 0;
#X connect 232 0 229 0;
#X connect 233 0 236 0;
#X connect 233 1 237 0;
#X connect 234 0 235 0;
#X connect 235 0 274 0;
#X connect 236 0 234 0;
#X connect 237 0 234 0;
#X connect 238 0 241 0;
#X connect 238 1 242 0;
#X connect 239 0 240 0;
#X connect 240 0 273 0;
#X connect 241 0 239 0;
#X connect 242 0 239 0;
#X connect 243 0 246 0;
#X connect 243 1 247 0;
#X connect 244 0 245 0;
#X connect 245 0 272 0;
#X connect 246 0 244 0;
#X connect 247 0 244 0;
#X connect 248 0 168 0;
#X connect 249 0 173 0;
#X connect 250 0 178 0;
#X connect 251 0 183 0;
#X connect 252 0 188 0;
#X connect 253 0 193 0;
#X connect 254 0 198 0;
#X connect 255 0 203 0;
#X connect 264 0 208 0;
#X connect 265 0 213 0;
#X connect 266 0 218 0;
#X connect 267 0 223 0;
#X connect 268 0 228 0;
#X connect 269 0 233 0;
#X connect 270 0 238 0;
#X connect 271 0 243 0;
#X restore 968 49 pd mtx_gui;
#X obj 156 550 dac~ 1 2 3 4 5 6 7 8, f 24;
#N canvas 176 105 928 623 mtx~ 0;
#X obj 15 6 inlet~ x;
#X obj 83 6 inlet~ y;
#X obj 143 6 inlet~ b;
#X obj 26 131 r xto1;
#X obj 15 182 *~, f 4;
#X obj 15 585 outlet~ chan1;
#X obj 26 154 osci/ramp~ 15;
#X obj 105 182 *~, f 4;
#X obj 116 154 osci/ramp~ 15;
#X obj 195 182 *~, f 4;
#X obj 206 154 osci/ramp~ 15;
#X obj 285 182 *~, f 4;
#X obj 296 154 osci/ramp~ 15;
#X obj 375 182 *~, f 4;
#X obj 386 154 osci/ramp~ 15;
#X obj 465 182 *~, f 4;
#X obj 476 154 osci/ramp~ 15;
#X obj 555 182 *~, f 4;
#X obj 566 154 osci/ramp~ 15;
#X obj 645 182 *~, f 4;
#X obj 656 154 osci/ramp~ 15;
#X obj 116 131 r xto2;
#X obj 206 131 r xto3;
#X obj 296 131 r xto4;
#X obj 386 131 r xto5;
#X obj 476 130 r xto6;
#X obj 566 131 r xto7;
#X obj 656 131 r xto8;
#X obj 105 585 outlet~ chan2;
#X obj 195 585 outlet~ chan3;
#X obj 285 585 outlet~ chan4;
#X obj 375 585 outlet~ chan5;
#X obj 465 585 outlet~ chan6;
#X obj 555 585 outlet~ chan7;
#X obj 645 585 outlet~ chan8;
#X obj 45 262 *~, f 4;
#X obj 56 234 osci/ramp~ 15;
#X obj 135 262 *~, f 4;
#X obj 146 234 osci/ramp~ 15;
#X obj 225 262 *~, f 4;
#X obj 236 234 osci/ramp~ 15;
#X obj 315 262 *~, f 4;
#X obj 326 234 osci/ramp~ 15;
#X obj 405 262 *~, f 4;
#X obj 416 234 osci/ramp~ 15;
#X obj 495 262 *~, f 4;
#X obj 506 234 osci/ramp~ 15;
#X obj 585 262 *~, f 4;
#X obj 596 234 osci/ramp~ 15;
#X obj 675 262 *~, f 4;
#X obj 686 234 osci/ramp~ 15;
#X obj 56 211 r yto1;
#X obj 146 211 r yto2;
#X obj 236 211 r yto3;
#X obj 326 211 r yto4;
#X obj 416 211 r yto5;
#X obj 506 210 r yto6;
#X obj 596 211 r yto7;
#X obj 686 211 r yto8;
#X obj 55 342 *~, f 4;
#X obj 66 314 osci/ramp~ 15;
#X obj 145 342 *~, f 4;
#X obj 156 314 osci/ramp~ 15;
#X obj 235 342 *~, f 4;
#X obj 246 314 osci/ramp~ 15;
#X obj 325 342 *~, f 4;
#X obj 336 314 osci/ramp~ 15;
#X obj 415 342 *~, f 4;
#X obj 426 314 osci/ramp~ 15;
#X obj 505 342 *~, f 4;
#X obj 516 314 osci/ramp~ 15;
#X obj 595 342 *~, f 4;
#X obj 606 314 osci/ramp~ 15;
#X obj 685 342 *~, f 4;
#X obj 696 314 osci/ramp~ 15;
#X obj 66 291 r bto1;
#X obj 156 291 r bto2;
#X obj 246 292 r bto3;
#X obj 336 291 r bto4;
#X obj 426 291 r bto5;
#X obj 516 290 r bto6;
#X obj 606 291 r bto7;
#X obj 696 291 r bto8;
#X obj 75 412 *~, f 4;
#X obj 86 384 osci/ramp~ 15;
#X obj 165 412 *~, f 4;
#X obj 176 384 osci/ramp~ 15;
#X obj 255 412 *~, f 4;
#X obj 266 384 osci/ramp~ 15;
#X obj 345 412 *~, f 4;
#X obj 356 384 osci/ramp~ 15;
#X obj 435 412 *~, f 4;
#X obj 446 384 osci/ramp~ 15;
#X obj 525 412 *~, f 4;
#X obj 536 384 osci/ramp~ 15;
#X obj 615 412 *~, f 4;
#X obj 626 384 osci/ramp~ 15;
#X obj 705 412 *~, f 4;
#X obj 716 384 osci/ramp~ 15;
#X obj 105 482 *~, f 4;
#X obj 116 454 osci/ramp~ 15;
#X obj 195 482 *~, f 4;
#X obj 206 454 osci/ramp~ 15;
#X obj 285 482 *~, f 4;
#X obj 296 454 osci/ramp~ 15;
#X obj 375 482 *~, f 4;
#X obj 386 454 osci/ramp~ 15;
#X obj 466 482 *~, f 4;
#X obj 476 454 osci/ramp~ 15;
#X obj 555 482 *~, f 4;
#X obj 566 454 osci/ramp~ 15;
#X obj 645 482 *~, f 4;
#X obj 656 454 osci/ramp~ 15;
#X obj 735 482 *~, f 4;
#X obj 746 454 osci/ramp~ 15;
#X obj 202 7 inlet~ speaker_left;
#X obj 324 7 inlet~ speaker_right;
#X obj 86 361 r spkLto1;
#X obj 176 361 r spkLto2;
#X obj 266 362 r spkLto3;
#X obj 356 361 r spkLto4;
#X obj 445 361 r spkLto5;
#X obj 536 360 r spkLto6;
#X obj 626 361 r spkLto7;
#X obj 716 361 r spkLto8;
#X obj 116 431 r spkRto1;
#X obj 206 431 r spkRto2;
#X obj 296 432 r spkRto3;
#X obj 386 431 r spkRto4;
#X obj 476 431 r spkRto5;
#X obj 566 430 r spkRto6;
#X obj 656 431 r spkRto7;
#X obj 746 431 r spkRto8;
#X connect 0 0 4 0;
#X connect 0 0 7 0;
#X connect 0 0 9 0;
#X connect 0 0 11 0;
#X connect 0 0 13 0;
#X connect 0 0 15 0;
#X connect 0 0 17 0;
#X connect 0 0 19 0;
#X connect 1 0 35 0;
#X connect 1 0 37 0;
#X connect 1 0 39 0;
#X connect 1 0 41 0;
#X connect 1 0 43 0;
#X connect 1 0 45 0;
#X connect 1 0 47 0;
#X connect 1 0 49 0;
#X connect 2 0 59 0;
#X connect 2 0 61 0;
#X connect 2 0 63 0;
#X connect 2 0 65 0;
#X connect 2 0 67 0;
#X connect 2 0 69 0;
#X connect 2 0 71 0;
#X connect 2 0 73 0;
#X connect 3 0 6 0;
#X connect 4 0 5 0;
#X connect 6 0 4 1;
#X connect 7 0 28 0;
#X connect 8 0 7 1;
#X connect 9 0 29 0;
#X connect 10 0 9 1;
#X connect 11 0 30 0;
#X connect 12 0 11 1;
#X connect 13 0 31 0;
#X connect 14 0 13 1;
#X connect 15 0 32 0;
#X connect 16 0 15 1;
#X connect 17 0 33 0;
#X connect 18 0 17 1;
#X connect 19 0 34 0;
#X connect 20 0 19 1;
#X connect 21 0 8 0;
#X connect 22 0 10 0;
#X connect 23 0 12 0;
#X connect 24 0 14 0;
#X connect 25 0 16 0;
#X connect 26 0 18 0;
#X connect 27 0 20 0;
#X connect 35 0 5 0;
#X connect 36 0 35 1;
#X connect 37 0 28 0;
#X connect 38 0 37 1;
#X connect 39 0 29 0;
#X connect 40 0 39 1;
#X connect 41 0 30 0;
#X connect 42 0 41 1;
#X connect 43 0 31 0;
#X connect 44 0 43 1;
#X connect 45 0 32 0;
#X connect 46 0 45 1;
#X connect 47 0 33 0;
#X connect 48 0 47 1;
#X connect 49 0 34 0;
#X connect 50 0 49 1;
#X connect 51 0 36 0;
#X connect 52 0 38 0;
#X connect 53 0 40 0;
#X connect 54 0 42 0;
#X connect 55 0 44 0;
#X connect 56 0 46 0;
#X connect 57 0 48 0;
#X connect 58 0 50 0;
#X connect 59 0 5 0;
#X connect 60 0 59 1;
#X connect 61 0 28 0;
#X connect 62 0 61 1;
#X connect 63 0 29 0;
#X connect 64 0 63 1;
#X connect 65 0 30 0;
#X connect 66 0 65 1;
#X connect 67 0 31 0;
#X connect 68 0 67 1;
#X connect 69 0 32 0;
#X connect 70 0 69 1;
#X connect 71 0 33 0;
#X connect 72 0 71 1;
#X connect 73 0 34 0;
#X connect 74 0 73 1;
#X connect 75 0 60 0;
#X connect 76 0 62 0;
#X connect 77 0 64 0;
#X connect 78 0 66 0;
#X connect 79 0 68 0;
#X connect 80 0 70 0;
#X connect 81 0 72 0;
#X connect 82 0 74 0;
#X connect 83 0 5 0;
#X connect 84 0 83 1;
#X connect 85 0 28 0;
#X connect 86 0 85 1;
#X connect 87 0 29 0;
#X connect 88 0 87 1;
#X connect 89 0 30 0;
#X connect 90 0 89 1;
#X connect 91 0 31 0;
#X connect 92 0 91 1;
#X connect 93 0 32 0;
#X connect 94 0 93 1;
#X connect 95 0 33 0;
#X connect 96 0 95 1;
#X connect 97 0 34 0;
#X connect 98 0 97 1;
#X connect 99 0 5 0;
#X connect 100 0 99 1;
#X connect 101 0 28 0;
#X connect 102 0 101 1;
#X connect 103 0 29 0;
#X connect 104 0 103 1;
#X connect 105 0 30 0;
#X connect 106 0 105 1;
#X connect 107 0 31 0;
#X connect 108 0 107 1;
#X connect 109 0 32 0;
#X connect 110 0 109 1;
#X connect 111 0 33 0;
#X connect 112 0 111 1;
#X connect 113 0 34 0;
#X connect 114 0 113 1;
#X connect 115 0 83 0;
#X connect 115 0 85 0;
#X connect 115 0 87 0;
#X connect 115 0 89 0;
#X connect 115 0 91 0;
#X connect 115 0 93 0;
#X connect 115 0 95 0;
#X connect 115 0 97 0;
#X connect 116 0 99 0;
#X connect 116 0 101 0;
#X connect 116 0 103 0;
#X connect 116 0 105 0;
#X connect 116 0 107 0;
#X connect 116 0 109 0;
#X connect 116 0 111 0;
#X connect 116 0 113 0;
#X connect 117 0 84 0;
#X connect 118 0 86 0;
#X connect 119 0 88 0;
#X connect 120 0 90 0;
#X connect 121 0 92 0;
#X connect 122 0 94 0;
#X connect 123 0 96 0;
#X connect 124 0 98 0;
#X connect 125 0 100 0;
#X connect 126 0 102 0;
#X connect 127 0 104 0;
#X connect 128 0 106 0;
#X connect 129 0 108 0;
#X connect 130 0 110 0;
#X connect 131 0 112 0;
#X connect 132 0 114 0;
#X restore 156 522 pd mtx~;
#X f 24;
#X obj 702 235 cnv 7 14 14 empty empty 2 3 -10 0 12 #000000 #c5b18d
0;
#X obj 719 235 cnv 7 14 14 empty empty 3 3 -10 0 12 #000000 #c5b18d
0;
#X obj 736 235 cnv 7 14 14 empty empty 4 3 -10 0 12 #000000 #c5b18d
0;
#X obj 753 235 cnv 7 14 14 empty empty 5 3 -10 0 12 #000000 #c5b18d
0;
#X obj 770 235 cnv 7 14 14 empty empty 6 3 -10 0 12 #000000 #c5b18d
0;
#X obj 788 235 cnv 7 14 14 empty empty 7 3 -10 0 12 #000000 #c5b18d
0;
#X obj 804 235 cnv 7 14 14 empty empty 8 3 -10 0 12 #000000 #c5b18d
0;
#X obj 685 235 cnv 7 14 14 empty empty 1 3 -10 0 12 #000000 #c5b18d
0;
#X obj 682 232 cnv 24 138 87 empty empty empty 20 12 0 14 #000000 #c5b18d
0;
#X obj 684 234 tgl 15 0 xto1 none x -15 8 0 12 #5a524c #a9b665 #c5b18d
0 1;
#X obj 701 234 tgl 15 0 xto2 none empty 30 11 0 12 #5a524c #a9b665
#c5b18d 0 1;
#X obj 718 234 tgl 15 0 xto3 none empty 30 11 0 12 #5a524c #a9b665
#c5b18d 0 1;
#X obj 735 234 tgl 15 0 xto4 none empty 30 11 0 12 #5a524c #a9b665
#c5b18d 0 1;
#X obj 752 234 tgl 15 0 xto5 none empty 30 11 0 12 #5a524c #a9b665
#c5b18d 0 1;
#X obj 769 234 tgl 15 0 xto6 none empty 30 11 0 12 #5a524c #a9b665
#c5b18d 0 1;
#X obj 786 234 tgl 15 0 xto7 none empty 30 11 0 12 #5a524c #a9b665
#c5b18d 0 1;
#X obj 803 234 tgl 15 0 xto8 none empty 30 11 0 12 #5a524c #a9b665
#c5b18d 0 1;
#X obj 684 251 tgl 15 0 yto1 none y -15 7 0 12 #5a524c #a9b665 #c5b18d
0 1;
#X obj 701 251 tgl 15 0 yto2 none empty 30 11 0 12 #5a524c #a9b665
#c5b18d 0 1;
#X obj 718 251 tgl 15 0 yto3 none empty 30 11 0 12 #5a524c #a9b665
#c5b18d 0 1;
#X obj 735 251 tgl 15 0 yto4 none empty 30 11 0 12 #5a524c #a9b665
#c5b18d 0 1;
#X obj 752 251 tgl 15 0 yto5 none empty 30 11 0 12 #5a524c #a9b665
#c5b18d 0 1;
#X obj 769 251 tgl 15 0 yto6 none empty 30 11 0 12 #5a524c #a9b665
#c5b18d 0 1;
#X obj 786 251 tgl 15 0 yto7 none empty 30 11 0 12 #5a524c #a9b665
#c5b18d 0 1;
#X obj 803 251 tgl 15 0 yto8 none empty 30 11 0 12 #5a524c #a9b665
#c5b18d 0 1;
#X obj 684 251 cnv 15 15 15 empty yto1_cnv empty 20 12 0 14 #58504c
#000000 0;
#X obj 701 251 cnv 15 15 15 empty yto2_cnv empty 20 12 0 14 #a8b464
#000000 0;
#X obj 718 251 cnv 15 15 15 empty yto3_cnv empty 20 12 0 14 #58504c
#000000 0;
#X obj 735 251 cnv 15 15 15 empty yto4_cnv empty 20 12 0 14 #58504c
#000000 0;
#X obj 752 251 cnv 15 15 15 empty yto5_cnv empty 20 12 0 14 #58504c
#000000 0;
#X obj 769 251 cnv 15 15 15 empty yto6_cnv empty 20 12 0 14 #58504c
#000000 0;
#X obj 786 251 cnv 15 15 15 empty yto7_cnv empty 20 12 0 14 #58504c
#000000 0;
#X obj 803 251 cnv 15 15 15 empty yto8_cnv empty 20 12 0 14 #58504c
#000000 0;
#X obj 684 268 tgl 15 0 bto1 none b -15 8 0 12 #5a524c #a9b665 #c5b18d
0 1;
#X obj 701 268 tgl 15 0 bto2 none empty 30 11 0 12 #5a524c #a9b665
#c5b18d 0 1;
#X obj 718 268 tgl 15 0 bto3 none empty 30 11 0 12 #5a524c #a9b665
#c5b18d 0 1;
#X obj 735 268 tgl 15 0 bto4 none empty 30 11 0 12 #5a524c #a9b665
#c5b18d 0 1;
#X obj 752 268 tgl 15 0 bto5 none empty 30 11 0 12 #5a524c #a9b665
#c5b18d 0 1;
#X obj 769 268 tgl 15 0 bto6 none empty 30 11 0 12 #5a524c #a9b665
#c5b18d 0 1;
#X obj 786 268 tgl 15 0 bto7 none empty 30 11 0 12 #5a524c #a9b665
#c5b18d 0 1;
#X obj 803 268 tgl 15 0 bto8 none empty 30 11 0 12 #5a524c #a9b665
#c5b18d 0 1;
#X obj 684 268 cnv 15 15 15 empty bto1_cnv empty 20 12 0 14 #58504c
#000000 0;
#X obj 701 268 cnv 15 15 15 empty bto2_cnv empty 20 12 0 14 #58504c
#000000 0;
#X obj 718 268 cnv 15 15 15 empty bto3_cnv empty 20 12 0 14 #58504c
#000000 0;
#X obj 735 268 cnv 15 15 15 empty bto4_cnv empty 20 12 0 14 #58504c
#000000 0;
#X obj 752 268 cnv 15 15 15 empty bto5_cnv empty 20 12 0 14 #58504c
#000000 0;
#X obj 769 268 cnv 15 15 15 empty bto6_cnv empty 20 12 0 14 #58504c
#000000 0;
#X obj 786 268 cnv 15 15 15 empty bto7_cnv empty 20 12 0 14 #58504c
#000000 0;
#X obj 803 268 cnv 15 15 15 empty bto8_cnv empty 20 12 0 14 #58504c
#000000 0;
#X obj 684 234 cnv 15 15 15 empty xto1_cnv empty 20 12 0 14 #a8b464
#000000 0;
#X obj 701 234 cnv 15 15 15 empty xto2_cnv empty 20 12 0 14 #58504c
#000000 0;
#X obj 718 234 cnv 15 15 15 empty xto3_cnv empty 20 12 0 14 #58504c
#000000 0;
#X obj 735 234 cnv 15 15 15 empty xto4_cnv empty 20 12 0 14 #58504c
#000000 0;
#X obj 752 234 cnv 15 15 15 empty xto5_cnv empty 20 12 0 14 #58504c
#000000 0;
#X obj 769 234 cnv 15 15 15 empty xto6_cnv empty 20 12 0 14 #58504c
#000000 0;
#X obj 786 234 cnv 15 15 15 empty xto7_cnv empty 20 12 0 14 #58504c
#000000 0;
#X obj 803 234 cnv 15 15 15 empty xto8_cnv empty 20 12 0 14 #58504c
#000000 0;
#X obj 684 285 tgl 15 0 spkLto1 none l -15 8 0 12 #5a524c #a9b665 #c5b18d
0 1;
#X obj 701 285 tgl 15 0 spkLto2 none empty 30 11 0 12 #5a524c #a9b665
#c5b18d 0 1;
#X obj 718 285 tgl 15 0 spkLto3 none empty 30 11 0 12 #5a524c #a9b665
#c5b18d 0 1;
#X obj 735 285 tgl 15 0 spkLto4 none empty 30 11 0 12 #5a524c #a9b665
#c5b18d 0 1;
#X obj 752 285 tgl 15 0 spkLto5 none empty 30 11 0 12 #5a524c #a9b665
#c5b18d 0 1;
#X obj 769 285 tgl 15 0 spkLto6 none empty 30 11 0 12 #5a524c #a9b665
#c5b18d 0 1;
#X obj 786 285 tgl 15 0 spkLto7 none empty 30 11 0 12 #5a524c #a9b665
#c5b18d 0 1;
#X obj 803 285 tgl 15 0 spkLto8 none empty 30 11 0 12 #5a524c #a9b665
#c5b18d 0 1;
#X obj 684 285 cnv 15 15 15 empty spkLto1_cnv empty 20 12 0 14 #58504c
#000000 0;
#X obj 701 285 cnv 15 15 15 empty spkLto2_cnv empty 20 12 0 14 #58504c
#000000 0;
#X obj 718 285 cnv 15 15 15 empty spkLto3_cnv empty 20 12 0 14 #a8b464
#000000 0;
#X obj 735 285 cnv 15 15 15 empty spkLto4_cnv empty 20 12 0 14 #58504c
#000000 0;
#X obj 752 285 cnv 15 15 15 empty spkLto5_cnv empty 20 12 0 14 #58504c
#000000 0;
#X obj 769 285 cnv 15 15 15 empty spkLto6_cnv empty 20 12 0 14 #58504c
#000000 0;
#X obj 786 285 cnv 15 15 15 empty spkLto7_cnv empty 20 12 0 14 #58504c
#000000 0;
#X obj 803 285 cnv 15 15 15 empty spkLto8_cnv empty 20 12 0 14 #58504c
#000000 0;
#X obj 684 302 tgl 15 0 spkRto1 none r -15 8 0 12 #5a524c #a9b665 #c5b18d
0 1;
#X obj 701 302 tgl 15 0 spkRto2 none empty 30 11 0 12 #5a524c #a9b665
#c5b18d 0 1;
#X obj 718 302 tgl 15 0 spkRto3 none empty 30 11 0 12 #5a524c #a9b665
#c5b18d 0 1;
#X obj 735 302 tgl 15 0 spkRto4 none empty 30 11 0 12 #5a524c #a9b665
#c5b18d 0 1;
#X obj 752 302 tgl 15 0 spkRto5 none empty 30 11 0 12 #5a524c #a9b665
#c5b18d 0 1;
#X obj 769 302 tgl 15 0 spkRto6 none empty 30 11 0 12 #5a524c #a9b665
#c5b18d 0 1;
#X obj 786 302 tgl 15 0 spkRto7 none empty 30 11 0 12 #5a524c #a9b665
#c5b18d 0 1;
#X obj 803 302 tgl 15 0 spkRto8 none empty 30 11 0 12 #5a524c #a9b665
#c5b18d 0 1;
#X obj 684 302 cnv 15 15 15 empty spkRto1_cnv empty 20 12 0 14 #58504c
#000000 0;
#X obj 701 302 cnv 15 15 15 empty spkRto2_cnv empty 20 12 0 14 #58504c
#000000 0;
#X obj 718 302 cnv 15 15 15 empty spkRto3_cnv empty 20 12 0 14 #58504c
#000000 0;
#X obj 735 302 cnv 15 15 15 empty spkRto4_cnv empty 20 12 0 14 #a8b464
#000000 0;
#X obj 752 302 cnv 15 15 15 empty spkRto5_cnv empty 20 12 0 14 #58504c
#000000 0;
#X obj 769 302 cnv 15 15 15 empty spkRto6_cnv empty 20 12 0 14 #58504c
#000000 0;
#X obj 786 302 cnv 15 15 15 empty spkRto7_cnv empty 20 12 0 14 #58504c
#000000 0;
#X obj 803 302 cnv 15 15 15 empty spkRto8_cnv empty 20 12 0 14 #58504c
#000000 0;
#X obj 715 109 tgl 15 0 \$0-test \$0-set-test Test 17 8 0 10 #574f4a
#9fab5f #c4af8c 0 1;
#X connect 1 0 73 0;
#X connect 2 0 73 1;
#X connect 3 0 9 0;
#X connect 4 0 1 0;
#X connect 5 0 2 0;
#X connect 6 0 29 0;
#X connect 9 0 19 0;
#X connect 10 0 4 0;
#X connect 10 0 40 0;
#X connect 11 0 5 0;
#X connect 11 0 39 0;
#X connect 12 0 13 0;
#X connect 13 0 17 0;
#X connect 14 0 15 0;
#X connect 15 0 53 0;
#X connect 16 0 8 0;
#X connect 17 0 61 0;
#X connect 17 0 60 0;
#X connect 17 1 62 0;
#X connect 18 0 5 1;
#X connect 18 0 4 1;
#X connect 19 0 2 1;
#X connect 19 0 1 1;
#X connect 20 0 21 0;
#X connect 21 0 33 0;
#X connect 23 0 9 0;
#X connect 24 0 13 0;
#X connect 29 0 18 0;
#X connect 30 0 31 0;
#X connect 31 0 32 0;
#X connect 32 0 33 1;
#X connect 33 0 59 0;
#X connect 33 0 58 0;
#X connect 35 0 37 1;
#X connect 35 0 38 1;
#X connect 36 0 52 0;
#X connect 37 0 41 0;
#X connect 38 0 42 0;
#X connect 39 0 38 0;
#X connect 40 0 37 0;
#X connect 41 0 73 3;
#X connect 42 0 73 4;
#X connect 43 0 44 0;
#X connect 44 0 45 0;
#X connect 45 0 42 1;
#X connect 45 0 41 1;
#X connect 46 0 44 0;
#X connect 52 0 35 0;
#X connect 54 0 16 0;
#X connect 56 0 57 0;
#X connect 57 0 58 0;
#X connect 58 0 73 2;
#X connect 59 0 58 1;
#X connect 60 0 47 0;
#X connect 61 0 22 0;
#X connect 62 0 22 0;
#X connect 62 0 47 0;
#X connect 63 0 4 0;
#X connect 63 0 40 0;
#X connect 63 1 5 0;
#X connect 63 1 39 0;
#X connect 64 0 65 0;
#X connect 65 0 69 0;
#X connect 65 1 70 0;
#X connect 67 0 68 0;
#X connect 68 0 70 1;
#X connect 68 0 69 1;
#X connect 69 0 66 0;
#X connect 70 0 66 1;
#X connect 73 0 72 0;
#X connect 73 1 72 1;
#X connect 73 2 72 2;
#X connect 73 3 72 3;
#X connect 73 4 72 4;
#X connect 73 5 72 5;
#X connect 73 6 72 6;
#X connect 73 7 72 7;
#X coords -1 -1 1 1 165 235 2 664 89;
