#N canvas 22 70 1037 684 12;
#X obj 77 332 phasor~;
#X obj 77 382 osci/circle~ 0 0 1;
#X obj 210 381 osci/square~ 0 0 1;
#X obj 343 381 osci/triangle~ 0 0 1;
#X obj 77 653 outlet~ x;
#X obj 156 653 outlet~ y;
#X obj 77 453 flow.mux2~ 4, f 31;
#X text 15 454 //ceammc;
#X obj 420 453 flow.mux2~ 4;
#X obj 291 538 osci/lerp~, f 11;
#X obj 438 527 expr 1 - $f1;
#X obj 77 483 flow.demux2~;
#X obj 292 589 util/tgl2~;
#X obj 489 381 osci/polygon~ 0 0 3 1;
#X obj 301 454 r \$0-type1-s;
#X obj 511 453 r \$0-type2-s;
#X obj 171 547 r \$0-morph-tgl;
#X obj 438 503 r \$0-morph-amt;
#X obj 667 158 pack f f f f f f;
#X obj 607 92 savestate;
#X obj 667 127 f;
#X obj 607 190 unpack f f f f f f;
#X obj 776 135 r \$0-morph-amt;
#X obj 754 112 r \$0-morph-tgl;
#X obj 732 91 r \$0-numsides-s;
#X obj 597 356 r \$0-numsides-s;
#X obj 710 66 r \$0-freq-s;
#X obj 685 19 r \$0-type1-s;
#X obj 698 43 r \$0-type2-s;
#X obj 730 213 s \$0-morph-amt-r;
#X obj 705 236 s \$0-morph-tgl-r;
#X obj 680 259 s \$0-numsides-r;
#X obj 656 281 s \$0-freq-r;
#X obj 631 302 s \$0-type2-r;
#X obj 607 324 s \$0-type1-r;
#X obj 77 302 r \$0-freq-s;
#X obj 221 51 cnv 15 163 150 empty empty empty 20 12 0 14 -66577 -66577
0;
#X obj 225 113 cnv 15 155 26 empty empty empty 20 12 0 14 -128992 -66577
0;
#X obj 225 142 cnv 15 155 26 empty empty empty 20 12 0 14 -128992 -66577
0;
#X obj 225 84 cnv 15 155 26 empty empty empty 20 12 0 14 -128992 -66577
0;
#X obj 225 171 cnv 15 155 26 empty empty empty 20 12 0 14 -128992 -66577
0;
#X obj 225 55 cnv 15 155 26 empty empty empty 20 12 0 14 -128992 -66577
0;
#X text 225 117 FREQ;
#X text 225 146 NUM SIDES;
#X obj 294 173 gui/tgl;
#X text 225 175 MORPH;
#X obj 318 173 gui/hsl 51 20 0 1;
#X obj 294 270 s \$0-morph-tgl;
#X obj 318 246 s \$0-morph-amt;
#X obj 294 144 gui/nbx 5 2 25 numsides-s numsides-r;
#X obj 294 115 gui/nbx 5 -1e+37 1e+37 freq-s freq-r;
#X obj 294 86 gui/hradio 4 type2-s type2-r;
#X obj 294 57 gui/hradio 4 type1-s type1-r;
#X obj 398 140 r \$0-morph-amt-r;
#X obj 93 135 r \$0-morph-tgl-r;
#X obj 406 193 loadbang;
#X text 225 59 SHAPE 1;
#X text 225 88 SHAPE 2;
#X obj 320 16 inlet morph;
#X obj 220 20 inlet freq;
#X connect 0 0 1 0;
#X connect 0 0 2 0;
#X connect 0 0 3 0;
#X connect 0 0 13 0;
#X connect 1 0 6 0;
#X connect 1 0 8 0;
#X connect 1 1 6 1;
#X connect 1 1 8 1;
#X connect 2 0 6 2;
#X connect 2 0 8 2;
#X connect 2 1 6 3;
#X connect 2 1 8 3;
#X connect 3 0 6 4;
#X connect 3 0 8 4;
#X connect 3 1 6 5;
#X connect 3 1 8 5;
#X connect 6 0 11 0;
#X connect 6 1 11 1;
#X connect 8 0 9 2;
#X connect 8 1 9 3;
#X connect 9 0 12 0;
#X connect 9 1 12 1;
#X connect 10 0 9 4;
#X connect 11 0 4 0;
#X connect 11 1 5 0;
#X connect 11 2 9 0;
#X connect 11 3 9 1;
#X connect 12 0 4 0;
#X connect 12 1 5 0;
#X connect 13 0 6 6;
#X connect 13 0 8 6;
#X connect 13 1 6 7;
#X connect 13 1 8 7;
#X connect 14 0 6 8;
#X connect 15 0 8 8;
#X connect 16 0 11 2;
#X connect 16 0 12 2;
#X connect 17 0 10 0;
#X connect 18 0 19 0;
#X connect 19 0 21 0;
#X connect 19 1 20 0;
#X connect 20 0 18 0;
#X connect 21 0 34 0;
#X connect 21 1 33 0;
#X connect 21 2 32 0;
#X connect 21 3 31 0;
#X connect 21 4 30 0;
#X connect 21 5 29 0;
#X connect 22 0 18 5;
#X connect 23 0 18 4;
#X connect 24 0 18 3;
#X connect 25 0 13 3;
#X connect 26 0 18 2;
#X connect 27 0 20 1;
#X connect 28 0 18 1;
#X connect 35 0 0 0;
#X connect 44 0 47 0;
#X connect 46 0 48 0;
#X connect 53 0 46 0;
#X connect 54 0 44 0;
#X connect 55 0 46 0;
#X connect 58 0 46 0;
#X connect 59 0 50 0;
#X coords 0 -1 1 1 165 152 2 220 50;
