#N canvas 468 74 450 300 12;
#X obj 59 35 inlet x;
#X obj 129 35 inlet y;
#X obj 199 35 inlet z;
#X obj 59 59 sig~ \$1;
#X obj 129 59 sig~ \$2;
#X obj 199 59 sig~ \$3;
#X obj 59 83 outlet~ x;
#X obj 129 83 outlet~ y;
#X obj 199 83 outlet~ z;
#X connect 0 0 3 0;
#X connect 1 0 4 0;
#X connect 2 0 5 0;
#X connect 3 0 6 0;
#X connect 4 0 7 0;
#X connect 5 0 8 0;
