#N canvas 456 139 450 300 12;
#X obj 123 123 pack 0 \$1;
#X obj 123 99 inlet;
#X obj 183 98 inlet rampLength;
#X obj 123 171 outlet;
#X obj 123 147 vline~;
#X connect 0 0 4 0;
#X connect 1 0 0 0;
#X connect 2 0 0 1;
#X connect 4 0 3 0;
