#N canvas 232 292 495 300 12;
#X obj 13 20 inlet bang;
#X obj 13 89 t b b b;
#X obj 13 171 outlet x;
#X obj 143 171 outlet y;
#X obj 273 171 outlet z;
#X text 87 224 // dependent on the else library;
#X obj 113 19 inlet x_min;
#X obj 130 44 inlet x_max;
#X obj 233 19 inlet y_min;
#X obj 250 44 inlet y_max;
#X obj 353 19 inlet z_min;
#X obj 370 44 inlet z_max;
#X obj 13 133 else/rand.f \$1 \$2;
#X obj 143 133 else/rand.f \$3 \$4;
#X obj 273 133 else/rand.f \$5 \$6;
#X connect 0 0 1 0;
#X connect 1 0 12 0;
#X connect 1 1 13 0;
#X connect 1 2 14 0;
#X connect 6 0 12 1;
#X connect 7 0 12 2;
#X connect 8 0 13 1;
#X connect 9 0 13 2;
#X connect 10 0 14 1;
#X connect 11 0 14 2;
#X connect 12 0 2 0;
#X connect 13 0 3 0;
#X connect 14 0 4 0;
