#N canvas 557 248 565 316 12;
#X obj 7 51 symbol \$1;
#X msg 7 129 set \$1;
#X obj 7 105 makefilename %s-x;
#X obj 134 105 makefilename %s-y;
#X obj 260 105 makefilename %s-z;
#X msg 134 129 set \$1;
#X msg 260 129 set \$1;
#X obj 7 216 outlet~;
#X obj 134 216 outlet~;
#X obj 260 216 outlet~;
#X obj 260 192 r~;
#X obj 134 192 r~;
#X obj 7 192 r~;
#X obj 7 17 loadbang;
#X connect 0 0 2 0;
#X connect 0 0 3 0;
#X connect 0 0 4 0;
#X connect 1 0 12 0;
#X connect 2 0 1 0;
#X connect 3 0 5 0;
#X connect 4 0 6 0;
#X connect 5 0 11 0;
#X connect 6 0 10 0;
#X connect 10 0 9 0;
#X connect 11 0 8 0;
#X connect 12 0 7 0;
#X connect 13 0 0 0;
