#N canvas 200 27 1128 538 10;
#X obj 55 71 cnv 15 124 154 empty body empty 20 12 0 14 -99865 -66577
0;
#X obj 74 89 bng 15 250 50 0 empty empty empty 17 7 0 10 -191407 -251611
-1;
#X obj 117 239 + 2;
#X obj 117 260 s \$0-bit-depth;
#X obj 57 89 tgl 15 0 \$0-record none empty 17 7 0 10 -251611 -1 -1
0 1;
#X obj 74 20 r \$0-record;
#X obj 74 42 metro 1000;
#N canvas 76 23 995 712 recording_guts 0;
#X obj 713 215 sel 0;
#X msg 713 238 symbol wav;
#X msg 740 270 symbol aiff;
#X obj 209 351 pack f f s;
#X obj 209 255 f;
#X obj 237 290 r \$0-sample-rate;
#X obj 224 229 r \$0-bit-depth;
#X obj 713 191 r \$0-format;
#X obj 386 161 r \$0-file-name;
#X obj 449 219 date, f 13;
#X obj 572 219 time, f 5;
#X text 499 307 name-month-day-year-hour-minute-second.<format>;
#N canvas 0 23 450 300 sel_sample_rate 0;
#X obj 84 39 sel 0 1 2 3 4 5;
#X msg 169 63 192000;
#X msg 152 85 176400;
#X msg 135 106 96000;
#X msg 118 127 882000;
#X msg 101 148 48000;
#X msg 84 169 44100;
#X obj 84 16 inlet choice;
#X obj 84 191 outlet samplerate;
#X connect 0 0 6 0;
#X connect 0 1 5 0;
#X connect 0 2 4 0;
#X connect 0 3 3 0;
#X connect 0 4 2 0;
#X connect 0 5 1 0;
#X connect 1 0 8 0;
#X connect 2 0 8 0;
#X connect 3 0 8 0;
#X connect 4 0 8 0;
#X connect 5 0 8 0;
#X connect 6 0 8 0;
#X connect 7 0 0 0;
#X restore 237 315 pd sel_sample_rate;
#X obj 209 88 r \$0-record;
#X text 503 162 date and time are from zexy;
#X obj 386 307 else/any2symbol;
#X msg 228 422 open -bytes \$1 -rate \$2 \$3;
#X obj 209 373 t b l b;
#X msg 248 474 stop;
#X obj 209 119 sel 1;
#X text 101 142 1 starts \, 0 stops;
#X obj 209 169 t b b b;
#X obj 371 521 print -n;
#X obj 371 497 else/format %s;
#X obj 236 143 s \$0-stop;
#X obj 256 447 r \$0-stop;
#X msg 377 473 symbol recording\ stopped;
#X obj 386 286 else/format %s-%s-%.2d-%d-%.2d-%.2d-%.2d.%s, f 55;
#X msg 209 394 start;
#N canvas 172 39 325 336 month->symbol 0;
#X obj 46 33 sel 1 2 3 4 5 6 7 8 9 10 11 12;
#X msg 46 274 symbol Jan;
#X msg 60 254 symbol Feb;
#X msg 75 234 symbol Mar;
#X msg 90 214 symbol Apr;
#X msg 105 194 symbol May;
#X msg 119 174 symbol Jun;
#X msg 134 154 symbol Jul;
#X msg 149 134 symbol Aug;
#X msg 164 114 symbol Sept;
#X msg 178 94 symbol Oct;
#X msg 193 74 symbol Nov;
#X msg 208 54 symbol Dec;
#X obj 46 13 inlet month_as_number;
#X obj 46 295 outlet month_as_symbol;
#X connect 0 0 1 0;
#X connect 0 1 2 0;
#X connect 0 2 3 0;
#X connect 0 3 4 0;
#X connect 0 4 5 0;
#X connect 0 5 6 0;
#X connect 0 6 7 0;
#X connect 0 7 8 0;
#X connect 0 8 9 0;
#X connect 0 9 10 0;
#X connect 0 10 11 0;
#X connect 0 11 12 0;
#X connect 1 0 14 0;
#X connect 2 0 14 0;
#X connect 3 0 14 0;
#X connect 4 0 14 0;
#X connect 5 0 14 0;
#X connect 6 0 14 0;
#X connect 7 0 14 0;
#X connect 8 0 14 0;
#X connect 9 0 14 0;
#X connect 10 0 14 0;
#X connect 11 0 14 0;
#X connect 12 0 14 0;
#X connect 13 0 0 0;
#X restore 464 245 pd month->symbol;
#X msg 371 454 recording...;
#X obj 26 43 inlet~ x;
#X obj 96 43 inlet~ y;
#X obj 209 504 outlet writesf~ messages;
#X obj 96 504 outlet~ y;
#X obj 26 504 outlet~ x;
#X connect 0 0 1 0;
#X connect 0 1 2 0;
#X connect 1 0 27 7;
#X connect 2 0 27 7;
#X connect 3 0 17 0;
#X connect 4 0 3 0;
#X connect 5 0 12 0;
#X connect 6 0 4 1;
#X connect 7 0 0 0;
#X connect 8 0 27 0;
#X connect 9 0 27 3;
#X connect 9 1 29 0;
#X connect 9 2 27 2;
#X connect 10 0 27 4;
#X connect 10 1 27 5;
#X connect 10 2 27 6;
#X connect 12 0 3 1;
#X connect 13 0 19 0;
#X connect 15 0 3 2;
#X connect 16 0 30 0;
#X connect 16 0 33 0;
#X connect 17 0 28 0;
#X connect 17 1 16 0;
#X connect 17 2 18 0;
#X connect 18 0 33 0;
#X connect 19 0 21 0;
#X connect 19 1 24 0;
#X connect 21 0 4 0;
#X connect 21 1 27 0;
#X connect 21 2 9 0;
#X connect 21 2 10 0;
#X connect 23 0 22 0;
#X connect 25 0 18 0;
#X connect 25 0 26 0;
#X connect 26 0 23 0;
#X connect 27 0 15 0;
#X connect 28 0 33 0;
#X connect 29 0 27 1;
#X connect 30 0 23 0;
#X connect 31 0 35 0;
#X connect 32 0 34 0;
#X restore 13 332 pd recording_guts;
#X obj 275 337 s \$0-set-sample-rate;
#X obj 344 273 s \$0-set-file-name;
#X obj 321 294 s \$0-bit-depth;
#X obj 298 316 s \$0-set-format;
#X obj 275 230 unpack f f f s f;
#X obj 368 252 s \$0-mute;
#X obj 57 110 cnv 14 116 15 empty empty empty 20 12 0 14 -91411 -66577
0;
#X symbolatom 57 110 19 0 0 0 - #0-set-file-name #0-file-name;
#X obj 210 34 r \$0-record;
#X msg 210 76 label \$1;
#X obj 91 89 cnv 15 59 15 empty \$0-stopwatch-display 00:00:01 2 9
0 12 -87315 -203491 0;
#X obj 210 97 s \$0-stopwatch-display;
#X text 269 184 init for recording stuff;
#X obj 275 140 else/initmess \; \$0-stopwatch-display label 00:00:00
;
#X obj 275 205 else/initmess 0 0 1 untitled 1;
#N canvas 0 23 442 553 stopwatch 0;
#X obj 16 448 else/any2symbol;
#X obj 16 425 else/format %02d:%02d:%02d;
#X obj 123 207 == 0;
#X obj 123 231 sel 1;
#X obj 69 275 == 0;
#X obj 69 299 sel 1;
#X obj 69 364 else/pack2 f f f;
#X obj 69 388 unpack f f f;
#X msg 178 139 -1;
#X obj 146 75 t b b;
#N canvas 0 23 450 300 sec 0;
#X obj 50 43 inlet float;
#X obj 50 161 outlet float;
#X obj 50 74 f;
#X obj 50 98 + 1;
#X obj 50 122 % 60;
#X connect 0 0 2 0;
#X connect 2 0 3 0;
#X connect 3 0 4 0;
#X connect 4 0 2 1;
#X connect 4 0 1 0;
#X restore 178 188 pd sec;
#N canvas 0 23 450 300 min 0;
#X obj 50 43 inlet float;
#X obj 50 161 outlet float;
#X obj 50 74 f;
#X obj 50 98 + 1;
#X obj 50 122 % 60;
#X connect 0 0 2 0;
#X connect 2 0 3 0;
#X connect 3 0 4 0;
#X connect 4 0 2 1;
#X connect 4 0 1 0;
#X restore 123 256 pd min;
#N canvas 0 23 450 300 hour 0;
#X obj 50 43 inlet float;
#X obj 50 161 outlet float;
#X obj 50 74 f;
#X obj 50 98 + 1;
#X connect 0 0 2 0;
#X connect 2 0 3 0;
#X connect 3 0 1 0;
#X connect 3 0 2 1;
#X restore 69 323 pd hour;
#X obj 63 36 sel 1;
#X text 213 136 they're all getting bumped up by one so this starts
them at 0, f 23;
#X obj 63 13 inlet tgl;
#X obj 16 482 outlet symbol;
#X obj 95 111 metro 1000;
#X connect 0 0 16 0;
#X connect 1 0 0 0;
#X connect 2 0 3 0;
#X connect 3 0 11 0;
#X connect 4 0 5 0;
#X connect 5 0 12 0;
#X connect 6 0 7 0;
#X connect 7 0 1 0;
#X connect 7 1 1 1;
#X connect 7 2 1 2;
#X connect 8 0 10 0;
#X connect 8 0 11 0;
#X connect 8 0 12 0;
#X connect 9 0 17 0;
#X connect 9 1 8 0;
#X connect 10 0 2 0;
#X connect 10 0 6 2;
#X connect 11 0 4 0;
#X connect 11 0 6 1;
#X connect 12 0 6 0;
#X connect 13 0 9 0;
#X connect 13 1 17 0;
#X connect 15 0 13 0;
#X connect 17 0 10 0;
#X restore 210 55 pd stopwatch;
#X obj 13 306 inlet~;
#X obj 112 306 inlet~;
#X obj 13 383 outlet~;
#X obj 62 383 outlet~;
#X obj 112 383 outlet;
#X obj 55 71 cnv 15 124 15 empty h1 osci/record~ 3 8 0 11 -16645 -257781
0;
#X obj 55 71 cnv 2 7 2 empty empty empty 20 12 0 14 -198865 -66577
0;
#X obj 172 71 cnv 2 7 2 empty empty empty 20 12 0 14 -198865 -66577
0;
#X obj 172 223 cnv 2 7 2 empty empty empty 20 12 0 14 -170401 -66577
0;
#X obj 55 223 cnv 2 7 2 empty empty empty 20 12 0 14 -198865 -66577
0;
#X obj 55 131 cnv 15 124 15 empty h1 Settings 3 8 0 11 -16645 -257781
0;
#X obj 57 149 vradio 12 1 0 6 \$0-sample-rate \$0-set-sample-rate empty
0 -8 0 12 -91412 -174938 -203556 5;
#X obj 79 155 cnv 2 2 2 empty cnv 44.1 0 0 0 10 -91412 -203556 0;
#X obj 79 168 cnv 2 2 2 empty cnv2 48.0 0 0 0 10 -91412 -203556 0;
#X obj 79 180 cnv 2 2 2 empty cnv3 88.2 0 0 0 10 -91412 -203556 0;
#X obj 79 192 cnv 2 2 2 empty sr4 96.0 0 0 0 10 -91412 -203556 0;
#X obj 73 204 cnv 2 2 2 empty sr5 176.4 0 0 0 10 -91412 -203556 0;
#X obj 73 217 cnv 2 2 2 empty sr6 192.0 0 0 0 10 -91412 -203556 0;
#X obj 117 149 vradio 12 1 0 2 \$0-format \$0-set-format empty 0 -8
0 12 -91412 -174938 -203556 0;
#X obj 132 153 cnv 2 2 2 empty file1 .wav 0 0 0 10 -91412 -203556 0
;
#X obj 132 167 cnv 2 2 2 empty file2 .aiff 0 0 0 10 -91412 -203556
0;
#X obj 117 185 vradio 12 1 0 3 empty none empty 0 -8 0 12 -91412 -174938
-203556 0;
#X obj 133 191 cnv 2 2 2 empty bdepth1 16 0 0 0 10 -91412 -203556 0
;
#X obj 133 204 cnv 2 2 2 empty bdepth2 24 0 0 0 10 -91412 -203556 0
;
#X obj 133 216 cnv 2 2 2 empty bdepth3 32 0 0 0 10 -91412 -203556 0
;
#X obj 111 223 cnv 2 7 2 empty empty empty 20 12 0 14 -198865 -66577
0;
#X connect 2 0 3 0;
#X connect 5 0 6 0;
#X connect 6 0 1 0;
#X connect 7 0 26 0;
#X connect 7 1 27 0;
#X connect 7 2 28 0;
#X connect 12 0 8 0;
#X connect 12 1 11 0;
#X connect 12 2 10 0;
#X connect 12 3 9 0;
#X connect 12 4 13 0;
#X connect 16 0 23 0;
#X connect 17 0 19 0;
#X connect 22 0 12 0;
#X connect 23 0 17 0;
#X connect 24 0 7 0;
#X connect 25 0 7 1;
#X connect 45 0 2 0;
#X coords 0 -1 1 1 126 156 1 54 70;
