#N canvas 178 62 762 489 10;
#X obj 55 71 cnv 15 204 180 empty body empty 20 12 0 14 #f3f1eb #404040
0;
#X obj 117 300 + 2, f 4;
#X obj 117 321 s \$0-bit-depth;
#X obj 57 89 tgl 16 0 \$0-record none empty 17 7 0 10 #595c5f #f06864
#000000 0 1;
#X obj 490 213 r \$0-record;
#X obj 569 238 metro 1000;
#N canvas 76 23 995 712 recording_guts 0;
#X obj 209 351 pack f f s;
#X obj 209 255 f;
#X obj 237 290 r \$0-sample-rate;
#X obj 224 229 r \$0-bit-depth;
#N canvas 0 23 450 300 sel_sample_rate 0;
#X obj 84 39 sel 0 1 2 3 4 5;
#X msg 169 63 192000;
#X msg 152 85 176400;
#X msg 135 106 96000;
#X msg 118 127 882000;
#X msg 101 148 48000;
#X msg 84 169 44100;
#X obj 84 16 inlet choice;
#X obj 84 191 outlet samplerate;
#X connect 0 0 6 0;
#X connect 0 1 5 0;
#X connect 0 2 4 0;
#X connect 0 3 3 0;
#X connect 0 4 2 0;
#X connect 0 5 1 0;
#X connect 1 0 8 0;
#X connect 2 0 8 0;
#X connect 3 0 8 0;
#X connect 4 0 8 0;
#X connect 5 0 8 0;
#X connect 6 0 8 0;
#X connect 7 0 0 0;
#X restore 237 315 pd sel_sample_rate;
#X obj 209 88 r \$0-record;
#X msg 228 422 open -bytes \$1 -rate \$2 \$3;
#X obj 209 373 t b l b;
#X msg 248 474 stop;
#X obj 209 119 sel 1;
#X text 101 142 1 starts \, 0 stops;
#X obj 371 521 print -n;
#X obj 371 497 else/format %s;
#X obj 236 143 s \$0-stop;
#X obj 256 447 r \$0-stop;
#X msg 377 475 symbol recording\ stopped;
#X msg 209 394 start;
#X msg 371 454 recording...;
#X obj 26 43 inlet~ x;
#X obj 96 43 inlet~ y;
#X obj 209 504 outlet writesf~ messages;
#X obj 96 504 outlet~ y;
#X obj 26 504 outlet~ x;
#N canvas 205 165 875 467 build_file_name 0;
#X obj 361 2 inlet bang;
#X obj 76 435 outlet symbol filename;
#X obj 403 254 sel 0;
#X msg 403 277 symbol wav;
#X msg 430 309 symbol aiff;
#X obj 403 230 r \$0-format;
#X obj 116 222 r \$0-file-name;
#X obj 76 388 else/any2symbol;
#N canvas 172 39 325 336 month->symbol 0;
#X obj 46 33 sel 1 2 3 4 5 6 7 8 9 10 11 12;
#X msg 46 274 symbol Jan;
#X msg 60 254 symbol Feb;
#X msg 75 234 symbol Mar;
#X msg 90 214 symbol Apr;
#X msg 105 194 symbol May;
#X msg 119 174 symbol Jun;
#X msg 134 154 symbol Jul;
#X msg 149 134 symbol Aug;
#X msg 164 114 symbol Sept;
#X msg 178 94 symbol Oct;
#X msg 193 74 symbol Nov;
#X msg 208 54 symbol Dec;
#X obj 46 13 inlet month_as_number;
#X obj 46 295 outlet month_as_symbol;
#X connect 0 0 1 0;
#X connect 0 1 2 0;
#X connect 0 2 3 0;
#X connect 0 3 4 0;
#X connect 0 4 5 0;
#X connect 0 5 6 0;
#X connect 0 6 7 0;
#X connect 0 7 8 0;
#X connect 0 8 9 0;
#X connect 0 9 10 0;
#X connect 0 10 11 0;
#X connect 0 11 12 0;
#X connect 1 0 14 0;
#X connect 2 0 14 0;
#X connect 3 0 14 0;
#X connect 4 0 14 0;
#X connect 5 0 14 0;
#X connect 6 0 14 0;
#X connect 7 0 14 0;
#X connect 8 0 14 0;
#X connect 9 0 14 0;
#X connect 10 0 14 0;
#X connect 11 0 14 0;
#X connect 12 0 14 0;
#X connect 13 0 0 0;
#X restore 157 296 pd month->symbol;
#X text 78 177 date and time are clones from zexy;
#X obj 280 261 osci/time;
#X obj 142 255 osci/date, f 13;
#X obj 76 199 r \$0-directory-name;
#X text 176 349 directory/name-month-day-year-hour-minute-second.<format>
;
#X obj 76 327 else/format %s/%s-%s-%.2d-%d-%.2d-%.2d-%.2d.%s, f 55
;
#X obj 361 145 t b b;
#X obj 553 352 else/format %s/%s.%s;
#X text 683 352 directory/name-.<format>;
#X obj 361 66 spigot;
#X obj 523 8 r \$0-time-stamp-tgl;
#X obj 523 31 expr 1-$f1;
#X obj 490 66 spigot;
#X obj 670 279 sel 0;
#X msg 670 302 symbol wav;
#X msg 697 334 symbol aiff;
#X obj 670 255 r \$0-format;
#X obj 611 225 r \$0-file-name;
#X obj 553 202 r \$0-directory-name;
#X obj 86 411 print;
#X connect 0 0 18 0;
#X connect 0 0 21 0;
#X connect 2 0 3 0;
#X connect 2 1 4 0;
#X connect 3 0 14 8;
#X connect 4 0 14 8;
#X connect 5 0 2 0;
#X connect 6 0 14 1;
#X connect 7 0 1 0;
#X connect 7 0 28 0;
#X connect 8 0 14 2;
#X connect 10 0 14 5;
#X connect 10 1 14 6;
#X connect 10 2 14 7;
#X connect 11 0 14 4;
#X connect 11 1 8 0;
#X connect 11 2 14 3;
#X connect 12 0 14 0;
#X connect 14 0 7 0;
#X connect 15 0 14 0;
#X connect 15 1 10 0;
#X connect 15 1 11 0;
#X connect 16 0 7 0;
#X connect 18 0 15 0;
#X connect 19 0 20 0;
#X connect 19 0 18 1;
#X connect 20 0 21 1;
#X connect 21 0 16 0;
#X connect 22 0 23 0;
#X connect 22 1 24 0;
#X connect 23 0 16 2;
#X connect 24 0 16 2;
#X connect 25 0 22 0;
#X connect 26 0 16 1;
#X connect 27 0 16 0;
#X restore 398 255 pd build_file_name;
#X obj 209 169 t b b;
#X obj 420 179 bng 15 250 50 0 empty empty empty 17 7 0 10 #fcfcfc
#000000 #000000;
#X connect 0 0 7 0;
#X connect 1 0 0 0;
#X connect 2 0 4 0;
#X connect 3 0 1 1;
#X connect 4 0 0 1;
#X connect 5 0 9 0;
#X connect 6 0 17 0;
#X connect 6 0 20 0;
#X connect 7 0 16 0;
#X connect 7 1 6 0;
#X connect 7 2 8 0;
#X connect 8 0 20 0;
#X connect 9 0 24 0;
#X connect 9 1 13 0;
#X connect 12 0 11 0;
#X connect 14 0 8 0;
#X connect 14 0 15 0;
#X connect 15 0 12 0;
#X connect 16 0 20 0;
#X connect 17 0 12 0;
#X connect 18 0 22 0;
#X connect 19 0 21 0;
#X connect 23 0 0 2;
#X connect 24 0 1 0;
#X connect 24 1 23 0;
#X connect 25 0 23 0;
#X restore 13 393 pd recording_guts;
#X obj 306 174 s \$0-set-sample-rate;
#X obj 368 111 s \$0-set-file-name;
#X obj 326 153 s \$0-set-format;
#X obj 57 126 cnv 15 200 17 empty \$0-file-name-cnv File\ name 1 -8
0 11 #595c5f #596c6e 0;
#X symbolatom 57 126 33 0 0 2 - \$0-set-file-name \$0-file-name 0;
#X msg 490 259 label \$1;
#X obj 95 89 cnv 16 59 16 empty \$0-stopwatch-display 00:00:02 2 9
0 12 #595c5f #b1d383 0;
#X obj 490 280 s \$0-stopwatch-display;
#X text 300 21 init for recording stuff;
#X obj 490 303 else/initmess \; \$0-stopwatch-display label 00:00:00
;
#N canvas 0 23 442 553 stopwatch 0;
#X obj 16 448 else/any2symbol;
#X obj 16 425 else/format %02d:%02d:%02d;
#X obj 123 207 == 0;
#X obj 123 231 sel 1;
#X obj 69 275 == 0;
#X obj 69 299 sel 1;
#X obj 69 364 else/pack2 f f f;
#X obj 69 388 unpack f f f;
#X msg 178 139 -1;
#X obj 146 75 t b b;
#N canvas 0 23 450 300 sec 0;
#X obj 50 43 inlet float;
#X obj 50 161 outlet float;
#X obj 50 74 f;
#X obj 50 98 + 1;
#X obj 50 122 % 60;
#X connect 0 0 2 0;
#X connect 2 0 3 0;
#X connect 3 0 4 0;
#X connect 4 0 2 1;
#X connect 4 0 1 0;
#X restore 178 188 pd sec;
#N canvas 0 23 450 300 min 0;
#X obj 50 43 inlet float;
#X obj 50 161 outlet float;
#X obj 50 74 f;
#X obj 50 98 + 1;
#X obj 50 122 % 60;
#X connect 0 0 2 0;
#X connect 2 0 3 0;
#X connect 3 0 4 0;
#X connect 4 0 2 1;
#X connect 4 0 1 0;
#X restore 123 256 pd min;
#N canvas 0 23 450 300 hour 0;
#X obj 50 43 inlet float;
#X obj 50 161 outlet float;
#X obj 50 74 f;
#X obj 50 98 + 1;
#X connect 0 0 2 0;
#X connect 2 0 3 0;
#X connect 3 0 1 0;
#X connect 3 0 2 1;
#X restore 69 323 pd hour;
#X obj 63 36 sel 1;
#X text 213 136 they're all getting bumped up by one so this starts
them at 0, f 23;
#X obj 63 13 inlet tgl;
#X obj 16 482 outlet symbol;
#X obj 95 111 metro 1000;
#X connect 0 0 16 0;
#X connect 1 0 0 0;
#X connect 2 0 3 0;
#X connect 3 0 11 0;
#X connect 4 0 5 0;
#X connect 5 0 12 0;
#X connect 6 0 7 0;
#X connect 7 0 1 0;
#X connect 7 1 1 1;
#X connect 7 2 1 2;
#X connect 8 0 10 0;
#X connect 8 0 11 0;
#X connect 8 0 12 0;
#X connect 9 0 17 0;
#X connect 9 1 8 0;
#X connect 10 0 2 0;
#X connect 10 0 6 2;
#X connect 11 0 4 0;
#X connect 11 0 6 1;
#X connect 12 0 6 0;
#X connect 13 0 9 0;
#X connect 13 1 17 0;
#X connect 15 0 13 0;
#X connect 17 0 10 0;
#X restore 490 238 pd stopwatch;
#X obj 13 367 inlet~;
#X obj 112 367 inlet~;
#X obj 55 71 cnv 15 204 15 empty h1 osci/record~ 3 8 0 11 #283032 #ece6d0
0;
#X obj 59 71 cnv 2 7 2 empty empty empty 20 12 0 14 #ece6d0 #404040
0;
#X obj 248 71 cnv 2 7 2 empty empty empty 20 12 0 14 #ece6d0 #404040
0;
#X obj 55 181 cnv 15 204 15 empty h1 Settings 3 8 0 11 #283032 #ece6d0
0;
#X obj 76 89 bng 16 250 50 0 \$0-none \$0-bng-monitor empty 30 11 0
12 #595c5f #f06864 #c4b08c;
#X obj 569 259 s \$0-bng-monitor;
#X obj 75 158 cnv 14 182 17 empty empty empty 20 12 0 14 #595c5f #404040
0;
#X symbolatom 75 158 30 0 0 0 - \$0-set-directory-name \$0-directory-name
0;
#X obj 57 159 bng 16 250 50 0 \$0-directory \$0-no-rcv Directory 1
-8 0 11 #595c5f #b1d383 #596c6e;
#X obj 295 224 r \$0-directory;
#X obj 295 266 pdcontrol;
#X obj 295 287 openpanel 1;
#X msg 295 400 Directory\\\ changed\\\ to:\\\ \$1;
#X obj 304 330 s \$0-set-directory-name;
#X msg 295 245 dir 1;
#X obj 295 425 print -n;
#X obj 13 443 writesf~ 2;
#X obj 394 251 loadbang;
#X msg 394 274 dir 1;
#X obj 394 297 pdcontrol;
#X msg 394 356 [osci/record~]\\\ |\\\ Directory\\\ set\\\ to\\\ current\\\ directory:\\\ \$1
;
#X obj 157 89 tgl 16 0 \$0-time-stamp-tgl \$0-set-time-stamp-tgl Time\ Stamp
19 8 0 10 #595c5f #b1d383 #596c6e 0 1;
#X obj 389 90 s \$0-set-time-stamp-tgl;
#X obj 347 132 s \$0-set-bit-depth;
#X obj 306 67 unpack f f f s f;
#X obj 306 42 else/initmess 5 0 1 untitled 1 1;
#X obj 176 217 hradio 13 1 0 2 \$0-format \$0-set-format empty -1 -10
0 12 #595c5f #b1d383 #c5b18d 0;
#X obj 176 234 hradio 13 1 0 3 \$0-bit-depth-snd \$0-set-bit-depth
empty -1 -10 0 12 #595c5f #b1d383 #c5b18d 0;
#X obj 117 276 r \$0-bit-depth-snd;
#X obj 57 224 cnv 5 5 5 empty \$0-format-label File\ Format:\ .aiff
0 0 0 10 #f3f1eb #596c6e 0;
#X obj 57 205 cnv 5 5 5 empty \$0-sr-label Sample\ Rate:\ 96kHz 0 0
0 10 #f3f1eb #596c6e 0;
#X obj 57 241 cnv 5 5 5 empty \$0-bit-depth-label Bit\ Depth:\ \ \ 32
0 0 0 10 #f3f1eb #596c6e 0;
#X obj 176 200 hradio 13 1 0 6 \$0-sample-rate \$0-set-sample-rate
empty -1 -10 0 12 #595c5f #b1d383 #c5b18d 0;
#N canvas 673 329 514 259 gui_stuff 0;
#X obj 8 15 r \$0-sample-rate;
#X obj 8 38 sel 0 1 2 3 4 5;
#X obj 8 228 s \$0-sr-label;
#X msg 8 178 44.1;
#X msg 20 155 48;
#X msg 8 205 label Sample\\\ Rate:\\\ \$1kHz;
#X msg 33 132 88;
#X msg 46 108 96;
#X msg 72 63 192;
#X msg 59 87 176;
#X obj 129 15 r \$0-format;
#X obj 129 38 sel 0 1;
#X obj 129 118 s \$0-format-label;
#X msg 129 65 label File\ Format:\ .wav;
#X msg 143 91 label File\ Format:\ .aiff;
#X obj 329 15 r \$0-bit-depth-snd;
#X obj 329 188 s \$0-bit-depth-label;
#X obj 329 38 sel 0 1 2;
#X msg 329 121 16;
#X msg 342 94 24;
#X msg 356 62 32;
#X msg 329 155 label Bit\\\ Depth:\\\ \\\ \\\ \$1;
#X connect 0 0 1 0;
#X connect 1 0 3 0;
#X connect 1 1 4 0;
#X connect 1 2 6 0;
#X connect 1 3 7 0;
#X connect 1 4 9 0;
#X connect 1 5 8 0;
#X connect 3 0 5 0;
#X connect 4 0 5 0;
#X connect 5 0 2 0;
#X connect 6 0 5 0;
#X connect 7 0 5 0;
#X connect 8 0 5 0;
#X connect 9 0 5 0;
#X connect 10 0 11 0;
#X connect 11 0 13 0;
#X connect 11 1 14 0;
#X connect 13 0 12 0;
#X connect 14 0 12 0;
#X connect 15 0 17 0;
#X connect 17 0 18 0;
#X connect 17 1 19 0;
#X connect 17 2 20 0;
#X connect 18 0 21 0;
#X connect 19 0 21 0;
#X connect 20 0 21 0;
#X connect 21 0 16 0;
#X restore 48 27 pd gui_stuff;
#X connect 1 0 2 0;
#X connect 4 0 5 0;
#X connect 4 0 17 0;
#X connect 5 0 25 0;
#X connect 6 0 36 0;
#X connect 6 1 36 1;
#X connect 6 2 36 0;
#X connect 12 0 14 0;
#X connect 17 0 12 0;
#X connect 18 0 6 0;
#X connect 19 0 6 1;
#X connect 29 0 34 0;
#X connect 30 0 31 0;
#X connect 31 0 32 0;
#X connect 31 0 33 0;
#X connect 32 0 35 0;
#X connect 34 0 30 0;
#X connect 37 0 38 0;
#X connect 38 0 39 0;
#X connect 39 0 33 0;
#X connect 39 0 40 0;
#X connect 40 0 35 0;
#X connect 44 0 7 0;
#X connect 44 1 9 0;
#X connect 44 2 43 0;
#X connect 44 3 8 0;
#X connect 44 4 42 0;
#X connect 45 0 44 0;
#X connect 48 0 1 0;
#X coords 0 -1 1 1 206 182 1 54 70;
