#N canvas 29 23 1154 605 12;
#X obj 81 76 cnv 15 94 15 empty header osci/shear~ 15 8 0 10 -37450
-228856 0;
#X obj 694 28 r \$0-menu-tgl;
#X obj 694 59 sel 0 1;
#X obj 694 128 t b a;
#X obj 745 128 sendcanvas;
#X msg 694 152 map 0 \, map 1;
#X obj 694 176 sendcanvas 1;
#X obj 83 80 tgl 10 0 \$0-menu-tgl \$0-set-menu-tgl empty 17 7 0 10
-99865 -262144 -1 1 1;
#X obj 81 92 cnv 15 94 60 empty primary-bg empty 20 12 0 14 -99865
-66577 0;
#X msg 694 80 17;
#X msg 725 80 78;
#X obj 128 240 inlet~ x;
#X obj 258 240 inlet~ y;
#X obj 388 240 inlet~ z;
#X obj 128 568 outlet~ x;
#X obj 258 568 outlet~ y;
#X obj 388 568 outlet~ z;
#X obj 569 399 sig~;
#X obj 502 423 xselect~ 2;
#X obj 457 353 + 1;
#X obj 158 96 tgl 13 0 \$0-x-shear-sig-select \$0-set-x-shear-sig-select
empty 17 7 0 10 -162280 -204786 -1 1 1;
#X obj 158 115 tgl 13 0 \$0-y-shear-sig-select \$0-set-y-shear-sig-select
empty 17 7 0 10 -162280 -204786 -1 1 1;
#X obj 158 134 tgl 13 0 \$0-z-shear-sig-select \$0-set-z-shear-sig-select
empty 17 7 0 10 -162280 -204786 -1 1 1;
#X obj 760 379 sig~;
#X obj 693 403 xselect~ 2;
#X obj 648 333 + 1;
#X obj 964 378 sig~;
#X obj 897 402 xselect~ 2;
#X obj 852 332 + 1;
#X obj 97 95 nbx 5 15 -10 10 0 0 \$0-x-shear \$0-set-x-shear empty
0 -8 0 11 -262144 -1 -1 3.3 256;
#X obj 98 95 cnv 15 58 15 empty \$0-x-shear-display 3.30 2 9 0 14 -204786
-1 0;
#X obj 96 95 cnv 1 1 15 empty empty X -10 9 2 12 -204786 -228856 0
;
#X obj 96 114 nbx 5 15 -10 10 0 0 \$0-y-shear \$0-set-y-shear empty
0 -8 0 11 -262144 -1 -1 -0.87 256;
#X obj 98 114 cnv 15 58 15 empty \$0-y-shear-display -0.87 2 9 0 14
-204786 -1 0;
#X obj 96 114 cnv 1 1 15 empty empty Y -10 9 2 12 -204786 -228856 0
;
#X obj 98 133 nbx 5 15 -10 10 0 0 \$0-z-shear \$0-set-z-shear empty
0 -8 0 11 -262144 -1 -1 0 256;
#X obj 98 133 cnv 15 58 15 empty \$0-z-shear-display 0.00 2 9 0 14
-204786 -1 0;
#X obj 96 133 cnv 1 1 15 empty empty Z -10 9 2 12 -204786 -228856 0
;
#X obj 81 151 cnv 1 7 1 empty empty empty 20 12 0 14 -262144 -66577
0;
#X obj 168 151 cnv 1 7 1 empty empty empty 20 12 0 14 -262144 -66577
0;
#X obj 274 537 osci/shear~ 0 x, f 33;
#X obj 274 460 osci/shear~ 0 z;
#X obj 274 494 osci/shear~ 0 y, f 22;
#N canvas 308 282 450 300 x-shear-display 0;
#X msg 130 105 label \$1;
#X obj 130 81 makefilename %.2f;
#X obj 130 129 s \$0-x-shear-display;
#X obj 130 57 r \$0-x-shear;
#X connect 0 0 2 0;
#X connect 1 0 0 0;
#X connect 3 0 1 0;
#X restore 923 154 pd x-shear-display;
#N canvas 0 23 450 300 y-shear-display 0;
#X msg 130 105 label \$1;
#X obj 130 81 makefilename %.2f;
#X obj 130 129 s \$0-y-shear-display;
#X obj 130 57 r \$0-y-shear;
#X connect 0 0 2 0;
#X connect 1 0 0 0;
#X connect 3 0 1 0;
#X restore 923 175 pd y-shear-display;
#N canvas 0 23 450 300 z-shear-display 0;
#X msg 130 105 label \$1;
#X obj 130 81 makefilename %.2f;
#X obj 130 129 s \$0-z-shear-display;
#X obj 130 57 r \$0-z-shear;
#X connect 0 0 2 0;
#X connect 1 0 0 0;
#X connect 3 0 1 0;
#X restore 923 196 pd z-shear-display;
#X obj 693 475 osci/n~;
#X obj 897 441 osci/n~;
#X obj 852 302 r \$0-z-shear-sig-select;
#X obj 648 303 r \$0-y-shear-sig-select;
#X obj 457 323 r \$0-x-shear-sig-select;
#X obj 693 333 inlet~ y-shear;
#X obj 502 352 inlet~ x-shear;
#X obj 569 376 r \$0-x-shear;
#X obj 760 356 r \$0-y-shear;
#X obj 964 355 r \$0-z-shear;
#X obj 897 331 inlet~ z-shear;
#X obj 923 21 else/initmess \; \$0-set-x-shear 0 \; \$0-set-y-shear
0 \; \$0-set-z-shear 0 \; \$0-set-x-shear-sig-select 1 \; \$0-set-y-shear-sig-select
1 \; \$0-set-z-shear-sig-select 1 \; \$0-set-menu-tgl 1 \; \$0-set-bypass
0 \;;
#X obj 146 192 r \$0-bypass;
#X obj 176 286 expr 1-$f1;
#X obj 128 330 *~;
#X obj 158 330 *~;
#X obj 306 286 expr 1-$f1;
#X obj 258 330 *~;
#X obj 288 330 *~;
#X obj 436 286 expr 1-$f1;
#X obj 388 330 *~;
#X obj 418 330 *~;
#X obj 406 211 osci/n;
#X obj 276 211 osci/n;
#X obj 146 211 osci/n;
#X msg 694 103 coords -1 -1 1 1 96 \$1 2 80 75;
#X obj 164 81 tgl 9 0 \$0-bypass \$0-set-bypass empty 17 7 0 10 -258699
-258699 -1 1 1;
#N canvas 340 185 450 300 bypass-gui 0;
#X obj 119 181 s \$0-set-bypass;
#X msg 119 132 13;
#X msg 151 132 16;
#X obj 119 108 sel 1;
#X obj 119 85 r \$0-bypass;
#X msg 119 157 color \$1 13 22;
#X connect 1 0 5 0;
#X connect 2 0 5 0;
#X connect 3 0 1 0;
#X connect 3 1 2 0;
#X connect 4 0 3 0;
#X connect 5 0 0 0;
#X restore 923 217 pd bypass-gui;
#X obj 81 76 cnv 1 7 1 empty empty empty 20 12 0 14 -262144 -66577
0;
#X obj 97 76 cnv 1 7 1 empty empty empty 20 12 0 14 -262144 -66577
0;
#X obj 115 76 cnv 1 7 1 empty empty empty 20 12 0 14 -262144 -66577
0;
#X obj 133 76 cnv 1 7 1 empty empty empty 20 12 0 14 -262144 -66577
0;
#X obj 151 76 cnv 1 7 1 empty empty empty 20 12 0 14 -262144 -66577
0;
#X obj 168 76 cnv 1 7 1 empty empty empty 20 12 0 14 -262144 -66577
0;
#X obj 124 151 cnv 1 7 1 empty empty empty 20 12 0 14 -262144 -66577
0;
#X connect 1 0 2 0;
#X connect 2 0 9 0;
#X connect 2 1 10 0;
#X connect 3 0 5 0;
#X connect 3 1 4 0;
#X connect 5 0 6 0;
#X connect 9 0 71 0;
#X connect 10 0 71 0;
#X connect 11 0 60 0;
#X connect 11 0 61 0;
#X connect 12 0 63 0;
#X connect 12 0 64 0;
#X connect 13 0 66 0;
#X connect 13 0 67 0;
#X connect 17 0 18 1;
#X connect 18 0 40 3;
#X connect 19 0 18 0;
#X connect 23 0 24 1;
#X connect 24 0 46 0;
#X connect 25 0 24 0;
#X connect 26 0 27 1;
#X connect 27 0 47 0;
#X connect 28 0 27 0;
#X connect 40 0 14 0;
#X connect 40 1 15 0;
#X connect 40 2 16 0;
#X connect 41 0 42 0;
#X connect 41 1 42 1;
#X connect 41 2 42 2;
#X connect 42 0 40 0;
#X connect 42 1 40 1;
#X connect 42 2 40 2;
#X connect 46 0 42 3;
#X connect 47 0 41 3;
#X connect 48 0 28 0;
#X connect 49 0 25 0;
#X connect 50 0 19 0;
#X connect 51 0 24 0;
#X connect 52 0 18 0;
#X connect 53 0 17 0;
#X connect 54 0 23 0;
#X connect 55 0 26 0;
#X connect 56 0 27 0;
#X connect 58 0 68 0;
#X connect 58 0 69 0;
#X connect 58 0 70 0;
#X connect 59 0 61 1;
#X connect 60 0 14 0;
#X connect 61 0 41 0;
#X connect 62 0 64 1;
#X connect 63 0 15 0;
#X connect 64 0 41 1;
#X connect 65 0 67 1;
#X connect 66 0 16 0;
#X connect 67 0 41 2;
#X connect 68 0 65 0;
#X connect 68 0 66 1;
#X connect 69 0 62 0;
#X connect 69 0 63 1;
#X connect 70 0 59 0;
#X connect 70 0 60 1;
#X connect 71 0 3 0;
#X coords -1 -1 1 1 96 78 2 80 75;
