#N canvas -1215 6 989 580 10;
#X obj 149 273 *~;
#X obj 149 204 *~;
#X obj 149 327 *~;
#X obj 452 282 *~;
#X obj 149 381 +~;
#X obj 452 365 *~;
#X obj 24 422 *~;
#X obj 149 442 *~;
#X obj 24 225 osci/map~ 0 1 -1 1;
#X obj 24 443 +~;
#X obj 24 464 -~ 1;
#X obj 148 533 outlet~ y;
#X obj 23 533 outlet~ x;
#X obj 149 172 n~;
#X obj 603 204 n~;
#X obj 382 188 n~;
#X obj 382 266 n~;
#X obj 603 311 n~;
#X obj 36 54 inlet freq;
#X obj 755 87 inlet n_shrooms;
#X obj 755 138 s \$0-n_shrooms;
#X obj 81 95 inlet~ size;
#X obj 81 385 n~;
#X obj 494 134 inlet~ spread;
#X obj 164 121 inlet~ n_spirals;
#X obj 216 143 inlet~ width;
#X obj 642 140 inlet~ head_size;
#X obj 24 29 inlet~ driver;
#X obj 36 75 s \$0-freq;
#X obj 467 81 inlet~ speed;
#X obj 24 156 n~;
#X obj 755 112 int;
#X obj 467 102 +~ 1;
#X obj 149 225 osci/circle~ 0 0 1;
#X obj 254 273 *~;
#X obj 254 327 *~;
#X obj 254 381 +~;
#X obj 254 432 *~;
#X obj 521 282 *~;
#X obj 521 365 *~;
#X obj 254 533 outlet~ z;
#N canvas 0 23 450 300 n_shrooms 0;
#X obj 47 218 phasor~;
#X obj 47 197 *~;
#X obj 63 176 /;
#X obj 63 58 t b f;
#X obj 63 147 f;
#X obj 70 116 r \$0-freq;
#X obj 63 37 r \$0-n_shrooms;
#X obj 47 238 osci/circle~ 0 0 1;
#X obj 50 13 inlet~ speed;
#X obj 47 259 outlet~;
#X obj 152 259 outlet~;
#X connect 0 0 7 0;
#X connect 1 0 0 0;
#X connect 2 0 1 1;
#X connect 3 0 4 0;
#X connect 3 1 2 1;
#X connect 4 0 2 0;
#X connect 5 0 4 0;
#X connect 6 0 3 0;
#X connect 7 0 9 0;
#X connect 7 1 10 0;
#X connect 8 0 1 0;
#X restore 467 236 pd n_shrooms;
#N canvas 0 23 450 300 head 0;
#X obj 33 226 *~;
#X obj 33 95 *~;
#X obj 33 153 osci/map~ 0 1 0.25 0;
#N canvas 0 23 330 393 sub 0;
#X obj 21 292 *~;
#X obj 21 27 inlet~;
#X obj 21 341 outlet~;
#X obj 73 341 outlet~;
#X obj 73 260 clip~ 0 1;
#X obj 21 138 -~;
#X obj 73 188 expr~ $v1*(1-$v1)*999999;
#X obj 86 28 inlet~;
#X obj 21 110 min~;
#X obj 21 69 max~;
#X obj 86 94 +~ 1;
#X connect 0 0 2 0;
#X connect 1 0 9 0;
#X connect 4 0 0 1;
#X connect 4 0 3 0;
#X connect 5 0 0 0;
#X connect 5 0 6 0;
#X connect 6 0 4 0;
#X connect 7 0 10 0;
#X connect 7 0 9 1;
#X connect 7 0 5 1;
#X connect 8 0 5 0;
#X connect 9 0 8 0;
#X connect 10 0 8 1;
#X restore 33 124 pd sub;
#X obj 33 178 else/sin~;
#X obj 66 95 -~ 1;
#X obj 33 35 inlet~ driver;
#X obj 48 57 inlet~ head_size;
#X obj 33 247 outlet~;
#X connect 0 0 8 0;
#X connect 1 0 3 0;
#X connect 2 0 4 0;
#X connect 3 0 2 0;
#X connect 3 1 0 1;
#X connect 4 0 0 0;
#X connect 5 0 3 1;
#X connect 6 0 1 0;
#X connect 7 0 5 0;
#X connect 7 0 1 1;
#X restore 603 236 pd head;
#X text 457 407 Dependencies osci \, else;
#X text 412 446 This is Jerobeam Fenderson's code for creating mushrooms.
I've refactored the code so that it's more readable. There's been some
slight changes to how it's controlled but is otherwise the same.;
#X connect 0 0 2 0;
#X connect 1 0 33 0;
#X connect 2 0 4 0;
#X connect 3 0 5 0;
#X connect 4 0 7 0;
#X connect 5 0 4 1;
#X connect 6 0 9 0;
#X connect 7 0 12 0;
#X connect 8 0 6 0;
#X connect 9 0 10 0;
#X connect 10 0 11 0;
#X connect 13 0 1 0;
#X connect 13 0 15 0;
#X connect 14 0 42 0;
#X connect 15 0 16 0;
#X connect 15 0 14 0;
#X connect 16 0 3 0;
#X connect 16 0 38 0;
#X connect 17 0 2 1;
#X connect 17 0 35 1;
#X connect 18 0 28 0;
#X connect 19 0 31 0;
#X connect 21 0 22 0;
#X connect 22 0 6 1;
#X connect 22 0 9 1;
#X connect 22 0 7 1;
#X connect 22 0 37 1;
#X connect 23 0 5 1;
#X connect 23 0 39 1;
#X connect 24 0 1 1;
#X connect 25 0 0 1;
#X connect 25 0 34 1;
#X connect 26 0 42 1;
#X connect 27 0 30 0;
#X connect 29 0 32 0;
#X connect 30 0 8 0;
#X connect 30 0 13 0;
#X connect 31 0 20 0;
#X connect 32 0 41 0;
#X connect 33 0 0 0;
#X connect 33 1 34 0;
#X connect 34 0 35 0;
#X connect 35 0 36 0;
#X connect 36 0 37 0;
#X connect 37 0 40 0;
#X connect 38 0 39 0;
#X connect 39 0 36 1;
#X connect 41 0 3 1;
#X connect 41 1 38 1;
#X connect 42 0 17 0;
#X coords 0 580 1 579 400 230 0;
