#N canvas 557 248 565 316 12;
#N canvas 0 23 835 401 guts 0;
#X obj 129 41 symbol \$1;
#X obj 466 126 makefilename %s-x;
#X obj 466 214 s \$0-this;
#X obj 129 65 t s s s;
#X obj 226 213 s \$0-this;
#X obj 26 205 s \$0-this;
#X obj 226 125 makefilename %s-y;
#X obj 26 117 makefilename %s-z;
#X obj 129 17 else/loadbanger -init;
#X msg 226 149 obj 210 100 inlet~ \, obj 210 130 send~ \$1 \, connect
4 0 5 0, f 22;
#X msg 26 141 obj 410 100 inlet~ \, obj 410 130 send~ \$1 \, connect
6 0 7 0, f 22;
#X msg 466 150 obj 10 100 inlet~ \, obj 10 130 send~ \$1 \, connect
2 0 3 0, f 21;
#X connect 0 0 3 0;
#X connect 1 0 11 0;
#X connect 3 0 7 0;
#X connect 3 1 6 0;
#X connect 3 2 1 0;
#X connect 6 0 9 0;
#X connect 7 0 10 0;
#X connect 8 0 0 0;
#X connect 9 0 4 0;
#X connect 10 0 5 0;
#X connect 11 0 2 0;
#X restore 20 12 pd guts;
#X obj 20 38 namecanvas \$0-this;
