#N canvas 258 170 830 391 12;
#X obj 253 70 inlet~ x-min;
#X obj 288 99 inlet~ x-max;
#X obj 5 172 outlet~ x;
#X obj 392 172 outlet~ y;
#X obj 5 5 inlet~ freq x;
#X obj 103 5 inlet~ freq y;
#X obj 21 267 cnv 15 167 43 empty body empty 18 12 0 14 #f3f1eb #404040
0;
#X obj 21 251 cnv 15 167 15 empty h1 osci/splitter~ 3 8 0 11 #283032
#ece6d0 0;
#X obj 220 41 inlet~ pw-x;
#X obj 201 5 inlet~ freq z;
#X obj 26 277 cnv 10 10 10 empty \$0-label Linking\ Frequency:\ Z -1
0 0 11 #f3f1eb #596c6e 0;
#X obj 622 172 outlet~ z;
#X obj 418 249 r \$0-link-freq;
#X obj 469 41 inlet~ pw-y;
#X obj 486 70 inlet~ y-min;
#X obj 503 99 inlet~ y-max;
#X obj 710 70 inlet~ z-min;
#X obj 697 41 inlet~ pw-z;
#X obj 725 99 inlet~ z-max;
#X obj 21 251 cnv 2 7 2 empty empty empty 20 12 0 14 #ece6d0 #404040
0;
#X obj 21 308 cnv 2 7 2 empty empty empty 20 12 0 14 #596c6e #404040
0;
#X obj 418 273 b;
#X obj 392 41 osci/n~ 3;
#X obj 622 41 osci/n~ 3;
#X obj 418 300 else/initmess \; \$0-set-phase-x 0 0 \; \$0-set-phase-y
0.33 0 \; \$0-set-phase-z 0.66 0 \;;
#X obj 543 251 else/initmess \; \$0-set-link-freq 0 \;;
#N canvas 407 238 646 360 x_wave 0;
#X obj 126 199 unpack f f;
#X obj 126 175 r \$0-set-phase-x;
#X obj 457 27 inlet~ x-min;
#X obj 551 27 inlet~ x-max;
#X obj 35 279 osci/map~ -1 1 -1 1;
#X obj 364 27 inlet~ pw-x;
#X obj 35 66 r \$0-link-freq;
#X obj 35 90 + 1, f 4;
#X obj 35 123 else/xselect~ 4;
#X obj 35 225 else/square~ 0 0.5 0;
#X obj 35 325 outlet~;
#X obj 88 27 inlet~ x;
#X obj 226 27 inlet~ z;
#X obj 156 27 inlet~ y;
#X connect 0 0 9 2;
#X connect 0 1 9 3;
#X connect 1 0 0 0;
#X connect 2 0 4 3;
#X connect 3 0 4 4;
#X connect 4 0 10 0;
#X connect 5 0 9 1;
#X connect 6 0 7 0;
#X connect 7 0 8 0;
#X connect 8 0 9 0;
#X connect 9 0 4 0;
#X connect 11 0 8 0;
#X connect 11 0 8 1;
#X connect 12 0 8 3;
#X connect 13 0 8 2;
#X restore 5 137 pd x_wave;
#X f 14;
#N canvas 328 260 646 360 y_wave 0;
#X obj 126 199 unpack f f;
#X obj 35 279 osci/map~ -1 1 -1 1;
#X obj 35 66 r \$0-link-freq;
#X obj 35 90 + 1, f 4;
#X obj 35 123 else/xselect~ 4;
#X obj 35 225 else/square~ 0 0.5 0;
#X obj 35 325 outlet~;
#X obj 88 27 inlet~ x;
#X obj 226 27 inlet~ z;
#X obj 156 27 inlet~ y;
#X obj 126 175 r \$0-set-phase-y;
#X obj 364 27 inlet~ pw-y;
#X obj 457 27 inlet~ y-min;
#X obj 551 27 inlet~ y-max;
#X connect 0 0 5 2;
#X connect 0 1 5 3;
#X connect 1 0 6 0;
#X connect 2 0 3 0;
#X connect 3 0 4 0;
#X connect 4 0 5 0;
#X connect 5 0 1 0;
#X connect 7 0 4 1;
#X connect 8 0 4 3;
#X connect 9 0 4 2;
#X connect 9 0 4 0;
#X connect 10 0 0 0;
#X connect 11 0 5 1;
#X connect 12 0 1 3;
#X connect 13 0 1 4;
#X restore 392 137 pd y_wave;
#X f 14;
#N canvas 328 260 646 360 z_wave 0;
#X obj 126 199 unpack f f;
#X obj 35 279 osci/map~ -1 1 -1 1;
#X obj 35 66 r \$0-link-freq;
#X obj 35 90 + 1, f 4;
#X obj 35 123 else/xselect~ 4;
#X obj 35 225 else/square~ 0 0.5 0;
#X obj 35 325 outlet~;
#X obj 88 27 inlet~ x;
#X obj 226 27 inlet~ z;
#X obj 156 27 inlet~ y;
#X obj 126 175 r \$0-set-phase-y;
#X obj 364 27 inlet~ pw-y;
#X obj 457 27 inlet~ y-min;
#X obj 551 27 inlet~ y-max;
#X connect 0 0 5 2;
#X connect 0 1 5 3;
#X connect 1 0 6 0;
#X connect 2 0 3 0;
#X connect 3 0 4 0;
#X connect 4 0 5 0;
#X connect 5 0 1 0;
#X connect 7 0 4 1;
#X connect 8 0 4 3;
#X connect 9 0 4 2;
#X connect 9 0 4 0;
#X connect 10 0 0 0;
#X connect 11 0 5 1;
#X connect 12 0 1 3;
#X connect 13 0 1 4;
#X restore 622 137 pd z_wave;
#X f 14;
#X obj 181 251 cnv 2 7 2 empty empty empty 20 12 0 14 #ece6d0 #404040
0;
#X obj 26 289 hradio 14 1 0 4 \$0-link-freq \$0-set-link-freq empty
-1 -10 0 12 #595c5f #b1d383 #c5b18d 0;
#N canvas 614 149 256 250 gui 0;
#X obj 18 17 inlet;
#X obj 18 45 sel 0 1 2 3;
#X obj 18 207 s \$0-label;
#X msg 18 181 label Linking\\\ Frequency:\\\ \$1;
#X msg 18 149 symbol None;
#X msg 34 124 symbol X;
#X msg 50 99 symbol Y;
#X msg 66 74 symbol Z;
#X connect 0 0 1 0;
#X connect 1 0 4 0;
#X connect 1 1 5 0;
#X connect 1 2 6 0;
#X connect 1 3 7 0;
#X connect 3 0 2 0;
#X connect 4 0 3 0;
#X connect 5 0 3 0;
#X connect 6 0 3 0;
#X connect 7 0 3 0;
#X restore 355 280 pd gui;
#X obj 101 308 cnv 2 7 2 empty empty empty 20 12 0 14 #596c6e #404040
0;
#X obj 181 308 cnv 2 7 2 empty empty empty 20 12 0 14 #596c6e #404040
0;
#X obj 38 251 cnv 2 7 2 empty empty empty 20 12 0 14 #ece6d0 #404040
0;
#X obj 52 251 cnv 2 7 2 empty empty empty 20 12 0 14 #ece6d0 #404040
0;
#X obj 66 251 cnv 2 7 2 empty empty empty 20 12 0 14 #ece6d0 #404040
0;
#X obj 80 251 cnv 2 7 2 empty empty empty 20 12 0 14 #ece6d0 #404040
0;
#X obj 94 251 cnv 2 7 2 empty empty empty 20 12 0 14 #ece6d0 #404040
0;
#X obj 107 251 cnv 2 7 2 empty empty empty 20 12 0 14 #ece6d0 #404040
0;
#X obj 121 251 cnv 2 7 2 empty empty empty 20 12 0 14 #ece6d0 #404040
0;
#X obj 135 251 cnv 2 7 2 empty empty empty 20 12 0 14 #ece6d0 #404040
0;
#X obj 149 251 cnv 2 7 2 empty empty empty 20 12 0 14 #ece6d0 #404040
0;
#X obj 163 251 cnv 2 7 2 empty empty empty 20 12 0 14 #ece6d0 #404040
0;
#X connect 0 0 26 4;
#X connect 1 0 26 5;
#X connect 4 0 22 0;
#X connect 4 0 23 0;
#X connect 4 0 26 0;
#X connect 5 0 22 1;
#X connect 5 0 23 1;
#X connect 5 0 26 1;
#X connect 8 0 26 3;
#X connect 9 0 22 2;
#X connect 9 0 23 2;
#X connect 9 0 26 2;
#X connect 12 0 21 0;
#X connect 12 0 31 0;
#X connect 13 0 27 3;
#X connect 14 0 27 4;
#X connect 15 0 27 5;
#X connect 16 0 28 4;
#X connect 17 0 28 3;
#X connect 18 0 28 5;
#X connect 21 0 24 0;
#X connect 22 0 27 0;
#X connect 22 1 27 1;
#X connect 22 2 27 2;
#X connect 23 0 28 0;
#X connect 23 1 28 1;
#X connect 23 2 28 2;
#X connect 26 0 2 0;
#X connect 27 0 3 0;
#X connect 28 0 11 0;
#X coords 0 -1 1 1 169 61 2 20 250;
