#N canvas 531 318 655 332 12;
#X obj 57 49 inlet~;
#X obj 107 49 inlet~;
#X obj 179 17 loadbang;
#X obj 179 41 symbol \$1;
#X msg 179 119 set \$1;
#X obj 57 182 throw~;
#X obj 107 182 throw~;
#X obj 179 95 makefilename %s-x;
#X obj 306 95 makefilename %s-y;
#X obj 432 95 makefilename %s-z;
#X msg 306 119 set \$1;
#X msg 432 119 set \$1;
#X obj 7 49 inlet~;
#X obj 7 182 throw~;
#X connect 0 0 5 0;
#X connect 1 0 6 0;
#X connect 2 0 3 0;
#X connect 3 0 7 0;
#X connect 3 0 8 0;
#X connect 3 0 9 0;
#X connect 4 0 13 0;
#X connect 7 0 4 0;
#X connect 8 0 10 0;
#X connect 9 0 11 0;
#X connect 10 0 5 0;
#X connect 11 0 6 0;
#X connect 12 0 13 0;
