#N canvas 107 98 974 516 12;
#X obj 5 295 else/square~ 0 0.5 0;
#X obj 714 5 r \$0-reset;
#X obj 50 208 r \$0-pulse-width-x;
#X obj 96 261 unpack f f;
#X obj 96 237 r \$0-set-phase-x;
#X obj 350 274 unpack f f;
#X obj 350 250 r \$0-set-phase-y;
#X obj 296 222 r \$0-pulse-width-y;
#X obj 245 299 else/square~ 0 0.5 0.25;
#X obj 275 5 inlet~ x-min;
#X obj 365 5 inlet~ x-max;
#X obj 531 5 inlet~ y-min;
#X obj 621 5 inlet~ y-max;
#X obj 5 342 outlet~ x;
#X obj 5 319 osci/map~ -1 1 -1 1;
#X obj 245 322 osci/map~ -1 1 -1 1;
#X obj 245 346 outlet~ y;
#X obj 245 192 xselect~ 2;
#X obj 245 135 r \$0-link-freq;
#X obj 245 159 + 1;
#X obj 5 5 inlet~ freq x;
#X obj 102 5 inlet~ freq y;
#X obj 199 5 inlet pw-x;
#X obj 455 5 inlet pw-y;
#X obj 601 201 cnv 15 78 16 empty header xy_splitter~ 2 8 0 9 -37450
-228856 0;
#X obj 601 218 cnv 15 78 36 empty primary-bg empty 20 12 0 14 -99865
-66577 0;
#X obj 659 219 bng 15 250 50 0 \$0-reset \$0-reset-r Reset -55 7 0
10 -232576 -159808 -228856;
#X obj 659 236 tgl 15 0 \$0-link-freq \$0-set-link-freq Link\ Freq
-55 7 0 10 -232576 -159808 -228856 0 1;
#X obj 745 182 r gui-ctrls;
#X obj 745 206 s \$0-reset;
#X obj 745 229 s \$0-set-link-freq;
#X obj 601 253 cnv 1 7 1 empty gui-sig-outlet empty 20 12 0 14 -262144
-66577 0;
#X obj 672 253 cnv 1 7 1 empty gui-sig-outlet empty 20 12 0 14 -262144
-66577 0;
#X obj 601 201 cnv 1 7 1 empty gui-sig-inlet empty 20 12 0 14 -262144
-66577 0;
#X obj 631 201 cnv 1 7 1 empty gui-sig-inlet empty 20 12 0 14 -262144
-66577 0;
#X obj 611 201 cnv 1 7 1 empty gui-sig-inlet empty 20 12 0 14 -262144
-66577 0;
#X obj 621 201 cnv 1 7 1 empty gui-sig-inlet empty 20 12 0 14 -262144
-66577 0;
#X obj 651 201 cnv 1 7 1 empty gui-sig-inlet empty 20 12 0 14 -262144
-66577 0;
#X obj 641 201 cnv 1 7 1 empty gui-sig-inlet empty 20 12 0 14 -262144
-66577 0;
#X obj 672 201 cnv 1 7 1 empty gui-sig-inlet empty 20 12 0 14 -262144
-66577 0;
#X obj 661 201 cnv 1 7 1 empty gui-sig-inlet empty 20 12 0 14 -262144
-66577 0;
#X obj 714 28 initmess \; \$0-set-link-freq 0 \; \$0-pulse-width-x
0.5 \; \$0-pulse-width-y 0.5 \; \$0-set-phase-x 0 0 \; \$0-set-phase-y
0.25 0;
#X connect 0 0 14 0;
#X connect 1 0 41 0;
#X connect 2 0 0 1;
#X connect 3 0 0 2;
#X connect 3 1 0 3;
#X connect 4 0 3 0;
#X connect 5 0 8 2;
#X connect 5 1 8 3;
#X connect 6 0 5 0;
#X connect 7 0 8 1;
#X connect 8 0 15 0;
#X connect 9 0 14 3;
#X connect 10 0 14 4;
#X connect 11 0 15 3;
#X connect 12 0 15 4;
#X connect 14 0 13 0;
#X connect 15 0 16 0;
#X connect 17 0 8 0;
#X connect 18 0 19 0;
#X connect 19 0 17 0;
#X connect 20 0 0 0;
#X connect 20 0 17 1;
#X connect 21 0 17 0;
#X connect 22 0 0 1;
#X connect 23 0 8 1;
#X connect 28 0 29 0;
#X connect 28 0 30 0;
#X coords 0 -1 1 1 80 55 2 600 200;
