#N canvas 0 23 925 588 12;
#X obj 678 12 inlet~ max;
#X obj 38 238 *~ -1;
#N canvas 0 23 450 300 clamp~ 0;
#X obj 23 131 max~ 0.01;
#X obj 23 176 min~;
#X obj 23 39 inlet~ value;
#X obj 23 230 outlet~;
#X obj 48 92 max~ 0.01;
#X text 126 92 // don't let max be less than min;
#X obj 48 68 inlet~ max;
#X connect 0 0 1 0;
#X connect 1 0 3 0;
#X connect 2 0 0 0;
#X connect 4 0 1 1;
#X connect 6 0 4 0;
#X restore 443 205 pd clamp~;
#X text 516 204 // todo write my own clamp obj;
#X obj 503 169 -~ 0.01;
#N canvas 0 23 556 322 x-zoom 0;
#X msg 106 78 mirror \$1;
#X msg 40 76 mod \$1;
#X obj 21 137 osci/chris_clip~ -1 1;
#X obj 21 221 *~;
#X obj 221 136 expr~ if($v1 != 0 && abs($v1) <= $v2 \, $v2 / abs($v1)
\, 0), f 37;
#X obj 40 44 r \$0-mod;
#X obj 106 52 r \$0-mirror;
#X obj 21 12 inlet~;
#X obj 93 12 inlet~;
#X obj 165 12 inlet~;
#X obj 477 12 inlet~;
#X obj 21 275 outlet~;
#X connect 0 0 2 0;
#X connect 1 0 2 0;
#X connect 2 0 3 0;
#X connect 3 0 11 0;
#X connect 4 0 3 1;
#X connect 5 0 1 0;
#X connect 6 0 0 0;
#X connect 7 0 2 0;
#X connect 8 0 2 1;
#X connect 9 0 2 2;
#X connect 9 0 4 0;
#X connect 10 0 4 1;
#X restore 11 393 pd x-zoom;
#X f 12;
#X obj 11 531 outlet~ x;
#X obj 121 12 inlet~ y;
#X obj 331 12 inlet~ z;
#N canvas 0 23 556 322 y-zoom 0;
#X msg 106 78 mirror \$1;
#X msg 40 76 mod \$1;
#X obj 21 137 osci/chris_clip~ -1 1;
#X obj 21 221 *~;
#X obj 221 136 expr~ if($v1 != 0 && abs($v1) <= $v2 \, $v2 / abs($v1)
\, 0), f 37;
#X obj 40 44 r \$0-mod;
#X obj 106 52 r \$0-mirror;
#X obj 21 12 inlet~;
#X obj 93 12 inlet~;
#X obj 165 12 inlet~;
#X obj 477 12 inlet~;
#X obj 21 275 outlet~;
#X connect 0 0 2 0;
#X connect 1 0 2 0;
#X connect 2 0 3 0;
#X connect 3 0 11 0;
#X connect 4 0 3 1;
#X connect 5 0 1 0;
#X connect 6 0 0 0;
#X connect 7 0 2 0;
#X connect 8 0 2 1;
#X connect 9 0 2 2;
#X connect 9 0 4 0;
#X connect 10 0 4 1;
#X restore 121 393 pd y-zoom;
#X f 21;
#N canvas 0 23 556 322 z-zoom 0;
#X msg 106 78 mirror \$1;
#X msg 40 76 mod \$1;
#X obj 21 137 osci/chris_clip~ -1 1;
#X obj 21 221 *~;
#X obj 221 136 expr~ if($v1 != 0 && abs($v1) <= $v2 \, $v2 / abs($v1)
\, 0), f 37;
#X obj 40 44 r \$0-mod;
#X obj 106 52 r \$0-mirror;
#X obj 21 12 inlet~;
#X obj 93 12 inlet~;
#X obj 165 12 inlet~;
#X obj 477 12 inlet~;
#X obj 21 275 outlet~;
#X connect 0 0 2 0;
#X connect 1 0 2 0;
#X connect 2 0 3 0;
#X connect 3 0 11 0;
#X connect 4 0 3 1;
#X connect 5 0 1 0;
#X connect 6 0 0 0;
#X connect 7 0 2 0;
#X connect 8 0 2 1;
#X connect 9 0 2 2;
#X connect 9 0 4 0;
#X connect 10 0 4 1;
#X restore 331 393 pd z-zoom;
#X f 12;
#X obj 331 531 outlet~ z;
#X obj 121 531 outlet~ y;
#X obj 65 358 osci/n~;
#X obj 217 358 osci/n~;
#X obj 144 280 osci/n~;
#X obj 358 288 osci/n~;
#X obj 412 358 osci/n~;
#X obj 678 128 osci/n~;
#X text 472 348 // these cables are ugly \, but I think this is the
best pd can do.;
#X obj 443 12 inlet~ zoom;
#X obj 11 12 inlet~ fwd;
#X obj 138 60 route mod mirror;
#X obj 138 114 s \$0-mod;
#X obj 192 87 s \$0-mirror;
#X text 481 295 // this would be better written in c \, providing default
args would be alot easier;
#X obj 656 426 else/args;
#X connect 0 0 18 0;
#X connect 1 0 5 1;
#X connect 1 0 15 0;
#X connect 1 0 16 0;
#X connect 2 0 1 0;
#X connect 2 0 10 2;
#X connect 2 0 13 0;
#X connect 2 0 14 0;
#X connect 4 0 2 1;
#X connect 5 0 6 0;
#X connect 7 0 9 0;
#X connect 8 0 10 0;
#X connect 9 0 12 0;
#X connect 10 0 11 0;
#X connect 13 0 5 2;
#X connect 14 0 9 2;
#X connect 15 0 9 1;
#X connect 16 0 10 1;
#X connect 17 0 10 3;
#X connect 17 0 9 3;
#X connect 17 0 5 3;
#X connect 18 0 4 0;
#X connect 18 0 17 0;
#X connect 20 0 2 0;
#X connect 21 0 5 0;
#X connect 21 1 22 0;
#X connect 22 0 23 0;
#X connect 22 1 24 0;
#X coords 0 588 1 587 171 109 0;
