#N canvas -739 62 574 674 12;
#X obj 89 232 cnv 15 3 17 empty empty 0 5 9 0 16 -216373 -141475 0
;
#X obj 89 446 cnv 15 3 17 empty empty 0 5 9 0 16 -216373 -141475 0
;
#X text 107 231 signal;
#X obj 89 260 cnv 15 3 17 empty empty 1 5 9 0 16 -216373 -141475 0
;
#X text 107 259 signal;
#X obj 89 288 cnv 15 3 17 empty empty 2 5 9 0 16 -216373 -141475 0
;
#X text 107 287 signal;
#X text 107 445 signal;
#X obj 17 101 phasor~ 50;
#X obj 122 164 tgl 15 0 empty empty empty 17 7 0 10 -258113 -1 -1 0
1;
#X obj 122 184 switch~;
#X obj 17 125 osci/bezier~ -1 -1 -0.2 3 1 1;
#X obj 89 316 cnv 15 3 17 empty empty 3 5 9 0 16 -216373 -141475 0
;
#X text 107 315 signal;
#X obj 89 344 cnv 15 3 17 empty empty 4 5 9 0 16 -216373 -141475 0
;
#X text 107 343 signal;
#X obj 89 372 cnv 15 3 17 empty empty 5 5 9 0 16 -216373 -141475 0
;
#X text 107 371 signal;
#X obj 89 400 cnv 15 3 17 empty empty 6 5 9 0 16 -216373 -141475 0
;
#X text 107 399 signal;
#X obj 89 474 cnv 15 3 17 empty empty 1 5 9 0 16 -216373 -141475 0
;
#X text 107 473 signal;
#X text 89 512 1) float;
#X text 202 512 x1;
#X text 193 231 - driver;
#X text 193 259 - x1;
#X text 193 287 - y1;
#X text 193 315 - x2;
#X text 193 343 - y2;
#X text 193 371 - x3;
#X text 193 399 - y3;
#X text 202 532 y1;
#X text 202 552 x2;
#X text 202 592 x3;
#X text 202 572 y2;
#X text 202 612 y3;
#X text 89 532 2) float;
#X text 89 552 3) float;
#X text 89 572 4) float;
#X text 89 592 5) float;
#X text 89 612 6) float;
#X obj 17 149 osci/out~;
#X obj 1 1 cnv 15 305 46 empty empty empty 20 12 0 14 -66577 -66577
0;
#X obj 4 3 cnv 15 301 42 empty empty bezier~ 20 20 2 37 -204786 -1
0;
#X obj 307 1 cnv 15 256 46 empty empty empty 20 12 0 14 -66577 -66577
0;
#X obj 310 4 cnv 15 250 40 empty empty empty 12 13 0 18 -128992 -233080
0;
#X obj 317 11 cnv 10 10 10 empty empty OSCI 0 15 2 30 -128992 -204786
0;
#X obj 413 25 cnv 10 10 10 empty empty Oscilloscope 0 6 2 13 -128992
-204786 0;
#X obj 480 25 cnv 10 10 10 empty empty Music 0 6 2 13 -128992 -204786
0;
#X obj 513 25 cnv 10 10 10 empty empty & 0 6 2 13 -128992 -204786 0
;
#X obj 454 11 cnv 10 10 10 empty empty Library 0 6 2 13 -128992 -204786
0;
#X obj 526 25 cnv 10 10 10 empty empty Art 0 6 2 13 -128992 -204786
0;
#X obj 497 11 cnv 10 10 10 empty empty for 0 6 2 13 -128992 -204786
0;
#X obj 10 34 cnv 5 10 10 empty \$0-description Bezier\ curve\ w/\ one\ control\ point
30 30 2 17 -204786 -1 0;
#X text 193 447 - x;
#X text 193 475 - y;
#X obj 2 224 cnv 1 550 1 empty empty inlets 8 12 0 13 -228856 -1 0
;
#X obj 2 430 cnv 1 550 1 empty empty outlets 8 12 0 13 -228856 -1 0
;
#X obj 2 506 cnv 1 550 1 empty empty arguments 8 12 0 13 -228856 -1
0;
#X obj 2 637 cnv 15 552 21 empty empty empty 20 12 0 14 -233017 -33289
0;
#X connect 8 0 11 0;
#X connect 9 0 10 0;
#X connect 11 0 41 0;
#X connect 11 1 41 1;
