#N canvas 253 61 571 539 12;
#X declare -lib osci;
#X obj 89 362 cnv 15 3 17 empty empty 0 5 9 0 16 -216373 -141475 0
;
#X obj 89 436 cnv 15 3 17 empty empty 0 5 9 0 16 -216373 -141475 0
;
#X text 107 361 signal;
#X obj 89 390 cnv 15 3 17 empty empty 1 5 9 0 16 -216373 -141475 0
;
#X text 107 435 signal;
#X text 89 472 1) float;
#X obj 1 1 cnv 15 305 46 empty empty empty 20 12 0 14 -66577 -66577
0;
#X obj 4 3 cnv 15 301 42 empty empty binops 20 20 2 37 -204786 -1 0
;
#X obj 307 1 cnv 15 256 46 empty empty empty 20 12 0 14 -66577 -66577
0;
#X obj 310 4 cnv 15 250 40 empty empty empty 12 13 0 18 -128992 -233080
0;
#X obj 317 11 cnv 10 10 10 empty empty OSCI 0 15 2 30 -128992 -204786
0;
#X obj 413 25 cnv 10 10 10 empty empty Oscilloscope 0 6 2 13 -128992
-204786 0;
#X obj 480 25 cnv 10 10 10 empty empty Music 0 6 2 13 -128992 -204786
0;
#X obj 513 25 cnv 10 10 10 empty empty & 0 6 2 13 -128992 -204786 0
;
#X obj 454 11 cnv 10 10 10 empty empty Library 0 6 2 13 -128992 -204786
0;
#X obj 526 25 cnv 10 10 10 empty empty Art 0 6 2 13 -128992 -204786
0;
#X obj 497 11 cnv 10 10 10 empty empty for 0 6 2 13 -128992 -204786
0;
#X obj 10 34 cnv 5 10 10 empty \$0-description Extra\\\ binary\\\ operators\\\ for\\\ signals
30 30 2 17 -204786 -1 0;
#X obj 2 354 cnv 1 550 1 empty empty inlets 8 12 0 13 -228856 -1 0
;
#X obj 2 420 cnv 1 550 1 empty empty outlets 8 12 0 13 -228856 -1 0
;
#X obj 2 466 cnv 1 550 1 empty empty arguments 8 12 0 13 -228856 -1
0;
#X obj 2 507 cnv 15 552 21 empty empty empty 20 12 0 14 -233017 -33289
0;
#X text 203 361 - a;
#X text 203 389 - b;
#X obj 25 162 ==~;
#X obj 83 268 %~;
#X obj 439 57 declare -lib osci;
#X text 163 472 - value to compare to;
#X obj 25 108 sig~ 0;
#X obj 43 134 sig~ 0;
#X obj 25 186 else/display~;
#X obj 100 108 sig~ 0;
#X obj 100 186 else/display~;
#X obj 100 162 !=~;
#X obj 118 134 sig~ 0.2;
#X obj 191 108 sig~ 0;
#X obj 191 186 else/display~;
#X obj 191 162 <~ 2;
#X floatatom 216 134 5 0 0 0 - - -;
#X text 107 389 signal/float;
#X text 229 253 If a float is provided as an argument for the binary
operator \, the second inlet will take floats instead of signals.,
f 44;
#X obj 256 108 sig~ 0;
#X obj 256 186 else/display~;
#X floatatom 281 134 5 0 0 0 - - -;
#X obj 256 162 >~ 2;
#X obj 335 108 sig~ 0;
#X obj 335 186 else/display~;
#X obj 353 134 sig~ 0.3;
#X obj 335 162 <=~;
#X obj 427 186 else/display~;
#X obj 427 162 >=~;
#X obj 427 108 sig~ -0.0001;
#X obj 445 134 sig~ 0.0001;
#X text 111 268 abbreviation;
#X obj 19 308 else/display~;
#X obj 19 235 phasor~ 0.2;
#X obj 19 259 *~ 4;
#X obj 19 284 mod~ 3;
#X text 163 435 - 0 or 1 \, or result of modulus;
#X connect 24 0 30 0;
#X connect 28 0 24 0;
#X connect 29 0 24 1;
#X connect 31 0 33 0;
#X connect 33 0 32 0;
#X connect 34 0 33 1;
#X connect 35 0 37 0;
#X connect 37 0 36 0;
#X connect 38 0 37 1;
#X connect 41 0 44 0;
#X connect 43 0 44 1;
#X connect 44 0 42 0;
#X connect 45 0 48 0;
#X connect 47 0 48 1;
#X connect 48 0 46 0;
#X connect 50 0 49 0;
#X connect 51 0 50 0;
#X connect 52 0 50 1;
#X connect 55 0 56 0;
#X connect 56 0 57 0;
#X connect 57 0 54 0;
