#N canvas -774 5 580 618 12;
#X obj 89 382 cnv 15 3 17 empty empty 0 5 9 0 16 -216373 -141475 0
;
#X obj 89 486 cnv 15 3 17 empty empty 0 5 9 0 16 -216373 -141475 0
;
#X text 107 381 signal;
#X obj 89 410 cnv 15 3 17 empty empty 1 5 9 0 16 -216373 -141475 0
;
#X text 107 409 signal;
#X obj 89 438 cnv 15 3 17 empty empty 2 5 9 0 16 -216373 -141475 0
;
#X text 107 437 signal;
#X text 107 485 signal;
#X obj 7 81 phasor~ 50;
#X obj 6 245 osci/square~ 0 0 0.5 0.5;
#X floatatom 60 110 5 0 0 0 - - -;
#X obj 60 133 sig~ 0.3;
#X floatatom 115 162 5 0 0 0 - - -;
#X obj 115 185 sig~ 3;
#X obj 6 279 osci/out~;
#X obj 1 1 cnv 15 305 46 empty empty empty 20 12 0 14 -66577 -66577
0;
#X obj 4 3 cnv 15 301 42 empty empty bright~ 20 20 2 37 -204786 -1
0;
#X obj 307 1 cnv 15 256 46 empty empty empty 20 12 0 14 -66577 -66577
0;
#X obj 310 4 cnv 15 250 40 empty empty empty 12 13 0 18 -128992 -233080
0;
#X obj 317 11 cnv 10 10 10 empty empty OSCI 0 15 2 30 -128992 -204786
0;
#X obj 10 34 cnv 5 10 10 empty \$0-description Increase\\\ brightness\\\ at\\\ a\\\ specific\\\ point
30 30 2 17 -204786 -1 0;
#X obj 413 25 cnv 10 10 10 empty empty Oscilloscope 0 6 2 13 -128992
-204786 0;
#X obj 480 25 cnv 10 10 10 empty empty Music 0 6 2 13 -128992 -204786
0;
#X obj 513 25 cnv 10 10 10 empty empty & 0 6 2 13 -128992 -204786 0
;
#X obj 454 11 cnv 10 10 10 empty empty Library 0 6 2 13 -128992 -204786
0;
#X obj 526 25 cnv 10 10 10 empty empty Art 0 6 2 13 -128992 -204786
0;
#X obj 497 11 cnv 10 10 10 empty empty for 0 6 2 13 -128992 -204786
0;
#X obj 1 364 cnv 1 552 1 empty empty inlets 8 12 0 13 -216373 -1 0
;
#X obj 1 467 cnv 1 552 1 empty empty outlets 8 12 0 13 -216373 -1 0
;
#X obj 2 525 cnv 1 552 1 empty empty arguments 8 12 0 13 -216373 -1
0;
#X obj 2 588 cnv 15 552 24 empty empty empty 20 12 0 14 -233017 -33289
0;
#N canvas 263 407 268 162 related_objects 0;
#X obj 7 91 osci/trace~;
#X obj 7 116 osci/dash~;
#X obj 1 1 cnv 15 250 23 empty empty empty 3 12 0 20 -204786 -1 0;
#X obj 137 66 osci/cut_equal~;
#X obj 137 91 osci/cut_weights~;
#X obj 137 116 osci/cut_mix~;
#X text 6 34 Phase Modifiers;
#X text 135 34 Phase Cutters;
#X obj 7 66 osci/knee~;
#X text 8 4 Other phase manipulation objects;
#X restore 16 590 pd related_objects;
#X text 93 533 1) float;
#X text 93 553 2) float;
#X text 193 409 - start (0-1);
#X text 203 533 - start (0-1);
#X text 193 437 - strength (1-N);
#X text 203 553 - strength (1-N);
#X text 198 485 - adjusted phase;
#X text 193 381 - driver (phase) in;
#X text 100 110 controls start point (0-1);
#X text 155 161 controls strength (1-N);
#X obj 6 209 osci/bright~ 1 5;
#X text 192 200 [bright~] controls the brightness at a specific point
by taking the incoming phase and raising it to the Nth power (strength).
By spending more time at this point \, brightness everywhere else is
decreased. [bright~] manipulates phase and needs to come before any
images that are drawn. For a different type of brigthness control check
out [knee~]., f 50;
#X connect 8 0 42 0;
#X connect 9 0 14 0;
#X connect 9 1 14 1;
#X connect 10 0 11 0;
#X connect 11 0 42 1;
#X connect 12 0 13 0;
#X connect 13 0 42 2;
#X connect 42 0 9 0;
