#N canvas -1373 85 588 678 12;
#X obj 1 1 cnv 15 305 46 empty empty empty 20 12 0 14 -66577 -66577
0;
#X obj 4 3 cnv 15 301 42 empty empty chris_clip~ 20 20 2 37 -204786
-1 0;
#X obj 307 1 cnv 15 256 46 empty empty empty 20 12 0 14 -66577 -66577
0;
#X obj 310 4 cnv 15 250 40 empty empty empty 12 13 0 18 -128992 -233080
0;
#X obj 317 11 cnv 10 10 10 empty empty OSCI 0 15 2 30 -128992 -204786
0;
#X obj 413 25 cnv 10 10 10 empty empty Oscilloscope 0 6 2 13 -128992
-204786 0;
#X obj 480 25 cnv 10 10 10 empty empty Music 0 6 2 13 -128992 -204786
0;
#X obj 513 25 cnv 10 10 10 empty empty & 0 6 2 13 -128992 -204786 0
;
#X obj 454 11 cnv 10 10 10 empty empty Library 0 6 2 13 -128992 -204786
0;
#X obj 526 25 cnv 10 10 10 empty empty Art 0 6 2 13 -128992 -204786
0;
#X obj 497 11 cnv 10 10 10 empty empty for 0 6 2 13 -128992 -204786
0;
#X obj 2 414 cnv 1 550 1 empty empty inlets 8 12 0 13 -228856 -1 0
;
#X obj 2 530 cnv 1 550 1 empty empty outlets 8 12 0 13 -228856 -1 0
;
#X obj 2 566 cnv 1 550 1 empty empty arguments 8 12 0 13 -228856 -1
0;
#X obj 121 539 cnv 17 3 17 empty empty 0 5 9 0 16 -228856 -162280 0
;
#X obj 122 422 cnv 17 3 55 empty empty 0 5 9 0 16 -228856 -162280 0
;
#X obj 2 637 cnv 15 552 21 empty empty empty 20 12 0 14 -233017 -33289
0;
#X obj 121 484 cnv 17 3 17 empty empty 1 5 9 0 16 -228856 -162280 0
;
#X obj 121 504 cnv 17 3 17 empty empty 2 5 9 0 16 -228856 -162280 0
;
#X text 165 539 signal -;
#X text 116 575 1) float;
#X text 116 594 2) float;
#X text 226 539 clipped value;
#X text 185 575 - minimum value;
#X text 185 594 - maximum value;
#X obj 3 98 phasor~ 50;
#X obj 3 252 chris_clip~ -1 1;
#X obj 126 252 chris_clip~ -1 1;
#X obj 12 167 tgl 15 0 empty empty empty 17 7 0 10 -262144 -1 -1 0
1;
#X msg 12 187 mirror \$1;
#X obj 89 167 tgl 15 0 empty empty empty 17 7 0 10 -262144 -1 -1 0
1;
#X msg 89 187 mod \$1;
#X obj 3 122 osci/circle~ 0 0 2;
#X obj 3 286 osci/out~;
#X text 163 457 mirror <float> - turns on mirror clipping;
#X obj 10 34 cnv 5 10 10 empty \$0-cnv Multi-Purpose\\\ Clipping 30
30 2 17 -204786 -1 0;
#X text 163 439 mod <float> - turns on modulo clipping;
#X text 163 423 signal - signal to be clipped;
#X text 164 484 float/signal - minimum value;
#X text 163 506 float/signal - maximum value;
#X obj 135 298 chris_clip~-g;
#A saved 0 0 -1 0 1 0 1 0;
#X text 277 241 Additionally there is an optional gui version specified
with the '-g' flag., f 42;
#X text 372 288 [chris_clip~-g];
#X text 277 320 The toggles to the right of the number boxes specify
if the inlet or numberbox is to be used for setting the values. It
also saves the values from it's last use., f 42;
#X text 153 116 [chris_clip~] is a object based off of OsciStudio's
modifier of the same name. In addition to normal clipping \, it has
a modulo option where the signal is wrapped from min to max. Mirror
mode will mirror the clipped signal. When in mirror mode only \, the
maximum value will be considered for clipping. Mirror doesn't take
values <= 0 \, and will instead stop clipping altogether. Both mod
and mirror modes can be active at the same time.;
#X connect 25 0 32 0;
#X connect 26 0 33 0;
#X connect 27 0 33 1;
#X connect 28 0 29 0;
#X connect 29 0 26 0;
#X connect 29 0 27 0;
#X connect 30 0 31 0;
#X connect 31 0 26 0;
#X connect 31 0 27 0;
#X connect 32 0 26 0;
#X connect 32 1 27 0;
