#N canvas 310 54 570 634 12;
#X obj 89 362 cnv 15 3 17 empty empty 0 5 9 0 16 -216373 -141475 0
;
#X text 107 361 signal;
#X obj 89 390 cnv 15 3 17 empty empty 1 5 9 0 16 -216373 -141475 0
;
#X text 107 389 signal;
#X obj 89 418 cnv 15 3 17 empty empty 2 5 9 0 16 -216373 -141475 0
;
#X text 107 417 signal;
#X obj 89 446 cnv 15 3 17 empty empty 3 5 9 0 16 -216373 -141475 0
;
#X text 107 445 signal;
#X text 192 361 - x;
#X text 193 389 - y;
#X text 193 417 - z;
#X text 193 445 - cut_idx;
#X obj 89 486 cnv 15 3 17 empty empty 0 5 9 0 16 -216373 -141475 0
;
#X text 107 485 signal;
#X obj 89 514 cnv 15 3 17 empty empty 1 5 9 0 16 -216373 -141475 0
;
#X text 107 513 signal;
#X obj 89 542 cnv 15 3 17 empty empty 2 5 9 0 16 -216373 -141475 0
;
#X text 107 541 signal;
#X text 192 485 - x;
#X text 193 513 - y;
#X text 193 541 - z;
#X obj 6 185 osci/square~ 0 0 0.5;
#X obj 159 186 osci/square~ 0 0 0.2;
#X obj 6 91 phasor~ 100;
#X obj 6 229 osci/cut_idx~;
#X obj 159 231 osci/cut_idx~;
#X obj 6 268 osci/out~;
#X obj 1 352 cnv 1 552 1 empty empty inlets 8 12 0 13 -216373 -1 0
;
#X obj 1 476 cnv 1 552 1 empty empty outlets 8 12 0 13 -216373 -1 0
;
#X obj 2 573 cnv 1 552 1 empty empty arguments 8 12 0 13 -216373 -1
0;
#X obj 2 594 cnv 15 552 24 empty empty empty 20 12 0 14 -233017 -33289
0;
#X obj 1 1 cnv 15 305 46 empty empty empty 20 12 0 14 -66577 -66577
0;
#X obj 4 3 cnv 15 301 42 empty empty cut_idx~ 20 20 2 37 -204786 -1
0;
#X obj 307 1 cnv 15 256 46 empty empty empty 20 12 0 14 -66577 -66577
0;
#X obj 310 4 cnv 15 250 40 empty empty empty 12 13 0 18 -128992 -233080
0;
#X obj 317 11 cnv 10 10 10 empty empty OSCI 0 15 2 30 -128992 -204786
0;
#X obj 10 34 cnv 5 10 10 empty \$0-description Send\ signal\ if\ true
30 30 2 17 -204786 -1 0;
#X obj 413 25 cnv 10 10 10 empty empty Oscilloscope 0 6 2 13 -128992
-204786 0;
#X obj 480 25 cnv 10 10 10 empty empty Music 0 6 2 13 -128992 -204786
0;
#X obj 454 11 cnv 10 10 10 empty empty Library 0 6 2 13 -128992 -204786
0;
#X obj 497 11 cnv 10 10 10 empty empty for 0 6 2 13 -128992 -204786
0;
#X obj 513 25 cnv 10 10 10 empty empty & 0 6 2 13 -128992 -204786 0
;
#X obj 526 25 cnv 10 10 10 empty empty Art 0 6 2 13 -128992 -204786
0;
#X obj 6 116 osci/cut_equal~ 2;
#X text 120 263 [cut_idx~] takes a 3D signal vector and sends the signal
out only if the cut_idx is true. It is used in conjunction with [cut_equal~]
\, [cut_mix~] \, or [cut_weights~]. [cut_idx~] comes at the end of
the signal chain;
#X connect 21 0 24 0;
#X connect 21 1 24 1;
#X connect 22 0 25 0;
#X connect 22 1 25 1;
#X connect 23 0 43 0;
#X connect 24 0 26 0;
#X connect 24 1 26 1;
#X connect 25 0 26 0;
#X connect 25 1 26 1;
#X connect 43 0 21 0;
#X connect 43 0 24 3;
#X connect 43 1 22 0;
#X connect 43 1 25 3;
