#N canvas 412 53 570 607 12;
#X obj 89 362 cnv 15 3 17 empty empty 0 5 9 0 16 -216373 -141475 0
;
#X obj 89 466 cnv 15 3 17 empty empty 0 5 9 0 16 -216373 -141475 0
;
#X text 107 361 signal;
#X obj 89 390 cnv 15 3 17 empty empty 1 5 9 0 16 -216373 -141475 0
;
#X text 107 389 signal;
#X obj 89 418 cnv 15 3 17 empty empty 2 5 9 0 16 -216373 -141475 0
;
#X text 107 417 signal;
#X text 107 465 signal;
#X obj 16 81 phasor~ 50;
#X obj 16 265 osci/square~ 0 0 0.5 0.5;
#X floatatom 56 116 5 0 0 0 - - -;
#X floatatom 97 168 5 0 0 0 - - -;
#X text 193 361 - phase;
#X obj 16 225 dash~ 50 0.5;
#X text 104 116 number of dashes;
#X text 138 167 dash length;
#X text 193 417 - dash length;
#X text 197 518 - number of dashes;
#X text 89 538 1) float (0-1);
#X text 197 538 - dash length;
#X text 89 518 1) int (1-n);
#X obj 16 289 osci/out~;
#X obj 199 308 s \$0-description;
#X obj 1 1 cnv 15 305 46 empty empty empty 20 12 0 14 -66577 -66577
0;
#X obj 4 3 cnv 15 301 42 empty empty dash~ 20 20 2 37 -204786 -1 0
;
#X obj 307 1 cnv 15 256 46 empty empty empty 20 12 0 14 -66577 -66577
0;
#X obj 310 4 cnv 15 250 40 empty empty empty 12 13 0 18 -128992 -233080
0;
#X obj 317 11 cnv 10 10 10 empty empty OSCI 0 15 2 30 -128992 -204786
0;
#X obj 10 34 cnv 5 10 10 empty \$0-description Turn\ an\ image\ into\ a\ series\ of\ dashes
30 30 2 17 -204786 -1 0;
#X obj 413 25 cnv 10 10 10 empty empty Oscilloscope 0 6 2 13 -128992
-204786 0;
#X obj 480 25 cnv 10 10 10 empty empty Music 0 6 2 13 -128992 -204786
0;
#X obj 513 25 cnv 10 10 10 empty empty & 0 6 2 13 -128992 -204786 0
;
#X obj 454 11 cnv 10 10 10 empty empty Library 0 6 2 13 -128992 -204786
0;
#X obj 526 25 cnv 10 10 10 empty empty Art 0 6 2 13 -128992 -204786
0;
#X obj 497 11 cnv 10 10 10 empty empty for 0 6 2 13 -128992 -204786
0;
#X msg 199 284 label Turn\ an\ image\ into\ a\ series\ of\ dashes;
#X obj 1 352 cnv 1 552 1 empty empty inlets 8 12 0 13 -216373 -1 0
;
#X obj 1 448 cnv 1 552 1 empty empty outlets 8 12 0 13 -216373 -1 0
;
#X obj 2 492 cnv 1 552 1 empty empty arguments 8 12 0 13 -216373 -1
0;
#X obj 2 566 cnv 15 552 24 empty empty empty 20 12 0 14 -233017 -33289
0;
#N canvas 271 151 260 162 related_objects 0;
#X obj 127 64 osci/cut_equal~;
#X obj 127 89 osci/cut_weights~;
#X obj 127 114 osci/cut_mix~;
#X text 6 32 Phase Modifiers;
#X text 122 32 Phase Cutters;
#X obj 7 64 osci/knee~;
#X obj 7 89 osci/bright~;
#X obj 7 114 osci/trace~;
#X obj 1 1 cnv 15 250 23 empty empty empty 3 12 0 20 -204786 -1 0;
#X text 8 4 Other phase manipulation objects;
#X restore 16 569 pd related_objects;
#X text 198 465 - adjusted phase;
#X text 193 389 - number of dashes;
#X obj 56 139 sig~ 50;
#X obj 97 190 sig~ 0.5;
#X connect 8 0 13 0;
#X connect 9 0 21 0;
#X connect 9 1 21 1;
#X connect 10 0 43 0;
#X connect 11 0 44 0;
#X connect 13 0 9 0;
#X connect 35 0 22 0;
#X connect 43 0 13 1;
#X connect 44 0 13 2;
