#N canvas 127 45 430 655 12;
#X declare -lib osci;
#X obj 277 10 declare -lib osci;
#X text 0 335 ============================================================inlets
;
#X text 0 395 ============================================================outlets
;
#X text 0 545 ============================================================arguments
;
#X obj 31 128 loadbang;
#X text -1 615 ========================================================================================================================
;
#X floatatom 161 313 5 0 0 0 - - -;
#X floatatom 175 292 5 0 0 0 - - -;
#X floatatom 190 270 5 0 0 0 - - -;
#X floatatom 205 248 5 0 0 0 - - -;
#X obj 187 119 bng 24 250 50 0 empty empty empty 30 11 0 12 -91412
-174938 -203556;
#X text 214 122 open online documentation;
#N canvas 0 23 450 300 docs 0;
#X obj 2 76 inlet;
#X obj 2 116 else/openfile https://eric-lennartson.github.io/pd-osci/#/date
;
#X connect 0 0 1 0;
#X restore 187 153 pd docs;
#X obj 161 184 osci/date 1;
#X text 16 38 [date] returns the date of the system whenever a bang
is recieved. It has one optional float argument to use the GMT date
instead of the local date. If no argument is specified it defaults
to local date., f 54;
#X text 22 370 1 bang - get date;
#X text 20 579 1 float - local (0) \, gmt (1);
#X text 22 523 6 float - daylight savings (0-1);
#X text 22 504 5 float - day of year;
#X text 22 485 4 float - day of week;
#X text 22 466 3 float - day of month;
#X text 22 447 2 float - month;
#X text 22 430 1 float - year;
#X floatatom 220 227 5 0 0 0 - - -;
#X floatatom 235 206 5 0 0 0 - - -;
#X floatatom 31 313 5 0 0 0 - - -;
#X floatatom 43 292 5 0 0 0 - - -;
#X floatatom 55 270 5 0 0 0 - - -;
#X floatatom 67 248 5 0 0 0 - - -;
#X floatatom 79 227 5 0 0 0 - - -;
#X floatatom 91 206 5 0 0 0 - - -;
#X obj 31 184 osci/date;
#X connect 4 0 13 0;
#X connect 4 0 31 0;
#X connect 10 0 12 0;
#X connect 13 0 6 0;
#X connect 13 1 7 0;
#X connect 13 2 8 0;
#X connect 13 3 9 0;
#X connect 13 4 23 0;
#X connect 13 5 24 0;
#X connect 31 0 25 0;
#X connect 31 1 26 0;
#X connect 31 2 27 0;
#X connect 31 3 28 0;
#X connect 31 4 29 0;
#X connect 31 5 30 0;
