#N canvas -703 37 575 762 12;
#X obj 88 439 cnv 15 3 17 empty empty 0 5 9 0 16 -216373 -141475 0
;
#X obj 88 556 cnv 15 3 17 empty empty 0 5 9 0 16 -216373 -141475 0
;
#X text 106 438 signal;
#X obj 88 460 cnv 15 3 17 empty empty 1 5 9 0 16 -216373 -141475 0
;
#X text 106 459 signal;
#X obj 88 481 cnv 15 3 17 empty empty 2 5 9 0 16 -216373 -141475 0
;
#X text 106 480 signal;
#X obj 88 502 cnv 15 3 17 empty empty 3 5 9 0 16 -216373 -141475 0
;
#X text 106 501 signal;
#X text 106 555 signal;
#X obj 88 583 cnv 15 3 17 empty empty 1 5 9 0 16 -216373 -141475 0
;
#X text 105 582 signal;
#X text 85 644 1) float;
#X text 85 664 2) float;
#X text 85 684 3) float;
#X obj 88 610 cnv 15 3 17 empty empty 2-3-4 5 9 0 16 -216373 -141475
0;
#X text 144 609 signal;
#X obj 5 83 phasor~ 50;
#X obj 5 157 osci/grid~ 3 1 2 0.5, f 28;
#X obj 153 305 *~ 360;
#X obj 153 281 phasor~ 0.1;
#X floatatom 53 126 5 0 0 0 - - -;
#X floatatom 101 126 5 0 0 0 - - -;
#X floatatom 149 126 5 0 0 0 - - -;
#X text 29 106 number of x \, y \, and z rows;
#X floatatom 198 131 5 0 0 0 - - -;
#X text 197 459 - number of x rows;
#X text 197 480 - number of y rows;
#X text 197 501 - number of z rows;
#X obj 88 523 cnv 15 3 17 empty empty 4 5 9 0 16 -216373 -141475 0
;
#X text 106 522 signal;
#X text 197 522 - spacing/spread of objects;
#X text 256 130 spacing/spread;
#X text 197 609 - x \, y \, and z pos;
#X text 197 582 - scale;
#X text 197 664 - number of y rows;
#X text 197 684 - number of z rows;
#X text 197 644 - number of x rows;
#X text 197 704 - spacing;
#X obj 5 309 osci/project~;
#X obj 5 283 osci/rotate~ 0 0 0;
#X obj 5 248 osci/translate~, f 27;
#X obj 5 214 osci/scale~, f 30;
#X obj 5 180 osci/cuboid~ 0 0 0 0.5 0.5 0.5, f 31;
#X obj 5 346 osci/out~;
#X obj 1 1 cnv 15 305 46 empty empty empty 20 12 0 14 -66577 -66577
0;
#X obj 4 3 cnv 15 301 42 empty empty grid~ 20 20 2 37 -204786 -1 0
;
#X obj 307 1 cnv 15 256 46 empty empty empty 20 12 0 14 -66577 -66577
0;
#X obj 310 4 cnv 15 250 40 empty empty empty 12 13 0 18 -128992 -233080
0;
#X obj 317 11 cnv 10 10 10 empty empty OSCI 0 15 2 30 -128992 -204786
0;
#X obj 413 25 cnv 10 10 10 empty empty Oscilloscope 0 6 2 13 -128992
-204786 0;
#X obj 480 25 cnv 10 10 10 empty empty Music 0 6 2 13 -128992 -204786
0;
#X obj 513 25 cnv 10 10 10 empty empty & 0 6 2 13 -128992 -204786 0
;
#X obj 454 11 cnv 10 10 10 empty empty Library 0 6 2 13 -128992 -204786
0;
#X obj 526 25 cnv 10 10 10 empty empty Art 0 6 2 13 -128992 -204786
0;
#X obj 497 11 cnv 10 10 10 empty empty for 0 6 2 13 -128992 -204786
0;
#X obj 10 34 cnv 5 10 10 empty \$0-description Create\\\ a\\\ grid
30 30 2 17 -204786 -1 0;
#X obj 2 424 cnv 1 550 1 empty empty inlets 8 12 0 13 -228856 -1 0
;
#X obj 2 547 cnv 1 550 1 empty empty outlets 8 12 0 13 -228856 -1 0
;
#X obj 2 636 cnv 1 550 1 empty empty arguments 8 12 0 13 -228856 -1
0;
#X obj 2 728 cnv 15 552 21 empty empty empty 20 12 0 14 -233017 -33289
0;
#X text 85 704 4) float;
#X text 197 555 - adjusted phase;
#X text 198 438 - phase;
#X text 245 238 [grid~] creates a grid by manipulating the incoming
phase. It should come before any images to be drawn \, while the signal
flow is still dealing with phase., f 43;
#X obj 258 83 loadbang;
#X msg 258 107 1;
#X connect 17 0 18 0;
#X connect 18 0 43 0;
#X connect 18 1 42 3;
#X connect 18 1 42 4;
#X connect 18 1 42 5;
#X connect 18 2 41 3;
#X connect 18 3 41 4;
#X connect 18 4 41 5;
#X connect 19 0 40 3;
#X connect 19 0 40 4;
#X connect 19 0 40 5;
#X connect 20 0 19 0;
#X connect 21 0 18 1;
#X connect 22 0 18 2;
#X connect 23 0 18 3;
#X connect 25 0 18 4;
#X connect 39 0 44 0;
#X connect 39 1 44 1;
#X connect 40 0 39 0;
#X connect 40 1 39 1;
#X connect 40 2 39 2;
#X connect 41 0 40 0;
#X connect 41 1 40 1;
#X connect 41 2 40 2;
#X connect 42 0 41 0;
#X connect 42 1 41 1;
#X connect 42 2 41 2;
#X connect 43 0 42 0;
#X connect 43 1 42 1;
#X connect 43 2 42 2;
#X connect 65 0 66 0;
#X connect 66 0 43 1;
