#N canvas 565 112 571 516 12;
#X obj 68 282 cnv 15 3 50 empty empty 0 5 9 0 16 -216373 -141475 0
;
#X obj 68 376 cnv 15 3 17 empty empty 0 5 9 0 16 -216373 -141475 0
;
#X text 86 280 signal;
#X text 86 374 signal;
#X obj 68 409 cnv 15 3 17 empty empty 1 5 9 0 16 -216373 -141475 0
;
#X text 86 407 signal;
#X obj 35 130 phasor~ 50;
#X obj 35 164 heart~;
#X obj 35 196 osci/out~;
#X text 168 280 - controls the position of the dot on the heart \,
ramping from 0 to 1 results in the complete shape. Normally a phasor
is used \, but any signal source could be used., f 53;
#X text 154 167 [heart~] helps show the world how much you love them.
;
#X obj 1 1 cnv 15 305 46 empty empty empty 20 12 0 14 -66577 -66577
0;
#X obj 4 3 cnv 15 301 42 empty empty heart~ 20 20 2 37 -204786 -1 0
;
#X obj 307 1 cnv 15 256 46 empty empty empty 20 12 0 14 -66577 -66577
0;
#X obj 310 4 cnv 15 250 40 empty empty empty 12 13 0 18 -128992 -233080
0;
#X obj 317 11 cnv 10 10 10 empty empty OSCI 0 15 2 30 -128992 -204786
0;
#X obj 10 34 cnv 5 10 10 empty \$0-description Share\\\ the\\\ love
30 30 2 17 -204786 -1 0;
#X obj 1 264 cnv 1 552 1 empty empty inlets 8 12 0 13 -216373 -1 0
;
#X obj 1 347 cnv 1 552 1 empty empty outlets 8 12 0 13 -216373 -1 0
;
#X obj 2 444 cnv 1 552 1 empty empty arguments 8 12 0 13 -216373 -1
0;
#X obj 2 477 cnv 15 552 24 empty empty empty 20 12 0 14 -233017 -33289
0;
#X text 167 373 - x;
#X text 167 406 - y;
#X obj 413 25 cnv 10 10 10 empty empty Oscilloscope 0 6 2 13 -128992
-204786 0;
#X obj 480 25 cnv 10 10 10 empty empty Music 0 6 2 13 -128992 -204786
0;
#X obj 513 25 cnv 10 10 10 empty empty & 0 6 2 13 -128992 -204786 0
;
#X obj 454 11 cnv 10 10 10 empty empty Library 0 6 2 13 -128992 -204786
0;
#X obj 526 25 cnv 10 10 10 empty empty Art 0 6 2 13 -128992 -204786
0;
#X obj 497 11 cnv 10 10 10 empty empty for 0 6 2 13 -128992 -204786
0;
#X connect 6 0 7 0;
#X connect 7 0 8 0;
#X connect 7 1 8 1;
