#N canvas -627 21 586 714 12;
#X floatatom 80 108 5 0 0 0 - - -;
#X floatatom 135 134 5 0 0 0 - - -;
#X floatatom 190 179 5 0 0 0 - - -;
#X obj 88 402 cnv 15 3 20 empty empty 0 5 9 0 16 -216373 -141475 0
;
#X obj 88 536 cnv 15 3 17 empty empty 0 5 9 0 16 -216373 -141475 0
;
#X text 106 400 signal;
#X obj 88 446 cnv 15 3 17 empty empty 1 5 9 0 16 -216373 -141475 0
;
#X text 106 444 signal;
#X obj 88 470 cnv 15 3 17 empty empty 2 5 9 0 16 -216373 -141475 0
;
#X text 106 468 signal;
#X obj 88 497 cnv 15 3 17 empty empty 3 5 9 0 16 -216373 -141475 0
;
#X text 106 495 signal;
#X text 106 534 signal;
#X obj 88 566 cnv 15 3 17 empty empty 1 5 9 0 16 -216373 -141475 0
;
#X text 106 564 signal;
#X text 85 614 1) float;
#X text 85 634 2) float;
#X text 85 654 3) float;
#X obj 25 259 osci/out~;
#X text 123 109 2nd inlet controls radius of exterior circle;
#X text 172 135 3rd inlet controls radius of interior circle;
#X text 228 171 4th inlet controls the distance from the center of
the exterior circle, f 48;
#X obj 25 225 osci/hypotrochoid~ 5 3 5;
#X obj 190 202 sig~ 5;
#X obj 135 157 sig~ 3;
#X obj 80 131 sig~ 5;
#X text 197 444 - radius (R) of exterior circle;
#X text 197 468 - radius (r) of interior circle;
#X text 197 495 - distance (d) from center of circle;
#X text 198 400 - controls the position of the dot on the hyptrochoid
\, ramping from 0 to 1 results in a complete shape., f 48;
#X text 196 614 - radius (R);
#X text 197 634 - radius (r);
#X text 197 654 - distance (d);
#X text 133 264 A hypotrochoid is a roulette traced by a point attached
to a circle of radius r rolling around the inside of a fixed circle
of radius R \, where the point is a distance d from the center of the
interior circle. The classic Spirograph toy traces out hypotrochoid
and epitrochoid curves.;
#X obj 131 345 else/openfile https://en.wikipedia.org/wiki/Hypotrochoid
-h More on Hypotrochoids;
#X obj 1 1 cnv 15 305 46 empty empty empty 20 12 0 14 -66577 -66577
0;
#X obj 4 3 cnv 15 301 42 empty empty hypotrochoid~ 20 20 2 37 -204786
-1 0;
#X obj 307 1 cnv 15 256 46 empty empty empty 20 12 0 14 -66577 -66577
0;
#X obj 310 4 cnv 15 250 40 empty empty empty 12 13 0 18 -128992 -233080
0;
#X obj 317 11 cnv 10 10 10 empty empty OSCI 0 15 2 30 -128992 -204786
0;
#X obj 10 34 cnv 5 10 10 empty \$0-description Draws\ a\ hypotrochoid
30 30 2 17 -204786 -1 0;
#X obj 413 25 cnv 10 10 10 empty empty Oscilloscope 0 6 2 13 -128992
-204786 0;
#X obj 480 25 cnv 10 10 10 empty empty Music 0 6 2 13 -128992 -204786
0;
#X obj 513 25 cnv 10 10 10 empty empty & 0 6 2 13 -128992 -204786 0
;
#X obj 454 11 cnv 10 10 10 empty empty Library 0 6 2 13 -128992 -204786
0;
#X obj 526 25 cnv 10 10 10 empty empty Art 0 6 2 13 -128992 -204786
0;
#X obj 497 11 cnv 10 10 10 empty empty for 0 6 2 13 -128992 -204786
0;
#X obj 1 374 cnv 1 552 1 empty empty inlets 8 12 0 13 -216373 -1 0
;
#X obj 1 527 cnv 1 552 1 empty empty outlets 8 12 0 13 -216373 -1 0
;
#X obj 2 595 cnv 1 552 1 empty empty arguments 8 12 0 13 -216373 -1
0;
#X obj 2 678 cnv 15 552 24 empty empty empty 20 12 0 14 -233017 -33289
0;
#X text 197 533 - x;
#X text 197 563 - y;
#X obj 25 80 phasor~ 100;
#X connect 0 0 25 0;
#X connect 1 0 24 0;
#X connect 2 0 23 0;
#X connect 22 0 18 0;
#X connect 22 1 18 1;
#X connect 23 0 22 3;
#X connect 24 0 22 2;
#X connect 25 0 22 1;
#X connect 53 0 22 0;
