#N canvas -825 2 570 607 12;
#X obj 88 349 cnv 15 3 17 empty empty 0 5 9 0 16 -216373 -141475 0
;
#X obj 88 456 cnv 15 3 17 empty empty 0 5 9 0 16 -216373 -141475 0
;
#X text 106 347 signal;
#X obj 88 377 cnv 15 3 17 empty empty 1 5 9 0 16 -216373 -141475 0
;
#X text 106 375 signal;
#X obj 88 407 cnv 15 3 17 empty empty 2 5 9 0 16 -216373 -141475 0
;
#X text 106 405 signal;
#X text 106 454 signal;
#X text 85 494 1) float;
#X obj 18 202 circle~ 0 0 0.5;
#X obj 17 91 phasor~ 440;
#X obj 18 239 osci/out~;
#X obj 65 126 hsl 128 15 0 1 0 0 empty empty split_point -2 -8 0 10
-262144 -1 -1 0 1;
#X obj 109 155 hsl 128 15 0 1 0 0 empty empty segment_length -2 -8
0 10 -262144 -1 -1 0 1;
#X obj 18 178 knee~ 0.3 0.7;
#X text 198 347 - incoming phase;
#X text 197 375 - phase split point;
#X text 197 405 - segment length;
#X text 197 453 - adjusted phase;
#X text 85 523 2) float;
#X text 197 494 - phase split point (0-1);
#X text 197 524 - segment length (0-1);
#X obj 1 332 cnv 1 552 1 empty empty inlets 8 12 0 13 -216373 -1 0
;
#X obj 1 435 cnv 1 552 1 empty empty outlets 8 12 0 13 -216373 -1 0
;
#X obj 2 493 cnv 1 552 1 empty empty arguments 8 12 0 13 -216373 -1
0;
#X obj 2 556 cnv 15 552 24 empty empty empty 20 12 0 14 -233017 -33289
0;
#N canvas 271 151 270 175 related_objects 0;
#X obj 7 91 osci/trace~;
#X obj 7 116 osci/dash~;
#X obj 7 66 osci/bright~;
#X obj 137 66 osci/cut_equal~;
#X obj 137 91 osci/cut_weights~;
#X obj 137 116 osci/cut_mix~;
#X obj 1 1 cnv 15 250 23 empty empty empty 3 12 0 20 -204786 -1 0;
#X text 6 34 Phase Modifiers;
#X text 135 34 Phase Cutters;
#X text 8 4 Other phase manipulation objects;
#X restore 16 559 pd related_objects;
#X obj 1 1 cnv 15 305 46 empty empty empty 20 12 0 14 -66577 -66577
0;
#X obj 4 3 cnv 15 301 42 empty empty knee~ 20 20 2 37 -204786 -1 0
;
#X obj 307 1 cnv 15 256 46 empty empty empty 20 12 0 14 -66577 -66577
0;
#X obj 310 4 cnv 15 250 40 empty empty empty 12 13 0 18 -128992 -233080
0;
#X obj 317 11 cnv 10 10 10 empty empty OSCI 0 15 2 30 -128992 -204786
0;
#X obj 10 34 cnv 5 10 10 empty \$0-description Segment\ phase\ into\ two\ parts
30 30 2 17 -204786 -1 0;
#X obj 413 25 cnv 10 10 10 empty empty Oscilloscope 0 6 2 13 -128992
-204786 0;
#X obj 480 25 cnv 10 10 10 empty empty Music 0 6 2 13 -128992 -204786
0;
#X obj 513 25 cnv 10 10 10 empty empty & 0 6 2 13 -128992 -204786 0
;
#X obj 454 11 cnv 10 10 10 empty empty Library 0 6 2 13 -128992 -204786
0;
#X obj 526 25 cnv 10 10 10 empty empty Art 0 6 2 13 -128992 -204786
0;
#X obj 497 11 cnv 10 10 10 empty empty for 0 6 2 13 -128992 -204786
0;
#X text 150 185 [knee~] segments a phase into two parts. The resulting
effect is that you can control the brightness of the image. The first
argument is the split point of the incoming phase (0-1) and the second
is the length of the first phase segment (0-1). This results in an
image where one part is brighter than the other. For another way to
control brightness check out [bright~]. [knee~] is a phase manipulator
and needs to come before any actual images., f 55;
#X connect 9 0 11 0;
#X connect 9 1 11 1;
#X connect 10 0 14 0;
#X connect 12 0 14 1;
#X connect 13 0 14 2;
#X connect 14 0 9 0;
