#N canvas 200 53 595 667 12;
#X obj 88 382 cnv 15 3 17 empty empty 0 5 9 0 16 -216373 -141475 0
;
#X obj 88 476 cnv 15 3 17 empty empty 0 5 9 0 16 -216373 -141475 0
;
#X text 126 380 signal;
#X obj 88 410 cnv 15 3 17 empty empty 1-3 5 9 0 16 -216373 -141475
0;
#X text 126 408 signal;
#X obj 88 440 cnv 15 3 17 empty empty 4-6 5 9 0 16 -216373 -141475
0;
#X text 126 438 signal;
#X text 106 474 signal;
#X obj 88 506 cnv 15 3 17 empty empty 1 5 9 0 16 -216373 -141475 0
;
#X text 106 504 signal;
#X obj 17 289 osci/out~;
#X obj 234 214 osci/cuboid~ 0 0 0 0.3 0.2 0.7;
#X obj 234 184 phasor~ 51;
#X obj 71 184 phasor~ 50;
#X obj 71 214 osci/cuboid~;
#X obj 218 102 loadbang;
#X msg 218 126 1;
#X floatatom 17 130 5 0 1 0 - - -;
#X obj 17 153 sig~;
#X text 57 130 interpolation amount;
#X text 198 380 - interpolation amount (0-1);
#X text 197 408 - x1 \, y1 \, z1;
#X text 197 438 - x2 \, y2 \, z2;
#X obj 17 244 osci/lerp~, f 47;
#X obj 88 536 cnv 15 3 17 empty empty 1 5 9 0 16 -216373 -141475 0
;
#X text 106 534 signal;
#X text 197 503 - interpolated y signal;
#X text 197 473 - interpolated x signal;
#X text 197 533 - interpolated z signal;
#X text 85 574 1-3) float;
#X text 197 573 - x1 \, y1 \, z1;
#X text 85 604 4-6) float;
#X text 197 603 - x2 \, y2 \, z2;
#X obj 2 374 cnv 1 550 1 empty empty inlets 8 12 0 13 -228856 -1 0
;
#X obj 2 467 cnv 1 550 1 empty empty outlets 8 12 0 13 -228856 -1 0
;
#X obj 2 566 cnv 1 550 1 empty empty arguments 8 12 0 13 -228856 -1
0;
#X obj 2 628 cnv 15 552 21 empty empty empty 20 12 0 14 -233017 -33289
0;
#X text 201 272 [lerp~] interoplates between two 3D signal vectors
When interpolation amount is set to 0 only the first signal vector
is shown \, and when the interpolation amound is 1 \, only the second
signal vector is shown., f 42;
#X obj 1 1 cnv 15 305 46 empty empty empty 20 12 0 14 -66577 -66577
0;
#X obj 4 3 cnv 15 301 42 empty empty lerp~ 20 20 2 37 -204786 -1 0
;
#X obj 307 1 cnv 15 256 46 empty empty empty 20 12 0 14 -66577 -66577
0;
#X obj 310 4 cnv 15 250 40 empty empty empty 12 13 0 18 -128992 -233080
0;
#X obj 317 11 cnv 10 10 10 empty empty OSCI 0 15 2 30 -128992 -204786
0;
#X obj 413 25 cnv 10 10 10 empty empty Oscilloscope 0 6 2 13 -128992
-204786 0;
#X obj 480 25 cnv 10 10 10 empty empty Music 0 6 2 13 -128992 -204786
0;
#X obj 513 25 cnv 10 10 10 empty empty & 0 6 2 13 -128992 -204786 0
;
#X obj 454 11 cnv 10 10 10 empty empty Library 0 6 2 13 -128992 -204786
0;
#X obj 526 25 cnv 10 10 10 empty empty Art 0 6 2 13 -128992 -204786
0;
#X obj 497 11 cnv 10 10 10 empty empty for 0 6 2 13 -128992 -204786
0;
#X obj 10 34 cnv 5 10 10 empty \$0-description Linear\\\ interpolation\\\ b/w\\\ 3D\\\ signal\\\ vectors
30 30 2 17 -204786 -1 0;
#X connect 11 0 23 4;
#X connect 11 1 23 5;
#X connect 11 2 23 6;
#X connect 12 0 11 0;
#X connect 13 0 14 0;
#X connect 14 0 23 1;
#X connect 14 1 23 2;
#X connect 14 2 23 3;
#X connect 15 0 16 0;
#X connect 16 0 11 1;
#X connect 16 0 14 1;
#X connect 17 0 18 0;
#X connect 18 0 23 0;
#X connect 23 0 10 0;
#X connect 23 1 10 1;
