#N canvas 221 168 569 385 12;
#X obj 1 1 cnv 15 305 46 empty empty empty 20 12 0 14 -66577 -66577
0;
#X obj 4 3 cnv 15 301 42 empty empty (n)ode~ 20 20 2 37 -204786 -1
0;
#X obj 307 1 cnv 15 256 46 empty empty empty 20 12 0 14 -66577 -66577
0;
#X obj 310 4 cnv 15 250 40 empty empty empty 12 13 0 18 -128992 -233080
0;
#X obj 317 11 cnv 10 10 10 empty empty OSCI 0 15 2 30 -128992 -204786
0;
#X obj 413 25 cnv 10 10 10 empty empty Oscilloscope 0 6 2 13 -128992
-204786 0;
#X obj 480 25 cnv 10 10 10 empty empty Music 0 6 2 13 -128992 -204786
0;
#X obj 513 25 cnv 10 10 10 empty empty & 0 6 2 13 -128992 -204786 0
;
#X obj 454 11 cnv 10 10 10 empty empty Library 0 6 2 13 -128992 -204786
0;
#X obj 526 25 cnv 10 10 10 empty empty Art 0 6 2 13 -128992 -204786
0;
#X obj 497 11 cnv 10 10 10 empty empty for 0 6 2 13 -128992 -204786
0;
#X obj 2 244 cnv 1 550 1 empty empty inlets 8 12 0 13 -228856 -1 0
;
#X obj 2 280 cnv 1 550 1 empty empty outlets 8 12 0 13 -228856 -1 0
;
#X obj 2 316 cnv 1 550 1 empty empty arguments 8 12 0 13 -228856 -1
0;
#X obj 122 252 cnv 17 3 17 empty empty 0 5 9 0 16 -228856 -162280 0
;
#X obj 2 347 cnv 15 552 21 empty empty empty 20 12 0 14 -233017 -33289
0;
#X obj 10 34 cnv 5 10 10 empty \$0-description Cord\\\ Management 30
30 2 17 -204786 -1 0;
#X obj 122 292 cnv 17 3 17 empty empty 0 5 9 0 16 -228856 -162280 0
;
#X text 163 291 signal;
#X obj 124 193 snapshot~;
#X floatatom 124 217 5 0 0 0 - - -;
#X obj 153 170 metro 100;
#X obj 153 152 tgl 15 1 empty empty empty 17 7 0 10 -262144 -1 -1 1
1;
#X obj 23 117 sig~ 1;
#X obj 23 141 n~;
#X obj 124 160 n~;
#X text 163 251 signal;
#X text 246 100 [n~] is short for node. It is useful for cleaning up
signal connections so that they're easier to read. No one likes spaghetti
code., f 42;
#X connect 19 0 20 0;
#X connect 21 0 19 0;
#X connect 22 0 21 0;
#X connect 23 0 24 0;
#X connect 24 0 25 0;
#X connect 25 0 19 0;
