#N canvas 724 23 589 736 12;
#X obj 35 168 osci/rotate~ 45 23 0;
#X obj 35 192 osci/project~;
#X obj 35 100 phasor~ 50;
#X obj 35 216 osci/out~;
#X obj 1 1 cnv 15 305 46 empty empty empty 20 12 0 14 -66577 -66577
0;
#X obj 4 3 cnv 15 301 42 empty empty octahedron~ 20 20 2 37 -204786
-1 0;
#X obj 307 1 cnv 15 256 46 empty empty empty 20 12 0 14 -66577 -66577
0;
#X obj 310 4 cnv 15 250 40 empty empty empty 12 13 0 18 -128992 -233080
0;
#X obj 317 11 cnv 10 10 10 empty empty OSCI 0 15 2 30 -128992 -204786
0;
#X obj 413 25 cnv 10 10 10 empty empty Oscilloscope 0 6 2 13 -128992
-204786 0;
#X obj 10 34 cnv 5 10 10 empty \$0-description Draw\\\ a\\\ octahedron
30 30 2 17 -204786 -1 0;
#X obj 480 25 cnv 10 10 10 empty empty Music 0 6 2 13 -128992 -204786
0;
#X obj 513 25 cnv 10 10 10 empty empty & 0 6 2 13 -128992 -204786 0
;
#X obj 454 11 cnv 10 10 10 empty empty Library 0 6 2 13 -128992 -204786
0;
#X obj 526 25 cnv 10 10 10 empty empty Art 0 6 2 13 -128992 -204786
0;
#X obj 497 11 cnv 10 10 10 empty empty for 0 6 2 13 -128992 -204786
0;
#X text 358 181 (abbreviation);
#X obj 35 134 octahedron~;
#X obj 281 180 osci/octa~;
#X obj 88 331 cnv 15 3 60 empty empty 0 5 9 0 16 -216373 -141475 0
;
#X obj 88 495 cnv 15 3 17 empty empty 0 5 9 0 16 -216373 -141475 0
;
#X text 106 330 signal;
#X text 106 494 signal;
#X obj 88 518 cnv 15 3 17 empty empty 1 5 9 0 16 -216373 -141475 0
;
#X text 106 517 signal;
#X text 197 583 - x position;
#X text 197 603 - y position;
#X text 85 583 1) float;
#X text 85 603 2) float;
#X text 85 623 3) float;
#X text 85 643 4) float;
#X text 197 623 - z position;
#X text 197 643 - width;
#X text 197 663 - height;
#X text 197 683 - length;
#X text 85 663 5) float;
#X text 85 683 6) float;
#X text 197 494 - x out;
#X text 197 517 - y out;
#X obj 88 543 cnv 15 3 17 empty empty 2 5 9 0 16 -216373 -141475 0
;
#X text 106 542 signal;
#X text 197 542 - z out;
#X obj 87 408 cnv 15 3 17 empty empty 1-3 5 9 0 16 -216373 -141475
0;
#X text 125 407 signal;
#X obj 1 303 cnv 1 552 1 empty empty inlets 8 12 0 13 -216373 -1 0
;
#X obj 1 476 cnv 1 552 1 empty empty outlets 8 12 0 13 -216373 -1 0
;
#X obj 2 571 cnv 1 552 1 empty empty arguments 8 12 0 13 -216373 -1
0;
#X text 192 330 - controls the position of the dot on the octahedron \, ramping
from 0 to 1 results in a complete octahedron. Normally a phasor would be
used but any signal source could be used., f 42;
#X obj 2 706 cnv 15 552 24 empty empty empty 20 12 0 14 -233017 -33289
0;
#X obj 87 428 cnv 15 3 17 empty empty 4-6 5 9 0 16 -216373 -141475
0;
#X text 125 427 signal;
#X obj 87 448 cnv 15 3 17 empty empty 7 5 9 0 16 -216373 -141475 0
;
#X text 105 447 signal;
#X text 160 447 - amount of interpolation between the points (0-1)
;
#X text 180 407 - xPos \, yPos \, zPos;
#X text 180 427 - xLen \, yLen \, zLen;
#N canvas 89 224 235 200 related_objects 0;
#X obj 1 1 cnv 15 230 23 empty empty empty 3 12 0 20 -204786 -1 0;
#X obj 17 104 osci/tetrahedron~;
#X obj 17 134 osci/icosahedron~;
#X obj 17 44 osci/cuboid~;
#X obj 17 74 osci/dodecahedron~;
#X text 0 4 [octahedron~] related objects;
#X restore 16 709 pd related_objects;
#X connect 0 0 1 0;
#X connect 0 1 1 1;
#X connect 0 2 1 2;
#X connect 1 0 3 0;
#X connect 1 1 3 1;
#X connect 2 0 17 0;
#X connect 17 0 0 0;
#X connect 17 1 0 1;
#X connect 17 2 0 2;
