#N canvas 64 23 596 724 12;
#X floatatom 54 104 5 0 0 0 - - -;
#X floatatom 94 127 5 0 0 0 - - -;
#X floatatom 133 154 5 0 0 0 - - -;
#X text 96 103 2nd inlet controls x position;
#X text 131 128 3rd inlet controls y position;
#X obj 1 314 cnv 1 552 1 empty empty inlets 8 12 0 13 -216373 -1 0
;
#X obj 88 322 cnv 15 3 60 empty empty 0 5 9 0 16 -216373 -141475 0
;
#X obj 1 521 cnv 1 552 1 empty empty outlets 8 12 0 13 -216373 -1 0
;
#X obj 88 530 cnv 15 3 17 empty empty 0 5 9 0 16 -216373 -141475 0
;
#X text 106 320 signal;
#X obj 88 400 cnv 15 3 17 empty empty 1 5 9 0 16 -216373 -141475 0
;
#X text 106 398 signal;
#X obj 88 430 cnv 15 3 17 empty empty 2 5 9 0 16 -216373 -141475 0
;
#X text 106 428 signal;
#X text 106 528 signal;
#X obj 88 560 cnv 15 3 17 empty empty 1 5 9 0 16 -216373 -141475 0
;
#X text 106 558 signal;
#X obj 2 588 cnv 1 552 1 empty empty arguments 8 12 0 13 -216373 -1
0;
#X text 177 598 - x position;
#X text 177 618 - y position;
#X text 85 598 1) float;
#X text 85 618 2) float;
#X obj 1 1 cnv 15 305 46 empty empty empty 20 12 0 14 -66577 -66577
0;
#X obj 4 3 cnv 15 301 42 empty empty rectangle~ 20 20 2 37 -204786
-1 0;
#X obj 307 1 cnv 15 256 46 empty empty empty 20 12 0 14 -66577 -66577
0;
#X obj 310 4 cnv 15 250 40 empty empty empty 12 13 0 18 -128992 -233080
0;
#X obj 317 11 cnv 10 10 10 empty empty OSCI 0 15 2 30 -128992 -204786
0;
#X obj 413 25 cnv 10 10 10 empty empty Oscilloscope 0 6 2 13 -128992
-204786 0;
#X obj 10 34 cnv 5 10 10 empty \$0-description Draw\\\ a\\\ rectangle
30 30 2 17 -204786 -1 0;
#X obj 480 25 cnv 10 10 10 empty empty Music 0 6 2 13 -128992 -204786
0;
#X obj 513 25 cnv 10 10 10 empty empty & 0 6 2 13 -128992 -204786 0
;
#X obj 454 11 cnv 10 10 10 empty empty Library 0 6 2 13 -128992 -204786
0;
#X obj 526 25 cnv 10 10 10 empty empty Art 0 6 2 13 -128992 -204786
0;
#X obj 497 11 cnv 10 10 10 empty empty for 0 6 2 13 -128992 -204786
0;
#X obj 2 681 cnv 15 552 24 empty empty empty 20 12 0 14 -233017 -33289
0;
#X obj 15 81 phasor~ 100;
#X text 177 527 - x;
#X text 177 557 - y;
#X text 177 398 - x position;
#X text 177 428 - y position;
#X obj 15 223 osci/out~;
#N canvas 271 151 208 199 related_objects 0;
#X obj 1 1 cnv 15 200 23 empty empty empty 3 12 0 20 -204786 -1 0;
#X obj 17 104 osci/triangle~;
#X obj 17 164 osci/polygon~;
#X obj 17 74 osci/circle~;
#X obj 17 44 osci/square~;
#X obj 17 134 osci/ellipse~;
#X text 1 4 [rectangle~] related objects;
#X restore 16 684 pd related_objects;
#X text 172 156 4th inlet controls the width;
#X text 212 177 5th inlet controls the height;
#X floatatom 173 176 5 0 0 0 - - -;
#X obj 88 458 cnv 15 3 17 empty empty 3 5 9 0 16 -216373 -141475 0
;
#X text 106 456 signal;
#X obj 88 485 cnv 15 3 17 empty empty 4 5 9 0 16 -216373 -141475 0
;
#X text 106 483 signal;
#X text 177 456 - width;
#X text 177 483 - height;
#X text 85 638 3) float;
#X text 85 658 4) float;
#X text 100 80 1st inlet is the driver \, that draws the rectangle
;
#X text 178 320 - controls the position of the dot on the rectangle
\, ramping from 0 to 1 results in a complete rectangle. Normally a
phasor would be used but any signal source could be used., f 47;
#X text 177 638 - width;
#X text 177 658 - height;
#X obj 15 199 osci/rectangle~ 0 0 1 1;
#X connect 0 0 57 1;
#X connect 1 0 57 2;
#X connect 2 0 57 3;
#X connect 35 0 57 0;
#X connect 44 0 57 4;
#X connect 57 0 40 0;
#X connect 57 1 40 1;
