#N canvas 544 104 584 661 12;
#X obj 88 313 cnv 15 3 17 empty empty 0 5 9 0 16 -216373 -141475 0
;
#X obj 88 467 cnv 15 3 17 empty empty 0 5 9 0 16 -216373 -141475 0
;
#X text 106 312 signal;
#X obj 88 336 cnv 15 3 17 empty empty 1 5 9 0 16 -216373 -141475 0
;
#X text 106 335 signal;
#X obj 88 382 cnv 15 3 17 empty empty 3 5 9 0 16 -216373 -141475 0
;
#X text 106 381 signal;
#X obj 89 405 cnv 15 3 17 empty empty 4 5 9 0 16 -216373 -141475 0
;
#X text 106 404 signal;
#X text 106 465 signal;
#X obj 88 487 cnv 15 3 17 empty empty 1 5 9 0 16 -216373 -141475 0
;
#X text 106 485 signal;
#X text 85 555 1) float;
#X obj 47 92 phasor~ 440;
#X floatatom 162 143 5 0 0 0 - - -;
#X obj 162 166 sig~;
#X text 85 575 2) float;
#X text 197 381 - x scalar;
#X text 197 404 - y scalar;
#X text 197 555 - x scalar;
#X text 197 575 - y scalar;
#X obj 47 197 osci/scale~, f 28;
#X text 198 312 - x signal;
#X text 198 335 - y signal;
#X obj 88 359 cnv 15 3 17 empty empty 2 5 9 0 16 -216373 -141475 0
;
#X text 106 358 signal;
#X obj 89 428 cnv 15 3 17 empty empty 5 5 9 0 16 -216373 -141475 0
;
#X text 106 427 signal;
#X text 197 427 - z scalar;
#X text 198 358 - z signal;
#X text 197 463 - x out;
#X obj 88 507 cnv 15 3 17 empty empty 2 5 9 0 16 -216373 -141475 0
;
#X text 106 505 signal;
#X text 197 504 - z out;
#X text 197 484 - y out;
#X text 197 595 - z scalar;
#X text 85 595 3) float;
#X floatatom 201 143 5 0 0 0 - - -;
#X obj 201 166 sig~;
#X floatatom 240 143 5 0 0 0 - - -;
#X obj 240 166 sig~;
#X obj 1 2 cnv 15 305 46 empty empty empty 20 12 0 14 -66577 -66577
0;
#X obj 4 4 cnv 15 301 42 empty empty scale~ 20 20 2 37 -204786 -1 0
;
#X obj 307 2 cnv 15 256 46 empty empty empty 20 12 0 14 -66577 -66577
0;
#X obj 310 5 cnv 15 250 40 empty empty empty 12 13 0 18 -128992 -233080
0;
#X obj 317 12 cnv 10 10 10 empty empty OSCI 0 15 2 30 -128992 -204786
0;
#X obj 413 26 cnv 10 10 10 empty empty Oscilloscope 0 6 2 13 -128992
-204786 0;
#X obj 480 26 cnv 10 10 10 empty empty Music 0 6 2 13 -128992 -204786
0;
#X obj 513 26 cnv 10 10 10 empty empty & 0 6 2 13 -128992 -204786 0
;
#X obj 454 12 cnv 10 10 10 empty empty Library 0 6 2 13 -128992 -204786
0;
#X obj 526 26 cnv 10 10 10 empty empty Art 0 6 2 13 -128992 -204786
0;
#X obj 497 12 cnv 10 10 10 empty empty for 0 6 2 13 -128992 -204786
0;
#X obj 10 35 cnv 5 10 10 empty \$0-description Scale\\\ a\\\ 3D\\\ signal\\\ vector
30 30 2 17 -204786 -1 0;
#X obj 47 121 osci/circle~ 0 0 0.5;
#X obj 47 222 osci/out~;
#X obj 3 627 cnv 15 552 24 empty empty empty 20 12 0 14 -233017 -33289
0;
#N canvas 107 214 235 200 related_objects 0;
#X obj 1 1 cnv 15 230 23 empty empty empty 3 12 0 20 -204786 -1 0;
#X text 10 4 Other Transformations;
#X obj 17 74 osci/shear~;
#X obj 17 104 osci/translate~;
#X obj 17 44 osci/rotate~;
#X restore 17 630 pd related_objects;
#X obj 1 305 cnv 1 550 1 empty empty inlets 8 12 0 13 -216373 -1 0
;
#X obj 1 458 cnv 1 550 1 empty empty outlets 8 12 0 13 -216373 -1 0
;
#X obj 1 545 cnv 1 550 1 empty empty arguments 8 12 0 13 -216373 -1
0;
#X connect 13 0 53 0;
#X connect 14 0 15 0;
#X connect 15 0 21 3;
#X connect 21 0 54 0;
#X connect 21 1 54 1;
#X connect 37 0 38 0;
#X connect 38 0 21 4;
#X connect 39 0 40 0;
#X connect 40 0 21 5;
#X connect 53 0 21 0;
#X connect 53 1 21 1;
