#N canvas -764 -32 572 760 12;
#X obj 1 1 cnv 15 305 46 empty empty empty 20 12 0 14 -66577 -66577
0;
#X obj 4 3 cnv 15 301 42 empty empty shroom~ 20 20 2 37 -204786 -1
0;
#X obj 307 1 cnv 15 256 46 empty empty empty 20 12 0 14 -66577 -66577
0;
#X obj 310 4 cnv 15 250 40 empty empty empty 12 13 0 18 -128992 -233080
0;
#X obj 317 11 cnv 10 10 10 empty empty OSCI 0 15 2 30 -128992 -204786
0;
#X obj 413 25 cnv 10 10 10 empty empty Oscilloscope 0 6 2 13 -128992
-204786 0;
#X obj 480 25 cnv 10 10 10 empty empty Music 0 6 2 13 -128992 -204786
0;
#X obj 513 25 cnv 10 10 10 empty empty & 0 6 2 13 -128992 -204786 0
;
#X obj 454 11 cnv 10 10 10 empty empty Library 0 6 2 13 -128992 -204786
0;
#X obj 526 25 cnv 10 10 10 empty empty Art 0 6 2 13 -128992 -204786
0;
#X obj 497 11 cnv 10 10 10 empty empty for 0 6 2 13 -128992 -204786
0;
#X obj 2 424 cnv 3 550 3 empty empty inlets 8 12 0 13 -228856 -1 0
;
#X obj 2 620 cnv 3 550 3 empty empty outlets 8 12 0 13 -228856 -1 0
;
#X obj 2 696 cnv 3 550 3 empty empty arguments 8 12 0 13 -228856 -1
0;
#X obj 122 432 cnv 17 3 17 empty empty 0 5 9 0 16 -228856 -162280 0
;
#X obj 2 727 cnv 15 552 21 empty empty empty 20 12 0 14 -233017 -33289
0;
#X obj 122 452 cnv 17 3 17 empty empty 1 5 9 0 16 -228856 -162280 0
;
#X obj 122 472 cnv 17 3 17 empty empty 2 5 9 0 16 -228856 -162280 0
;
#X obj 3 313 osci/out~;
#X obj 10 34 cnv 5 10 10 empty \$0-description Fenderson\\\ style\\\ mushrooms
30 30 2 17 -204786 -1 0;
#X obj 3 242 osci/shroom~, f 63;
#X obj 122 628 cnv 17 3 17 empty empty 0 5 9 0 16 -228856 -162280 0
;
#X obj 122 648 cnv 17 3 17 empty empty 1 5 9 0 16 -228856 -162280 0
;
#X obj 122 668 cnv 17 3 17 empty empty 2 5 9 0 16 -228856 -162280 0
;
#X text 164 647 signal - y;
#X text 163 667 signal - z;
#X text 163 627 signal - x;
#X text 163 431 signal - driver;
#X text 164 451 float - freq (used for the driver);
#X obj 122 492 cnv 17 3 17 empty empty 3 5 9 0 16 -228856 -162280 0
;
#X obj 122 512 cnv 17 3 17 empty empty 4 5 9 0 16 -228856 -162280 0
;
#X obj 122 532 cnv 17 3 17 empty empty 5 5 9 0 16 -228856 -162280 0
;
#X obj 122 552 cnv 17 3 17 empty empty 6 5 9 0 16 -228856 -162280 0
;
#X text 163 491 signal - number of spirals;
#X text 163 511 signal - width of spirals;
#X text 163 471 signal - size of shroom;
#X text 163 531 signal - speed of shroom rotation (in percentages)
;
#X text 163 551 signal - spread of shrooms;
#X obj 122 572 cnv 17 3 17 empty empty 7 5 9 0 16 -228856 -162280 0
;
#X obj 122 592 cnv 17 3 17 empty empty 8 5 9 0 16 -228856 -162280 0
;
#X text 163 571 signal - head size of shroom;
#X text 163 591 float - number of shrooms;
#X obj 3 276 osci/rotate~ 25 0 0;
#X obj 3 98 phasor~ 100;
#X obj 112 186 sig~ 1.78;
#X obj 167 209 sig~ 20;
#X obj 222 187 sig~ 0.51;
#X obj 276 211 sig~ 0.02;
#X obj 331 188 sig~ 1.66;
#X obj 386 215 sig~ 2.07;
#X msg 441 182 2;
#X msg 57 209 100;
#X obj 57 132 loadbang;
#X text 254 303 // TODO:;
#X text 274 324 Create a gui for it;
#X connect 20 0 42 0;
#X connect 20 1 42 1;
#X connect 20 2 42 2;
#X connect 42 0 18 0;
#X connect 42 1 18 1;
#X connect 43 0 20 0;
#X connect 44 0 20 2;
#X connect 45 0 20 3;
#X connect 46 0 20 4;
#X connect 47 0 20 5;
#X connect 48 0 20 6;
#X connect 49 0 20 7;
#X connect 50 0 20 8;
#X connect 51 0 20 1;
#X connect 52 0 51 0;
#X connect 52 0 50 0;
