#N canvas 495 49 431 627 12;
#X declare -lib osci;
#X obj 3 278 phasor~ 50;
#X obj 3 302 osci/circle~ 0 0 2;
#X obj 145 307 osci/out~;
#X obj 3 346 osci/snd~ foo;
#X obj 145 278 osci/rcv~ foo;
#X obj 304 14 declare -lib osci;
#X text 5 37 [snd~] is a wrapper for pd’s built in [send~]. Internally
\, it creates three unique sends based on the symbol argument provided
on creation. For example \, foo-x foo-y foo-z. While not completely
necessary \, to avoid warnings [snd~] should be made before [rcv~].
;
#X text 5 117 A [send~] object copies its input to a local buffer which
all [receive~] objects of the same name read from. They may be in different
windows or even different patches. Any number of receives may be associated
with one [send~] but it is an error to have two sends of the same name.
;
#X text 5 424 ============================================================inlets
;
#X text 5 514 ============================================================outlets
;
#X text 5 564 ============================================================arguments
;
#X text 15 454 1 signal - x;
#X text 15 474 2 signal - y;
#X text 15 494 3 signal - z;
#X text 15 546 none;
#X obj 9 204 bng 24 250 50 0 empty empty empty 30 11 0 12 -91412 -174938
-203556;
#N canvas 0 23 503 114 docs 0;
#X obj 37 37 inlet;
#X obj 37 61 else/openfile https://eric-lennartson.github.io/pd-osci/#/snd~
;
#X connect 0 0 1 0;
#X restore 9 233 pd docs;
#X text 38 206 online documentation;
#X text 15 596 1 symbol - name to send;
#X connect 0 0 1 0;
#X connect 1 0 3 0;
#X connect 1 1 3 1;
#X connect 4 0 2 0;
#X connect 4 1 2 1;
#X connect 15 0 16 0;
