#N canvas 88 40 440 709 12;
#X declare -lib osci;
#X obj 10 84 phasor~ 100;
#X obj 10 367 osci/out~;
#X floatatom 292 105 5 0 0 0 - - -;
#X obj 292 185 *~ -1;
#X obj 117 214 osci/splitter~;
#X obj 298 3 declare -lib osci;
#X obj 172 406 bng 24 250 50 0 empty empty empty 30 11 0 12 -91412
-174938 -203556;
#X text 199 409 open online documentation;
#N canvas 0 23 528 104 docs 0;
#X obj 11 16 inlet;
#X obj 11 56 else/openfile https://eric-lennartson.github.io/pd-osci/#/splitter~
;
#X connect 0 0 1 0;
#X restore 172 440 pd docs;
#X text 10 523 1 signal - x frequency;
#X text 10 543 2 signal - y frequency;
#X text 10 563 3 signal - z frequency;
#X text 10 583 4-6 signal - x pulse width \, x minimum \, x maximum
;
#X text 10 603 7-9 signal - y pulse width \, y minimum \, y maximum
;
#X text 10 623 10-12 signal - z pulse width \, z minimum \, z maximum
;
#X text 10 676 1 signal - x;
#X text 10 696 2 signal - y;
#X text 10 716 3 signal - z;
#X text 1 490 ============================================================inlets
;
#X text 1 645 ============================================================outlets
;
#X text 1 734 ============================================================arguments
;
#X text 0 790 ========================================================================================================================
;
#X text 10 766 none;
#X obj 10 108 osci/dodeca~;
#X obj 10 342 osci/rotate_e~ 20 40 10;
#X obj 149 168 sig~ 0.5;
#X obj 117 90 sig~ 201;
#X obj 127 114 sig~ 302;
#X obj 138 137 sig~ 176;
#X obj 292 128 sig~ 1;
#X text 9 31 [splitter~] splits an image by summing it with a square
wave. The frequencies for each vector can be linked to one specific
frequency \, or be set individually.;
#X connect 0 0 23 0;
#X connect 2 0 29 0;
#X connect 3 0 4 10;
#X connect 3 0 4 7;
#X connect 3 0 4 4;
#X connect 4 0 24 0;
#X connect 4 1 24 1;
#X connect 4 2 24 2;
#X connect 6 0 8 0;
#X connect 23 0 24 0;
#X connect 23 1 24 1;
#X connect 23 2 24 2;
#X connect 24 0 1 0;
#X connect 24 1 1 1;
#X connect 25 0 4 3;
#X connect 25 0 4 6;
#X connect 25 0 4 9;
#X connect 26 0 4 0;
#X connect 27 0 4 1;
#X connect 28 0 4 2;
#X connect 29 0 3 0;
#X connect 29 0 4 5;
#X connect 29 0 4 8;
#X connect 29 0 4 11;
