#N canvas 661 23 575 748 12;
#X floatatom 56 148 5 0 0 0 - - -;
#X obj 56 171 sig~;
#X floatatom 96 148 5 0 0 0 - - -;
#X obj 96 171 sig~;
#X floatatom 137 148 5 0 0 0 - - -;
#X obj 137 171 sig~;
#X obj 88 322 cnv 15 3 60 empty empty 0 5 9 0 16 -216373 -141475 0
;
#X obj 88 566 cnv 15 3 17 empty empty 0 5 9 0 16 -216373 -141475 0
;
#X text 106 320 signal;
#X obj 88 400 cnv 15 3 17 empty empty 1 5 9 0 16 -216373 -141475 0
;
#X text 106 399 signal;
#X obj 88 425 cnv 15 3 17 empty empty 2 5 9 0 16 -216373 -141475 0
;
#X text 106 424 signal;
#X obj 88 450 cnv 15 3 17 empty empty 3 5 9 0 16 -216373 -141475 0
;
#X text 106 449 signal;
#X text 106 564 signal;
#X obj 88 596 cnv 15 3 17 empty empty 1 5 9 0 16 -216373 -141475 0
;
#X text 106 594 signal;
#X text 197 563 - sends out x signal;
#X text 197 593 - sends out y signal;
#X text 85 644 1) float;
#X text 85 664 2) float;
#X text 85 684 3) float;
#X obj 88 475 cnv 15 3 17 empty empty 4 5 9 0 16 -216373 -141475 0
;
#X text 106 474 signal;
#X text 265 644 4) float;
#X obj 16 249 osci/out~;
#X obj 16 99 phasor~ 50;
#X obj 16 195 supershape~, f 35;
#X text 101 97 1st inlet is a driver \, that draws the supershape;
#X text 60 127 n1;
#X text 100 127 n2;
#X text 140 127 n3;
#X text 180 127 m;
#X text 220 127 a;
#X text 260 127 b;
#X floatatom 177 148 5 0 0 0 - - -;
#X obj 177 171 sig~;
#X floatatom 217 148 5 0 0 0 - - -;
#X obj 217 171 sig~;
#X floatatom 258 148 5 0 0 0 - - -;
#X obj 258 171 sig~;
#X obj 88 500 cnv 15 3 17 empty empty 3 5 9 0 16 -216373 -141475 0
;
#X text 106 499 signal;
#X obj 88 525 cnv 15 3 17 empty empty 4 5 9 0 16 -216373 -141475 0
;
#X text 106 524 signal;
#X text 197 399 - n1;
#X text 197 424 - n2;
#X text 197 449 - n3;
#X text 197 474 - m \, controls rotational symmetry;
#X text 197 644 - n1;
#X text 197 664 - n2;
#X text 197 684 - n3;
#X text 377 644 - m;
#X text 377 664 - a;
#X text 377 684 - b;
#X text 265 664 5) float;
#X text 265 684 6) float;
#X obj 1 1 cnv 15 305 46 empty empty empty 20 12 0 14 -66577 -66577
0;
#X obj 4 3 cnv 15 301 42 empty empty supershape~ 20 20 2 37 -204786
-1 0;
#X obj 307 1 cnv 15 256 46 empty empty empty 20 12 0 14 -66577 -66577
0;
#X obj 310 4 cnv 15 250 40 empty empty empty 12 13 0 18 -128992 -233080
0;
#X obj 317 11 cnv 10 10 10 empty empty OSCI 0 15 2 30 -128992 -204786
0;
#X obj 10 34 cnv 5 10 10 empty \$0-description Draw\\\ a\\\ super\\\ shape
30 30 2 17 -204786 -1 0;
#X obj 413 25 cnv 10 10 10 empty empty Oscilloscope 0 6 2 13 -128992
-204786 0;
#X obj 480 25 cnv 10 10 10 empty empty Music 0 6 2 13 -128992 -204786
0;
#X obj 513 25 cnv 10 10 10 empty empty & 0 6 2 13 -128992 -204786 0
;
#X obj 454 11 cnv 10 10 10 empty empty Library 0 6 2 13 -128992 -204786
0;
#X obj 526 25 cnv 10 10 10 empty empty Art 0 6 2 13 -128992 -204786
0;
#X obj 497 11 cnv 10 10 10 empty empty for 0 6 2 13 -128992 -204786
0;
#X obj 1 314 cnv 1 552 1 empty empty inlets 8 12 0 13 -216373 -1 0
;
#X obj 1 557 cnv 1 552 1 empty empty outlets 8 12 0 13 -216373 -1 0
;
#X obj 2 634 cnv 1 552 1 empty empty arguments 8 12 0 13 -216373 -1
0;
#X obj 2 707 cnv 15 552 24 empty empty empty 20 12 0 14 -233017 -33289
0;
#N canvas 317 299 224 129 related_objects 0;
#X obj 1 1 cnv 15 220 23 empty empty empty 3 12 0 20 -204786 -1 0;
#X text 4 4 [supershape~] related objects;
#X obj 17 50 selipse~;
#X restore 15 710 pd related_objects;
#X text 198 320 - controls the position of the dot on the supershape
\, ramping from 0 to 1 results in drawing the whole shape. Normally
a phasor is used \, but any signal source works., f 47;
#X text 198 499 - a \, height;
#X text 197 524 - b \, width;
#X obj 312 231 else/openfile http://paulbourke.net/geometry/supershape/
-h More about supershapes;
#X connect 0 0 1 0;
#X connect 1 0 28 1;
#X connect 2 0 3 0;
#X connect 3 0 28 2;
#X connect 4 0 5 0;
#X connect 5 0 28 3;
#X connect 27 0 28 0;
#X connect 28 0 26 0;
#X connect 28 1 26 1;
#X connect 36 0 37 0;
#X connect 37 0 28 4;
#X connect 38 0 39 0;
#X connect 39 0 28 5;
#X connect 40 0 41 0;
#X connect 41 0 28 6;
