#N canvas -901 52 570 610 12;
#X obj 89 412 cnv 15 3 17 empty empty 0 5 9 0 16 -216373 -141475 0
;
#X obj 89 509 cnv 15 3 17 empty empty 0 5 9 0 16 -216373 -141475 0
;
#X text 107 411 signal;
#X obj 89 440 cnv 15 3 17 empty empty 1 5 9 0 16 -216373 -141475 0
;
#X text 107 439 signal;
#X obj 89 468 cnv 15 3 17 empty empty 2 5 9 0 16 -216373 -141475 0
;
#X text 107 467 signal;
#X text 107 508 signal;
#X obj 16 81 phasor~ 50;
#X obj 16 265 osci/square~ 0 0 0.5 0.5;
#X obj 16 225 trace~;
#X floatatom 35 116 5 0 0 0 - - -;
#X obj 35 139 sig~ 0.3;
#X floatatom 55 168 5 0 0 0 - - -;
#X obj 55 191 sig~ 0.6;
#X text 173 467 - length;
#X text 173 439 - start;
#X text 173 411 - phase;
#X text 178 508 - adjusted phase out;
#X obj 16 309 osci/out~;
#X text 83 116 controls start point (0-1);
#X text 96 167 controls length (0-1);
#X obj 1 1 cnv 15 305 46 empty empty empty 20 12 0 14 -66577 -66577
0;
#X obj 4 3 cnv 15 301 42 empty empty trace~ 20 20 2 37 -204786 -1 0
;
#X obj 307 1 cnv 15 256 46 empty empty empty 20 12 0 14 -66577 -66577
0;
#X obj 310 4 cnv 15 250 40 empty empty empty 12 13 0 18 -128992 -233080
0;
#X obj 317 11 cnv 10 10 10 empty empty OSCI 0 15 2 30 -128992 -204786
0;
#X obj 10 34 cnv 5 10 10 empty \$0-description Control\\\ phase\\\ range\\\ and\\\ length
30 30 2 17 -204786 -1 0;
#X obj 413 25 cnv 10 10 10 empty empty Oscilloscope 0 6 2 13 -128992
-204786 0;
#X obj 480 25 cnv 10 10 10 empty empty Music 0 6 2 13 -128992 -204786
0;
#X obj 513 25 cnv 10 10 10 empty empty & 0 6 2 13 -128992 -204786 0
;
#X obj 454 11 cnv 10 10 10 empty empty Library 0 6 2 13 -128992 -204786
0;
#X obj 526 25 cnv 10 10 10 empty empty Art 0 6 2 13 -128992 -204786
0;
#X obj 497 11 cnv 10 10 10 empty empty for 0 6 2 13 -128992 -204786
0;
#X obj 1 402 cnv 1 552 1 empty empty inlets 8 12 0 13 -216373 -1 0
;
#X obj 1 498 cnv 1 552 1 empty empty outlets 8 12 0 13 -216373 -1 0
;
#X obj 2 538 cnv 1 552 1 empty empty arguments 8 12 0 13 -216373 -1
0;
#X obj 2 566 cnv 15 552 24 empty empty empty 20 12 0 14 -233017 -33289
0;
#N canvas 68 399 284 188 related_objects 0;
#X obj 7 116 osci/dash~;
#X obj 127 66 osci/cut_equal~;
#X obj 127 91 osci/cut_weights~;
#X obj 127 116 osci/cut_mix~;
#X text 6 34 Phase Modifiers;
#X text 122 34 Phase Cutters;
#X obj 7 66 osci/knee~;
#X obj 7 91 osci/bright~;
#X obj 1 1 cnv 15 250 23 empty empty empty 3 12 0 20 -204786 -1 0;
#X text 8 4 Other phase manipulation objects;
#X restore 16 569 pd related_objects;
#X text 209 209 [trace~] controls the range and length of the phase
used to draw an image. Since it is a phase manipulation it must come
before any images to be drawn in the signal chain., f 47;
#X connect 8 0 10 0;
#X connect 9 0 19 0;
#X connect 9 1 19 1;
#X connect 10 0 9 0;
#X connect 11 0 12 0;
#X connect 12 0 10 1;
#X connect 13 0 14 0;
#X connect 14 0 10 2;
