#N canvas 448 23 586 740 12;
#X obj 89 363 cnv 15 3 17 empty empty 0 5 9 0 16 -216373 -141475 0
;
#X obj 89 557 cnv 15 3 17 empty empty 0 5 9 0 16 -216373 -141475 0
;
#X text 107 362 signal;
#X obj 89 391 cnv 15 3 17 empty empty 1 5 9 0 16 -216373 -141475 0
;
#X text 107 390 signal;
#X obj 89 419 cnv 15 3 17 empty empty 2 5 9 0 16 -216373 -141475 0
;
#X text 107 418 signal;
#X obj 89 447 cnv 15 3 17 empty empty 3 5 9 0 16 -216373 -141475 0
;
#X text 107 446 signal;
#X text 107 556 signal;
#X obj 89 577 cnv 15 3 17 empty empty 1 5 9 0 16 -216373 -141475 0
;
#X text 107 576 signal;
#X text 86 635 1) float;
#X text 86 655 2) float;
#X text 86 675 3) float;
#X floatatom 138 135 5 0 0 0 - - -;
#X obj 138 158 sig~;
#X floatatom 182 158 5 0 0 0 - - -;
#X obj 182 181 sig~;
#X floatatom 227 181 5 0 0 0 - - -;
#X obj 227 204 sig~;
#X obj 89 475 cnv 15 3 17 empty empty 4 5 9 0 16 -216373 -141475 0
;
#X text 107 474 signal;
#X obj 89 503 cnv 15 3 17 empty empty 5 5 9 0 16 -216373 -141475 0
;
#X text 107 502 signal;
#X obj 89 597 cnv 15 3 17 empty empty 2 5 9 0 16 -216373 -141475 0
;
#X text 108 596 signal;
#X obj 7 82 phasor~ 50;
#X obj 2 2 cnv 15 305 46 empty empty empty 20 12 0 14 -66577 -66577
0;
#X obj 5 4 cnv 15 301 42 empty empty translate~ 20 20 2 37 -204786
-1 0;
#X obj 308 2 cnv 15 256 46 empty empty empty 20 12 0 14 -66577 -66577
0;
#X obj 311 5 cnv 15 250 40 empty empty empty 12 13 0 18 -128992 -233080
0;
#X obj 318 12 cnv 10 10 10 empty empty OSCI 0 15 2 30 -128992 -204786
0;
#X obj 414 26 cnv 10 10 10 empty empty Oscilloscope 0 6 2 13 -128992
-204786 0;
#X obj 481 26 cnv 10 10 10 empty empty Music 0 6 2 13 -128992 -204786
0;
#X obj 514 26 cnv 10 10 10 empty empty & 0 6 2 13 -128992 -204786 0
;
#X obj 455 12 cnv 10 10 10 empty empty Library 0 6 2 13 -128992 -204786
0;
#X obj 527 26 cnv 10 10 10 empty empty Art 0 6 2 13 -128992 -204786
0;
#X obj 498 12 cnv 10 10 10 empty empty for 0 6 2 13 -128992 -204786
0;
#X obj 11 35 cnv 5 10 10 empty \$0-description Offset\\\ a\\\ 3D\\\ signal\\\ vector
30 30 2 17 -204786 -1 0;
#X text 198 554 - x;
#X text 198 574 - y;
#X text 198 596 - z;
#X obj 6 254 osci/out~;
#X text 199 362 - x;
#X text 199 390 - y;
#X text 199 418 - z;
#X obj 6 230 osci/translate~, f 32;
#X text 268 180 z offset;
#X text 224 158 y offset;
#X text 179 135 x offset;
#X obj 7 106 osci/circle~ 0 0 1;
#X text 198 636 - x offset;
#X text 198 656 - y offset;
#X text 198 676 - z offset;
#X text 199 446 - x offset;
#X text 199 474 - y offset;
#X text 199 502 - z offset;
#X obj 1 344 cnv 1 550 1 empty empty inlets 8 12 0 13 -216373 -1 0
;
#X obj 1 537 cnv 1 550 1 empty empty outlets 8 12 0 13 -216373 -1 0
;
#X obj 1 628 cnv 1 550 1 empty empty arguments 8 12 0 13 -216373 -1
0;
#X obj 3 696 cnv 15 552 24 empty empty empty 20 12 0 14 -233017 -33289
0;
#N canvas 107 214 235 200 related_objects 0;
#X obj 1 1 cnv 15 230 23 empty empty empty 3 12 0 20 -204786 -1 0;
#X text 10 4 Other Transformations;
#X obj 17 44 osci/rotate~;
#X obj 17 74 osci/scale~;
#X obj 17 104 osci/shear~;
#X restore 17 699 pd related_objects;
#X text 368 261 (abbreviation);
#X obj 281 260 osci/trans~;
#X connect 15 0 16 0;
#X connect 16 0 47 3;
#X connect 17 0 18 0;
#X connect 18 0 47 4;
#X connect 19 0 20 0;
#X connect 20 0 47 5;
#X connect 27 0 51 0;
#X connect 47 0 43 0;
#X connect 47 1 43 1;
#X connect 51 0 47 0;
#X connect 51 1 47 1;
